%TF.GenerationSoftware,KiCad,Pcbnew,(6.0.0-0)*%
%TF.CreationDate,2022-03-30T15:47:28-05:00*%
%TF.ProjectId,spacebot-CM4-breakout,73706163-6562-46f7-942d-434d342d6272,rev?*%
%TF.SameCoordinates,Original*%
%TF.FileFunction,Copper,L1,Top*%
%TF.FilePolarity,Positive*%
%FSLAX46Y46*%
G04 Gerber Fmt 4.6, Leading zero omitted, Abs format (unit mm)*
G04 Created by KiCad (PCBNEW (6.0.0-0)) date 2022-03-30 15:47:28*
%MOMM*%
%LPD*%
G01*
G04 APERTURE LIST*
%TA.AperFunction,ComponentPad*%
%ADD10R,1.700000X1.700000*%
%TD*%
%TA.AperFunction,ComponentPad*%
%ADD11O,1.700000X1.700000*%
%TD*%
%TA.AperFunction,SMDPad,CuDef*%
%ADD12R,0.700000X0.200000*%
%TD*%
%TA.AperFunction,ViaPad*%
%ADD13C,0.800000*%
%TD*%
%TA.AperFunction,Conductor*%
%ADD14C,0.200000*%
%TD*%
G04 APERTURE END LIST*
D10*
%TO.P,J1,1,Pin_1*%
%TO.N,5V*%
X110075000Y-111375000D03*
D11*
%TO.P,J1,2,Pin_2*%
%TO.N,3.3V*%
X107535000Y-111375000D03*
%TO.P,J1,3,Pin_3*%
%TO.N,GND*%
X110075000Y-108835000D03*
%TO.P,J1,4,Pin_4*%
%TO.N,I2S_SD*%
X107535000Y-108835000D03*
%TO.P,J1,5,Pin_5*%
%TO.N,I2S_SCK*%
X110075000Y-106295000D03*
%TO.P,J1,6,Pin_6*%
%TO.N,UART_RX*%
X107535000Y-106295000D03*
%TO.P,J1,7,Pin_7*%
%TO.N,UART_TX*%
X110075000Y-103755000D03*
%TO.P,J1,8,Pin_8*%
%TO.N,SD_CLK*%
X107535000Y-103755000D03*
%TO.P,J1,9,Pin_9*%
%TO.N,SD_DAT3*%
X110075000Y-101215000D03*
%TO.P,J1,10,Pin_10*%
%TO.N,SD_DAT0*%
X107535000Y-101215000D03*
%TO.P,J1,11,Pin_11*%
%TO.N,SD_DAT1*%
X110075000Y-98675000D03*
%TO.P,J1,12,Pin_12*%
%TO.N,SD_DAT2*%
X107535000Y-98675000D03*
%TO.P,J1,13,Pin_13*%
%TO.N,I2S_WS*%
X110075000Y-96135000D03*
%TO.P,J1,14,Pin_14*%
%TO.N,SCL_0*%
X107535000Y-96135000D03*
%TO.P,J1,15,Pin_15*%
%TO.N,SDA_0*%
X110075000Y-93595000D03*
%TO.P,J1,16,Pin_16*%
%TO.N,unconnected-(J1-Pad16)*%
X107535000Y-93595000D03*
%TO.P,J1,17,Pin_17*%
%TO.N,unconnected-(J1-Pad17)*%
X110075000Y-91055000D03*
%TO.P,J1,18,Pin_18*%
%TO.N,unconnected-(J1-Pad18)*%
X107535000Y-91055000D03*
%TO.P,J1,19,Pin_19*%
%TO.N,unconnected-(J1-Pad19)*%
X110075000Y-88515000D03*
%TO.P,J1,20,Pin_20*%
%TO.N,unconnected-(J1-Pad20)*%
X107535000Y-88515000D03*
%TO.P,J1,21,Pin_21*%
%TO.N,unconnected-(J1-Pad21)*%
X110075000Y-85975000D03*
%TO.P,J1,22,Pin_22*%
%TO.N,GND*%
X107535000Y-85975000D03*
%TO.P,J1,23,Pin_23*%
%TO.N,unconnected-(J1-Pad23)*%
X110075000Y-83435000D03*
%TO.P,J1,24,Pin_24*%
%TO.N,1.8V*%
X107535000Y-83435000D03*
%TD*%
D12*
%TO.P,U1,200,HDMI0_SCL*%
%TO.N,unconnected-(U1-Pad200)*%
X169600000Y-111225000D03*
%TO.P,U1,199,HDMI0_SDA*%
%TO.N,unconnected-(U1-Pad199)*%
X166520000Y-111225000D03*
%TO.P,U1,198,GND*%
%TO.N,GND*%
X169600000Y-110825000D03*
%TO.P,U1,197,GND*%
X166520000Y-110825000D03*
%TO.P,U1,196,DSI1_D3_P*%
%TO.N,unconnected-(U1-Pad196)*%
X169600000Y-110425000D03*
%TO.P,U1,195,DSI1_D2_P*%
%TO.N,unconnected-(U1-Pad195)*%
X166520000Y-110425000D03*
%TO.P,U1,194,DSI1_D3_N*%
%TO.N,unconnected-(U1-Pad194)*%
X169600000Y-110025000D03*
%TO.P,U1,193,DSI1_D2_N*%
%TO.N,unconnected-(U1-Pad193)*%
X166520000Y-110025000D03*
%TO.P,U1,192,GND*%
%TO.N,GND*%
X169600000Y-109625000D03*
%TO.P,U1,191,GND*%
X166520000Y-109625000D03*
%TO.P,U1,190,HDMI0_CLK_N*%
%TO.N,unconnected-(U1-Pad190)*%
X169600000Y-109225000D03*
%TO.P,U1,189,DSI1_C_P*%
%TO.N,unconnected-(U1-Pad189)*%
X166520000Y-109225000D03*
%TO.P,U1,188,HDMI0_CLK_P*%
%TO.N,unconnected-(U1-Pad188)*%
X169600000Y-108825000D03*
%TO.P,U1,187,DSI1_C_N*%
%TO.N,unconnected-(U1-Pad187)*%
X166520000Y-108825000D03*
%TO.P,U1,186,GND*%
%TO.N,GND*%
X169600000Y-108425000D03*
%TO.P,U1,185,GND*%
X166520000Y-108425000D03*
%TO.P,U1,184,HDMI0_TX0_N*%
%TO.N,unconnected-(U1-Pad184)*%
X169600000Y-108025000D03*
%TO.P,U1,183,DSI1_D1_P*%
%TO.N,unconnected-(U1-Pad183)*%
X166520000Y-108025000D03*
%TO.P,U1,182,HDMI0_TX0_P*%
%TO.N,unconnected-(U1-Pad182)*%
X169600000Y-107625000D03*
%TO.P,U1,181,DSI1_D1_N*%
%TO.N,unconnected-(U1-Pad181)*%
X166520000Y-107625000D03*
%TO.P,U1,180,GND*%
%TO.N,GND*%
X169600000Y-107225000D03*
%TO.P,U1,179,GND*%
X166520000Y-107225000D03*
%TO.P,U1,178,HDMI0_TX1_N*%
%TO.N,unconnected-(U1-Pad178)*%
X169600000Y-106825000D03*
%TO.P,U1,177,DSI1_D0_P*%
%TO.N,unconnected-(U1-Pad177)*%
X166520000Y-106825000D03*
%TO.P,U1,176,HDMI0_TX1_P*%
%TO.N,unconnected-(U1-Pad176)*%
X169600000Y-106425000D03*
%TO.P,U1,175,DSI1_D0_N*%
%TO.N,unconnected-(U1-Pad175)*%
X166520000Y-106425000D03*
%TO.P,U1,174,GND*%
%TO.N,GND*%
X169600000Y-106025000D03*
%TO.P,U1,173,GND*%
X166520000Y-106025000D03*
%TO.P,U1,172,HDMI0_TX2_N*%
%TO.N,unconnected-(U1-Pad172)*%
X169600000Y-105625000D03*
%TO.P,U1,171,DSI0_C_P*%
%TO.N,unconnected-(U1-Pad171)*%
X166520000Y-105625000D03*
%TO.P,U1,170,HDMI0_TX2_P*%
%TO.N,unconnected-(U1-Pad170)*%
X169600000Y-105225000D03*
%TO.P,U1,169,DSI0_C_N*%
%TO.N,unconnected-(U1-Pad169)*%
X166520000Y-105225000D03*
%TO.P,U1,168,GND*%
%TO.N,GND*%
X169600000Y-104825000D03*
%TO.P,U1,167,GND*%
X166520000Y-104825000D03*
%TO.P,U1,166,HDMI1_CLK_N*%
%TO.N,unconnected-(U1-Pad166)*%
X169600000Y-104425000D03*
%TO.P,U1,165,DSI0_D1_P*%
%TO.N,unconnected-(U1-Pad165)*%
X166520000Y-104425000D03*
%TO.P,U1,164,HDMI1_CLK_P*%
%TO.N,unconnected-(U1-Pad164)*%
X169600000Y-104025000D03*
%TO.P,U1,163,DSI0_D1_N*%
%TO.N,unconnected-(U1-Pad163)*%
X166520000Y-104025000D03*
%TO.P,U1,162,GND*%
%TO.N,GND*%
X169600000Y-103625000D03*
%TO.P,U1,161,GND*%
X166520000Y-103625000D03*
%TO.P,U1,160,HDMI1_TX0_N*%
%TO.N,unconnected-(U1-Pad160)*%
X169600000Y-103225000D03*
%TO.P,U1,159,DSI0_D0_P*%
%TO.N,unconnected-(U1-Pad159)*%
X166520000Y-103225000D03*
%TO.P,U1,158,HDMI1_TX0_P*%
%TO.N,unconnected-(U1-Pad158)*%
X169600000Y-102825000D03*
%TO.P,U1,157,DSI0_D0_N*%
%TO.N,unconnected-(U1-Pad157)*%
X166520000Y-102825000D03*
%TO.P,U1,156,GND*%
%TO.N,GND*%
X169600000Y-102425000D03*
%TO.P,U1,155,GND*%
X166520000Y-102425000D03*
%TO.P,U1,154,HDMI1_TX1_N*%
%TO.N,unconnected-(U1-Pad154)*%
X169600000Y-102025000D03*
%TO.P,U1,153,HDMI0_HOTPLUG*%
%TO.N,unconnected-(U1-Pad153)*%
X166520000Y-102025000D03*
%TO.P,U1,152,HDMI1_TX1_P*%
%TO.N,unconnected-(U1-Pad152)*%
X169600000Y-101625000D03*
%TO.P,U1,151,HDMI0_CEC*%
%TO.N,unconnected-(U1-Pad151)*%
X166520000Y-101625000D03*
%TO.P,U1,150,GND*%
%TO.N,GND*%
X169600000Y-101225000D03*
%TO.P,U1,149,HDMI1_CEC*%
%TO.N,unconnected-(U1-Pad149)*%
X166520000Y-101225000D03*
%TO.P,U1,148,HDMI1_TX2_N*%
%TO.N,unconnected-(U1-Pad148)*%
X169600000Y-100825000D03*
%TO.P,U1,147,HDMI1_SCL*%
%TO.N,unconnected-(U1-Pad147)*%
X166520000Y-100825000D03*
%TO.P,U1,146,HDMI1_TX2_P*%
%TO.N,unconnected-(U1-Pad146)*%
X169600000Y-100425000D03*
%TO.P,U1,145,HDMI1_SDA*%
%TO.N,unconnected-(U1-Pad145)*%
X166520000Y-100425000D03*
%TO.P,U1,144,GND*%
%TO.N,GND*%
X169600000Y-100025000D03*
%TO.P,U1,143,HDMI1_HOTPLUG*%
%TO.N,unconnected-(U1-Pad143)*%
X166520000Y-100025000D03*
%TO.P,U1,142,CAM0_C_P*%
%TO.N,unconnected-(U1-Pad142)*%
X169600000Y-99625000D03*
%TO.P,U1,141,CAM1_D3_P*%
%TO.N,unconnected-(U1-Pad141)*%
X166520000Y-99625000D03*
%TO.P,U1,140,CAM0_C_N*%
%TO.N,unconnected-(U1-Pad140)*%
X169600000Y-99225000D03*
%TO.P,U1,139,CAM1_D3_N*%
%TO.N,unconnected-(U1-Pad139)*%
X166520000Y-99225000D03*
%TO.P,U1,138,GND*%
%TO.N,GND*%
X169600000Y-98825000D03*
%TO.P,U1,137,GND*%
X166520000Y-98825000D03*
%TO.P,U1,136,CAM0_D1_P*%
%TO.N,unconnected-(U1-Pad136)*%
X169600000Y-98425000D03*
%TO.P,U1,135,CAM1_D2_P*%
%TO.N,unconnected-(U1-Pad135)*%
X166520000Y-98425000D03*
%TO.P,U1,134,CAM0_D1_N*%
%TO.N,unconnected-(U1-Pad134)*%
X169600000Y-98025000D03*
%TO.P,U1,133,CAM1_D2_N*%
%TO.N,unconnected-(U1-Pad133)*%
X166520000Y-98025000D03*
%TO.P,U1,132,GND*%
%TO.N,GND*%
X169600000Y-97625000D03*
%TO.P,U1,131,GND*%
X166520000Y-97625000D03*
%TO.P,U1,130,CAM0_D0_P*%
%TO.N,unconnected-(U1-Pad130)*%
X169600000Y-97225000D03*
%TO.P,U1,129,CAM1_C_P*%
%TO.N,unconnected-(U1-Pad129)*%
X166520000Y-97225000D03*
%TO.P,U1,128,CAM0_D0_N*%
%TO.N,unconnected-(U1-Pad128)*%
X169600000Y-96825000D03*
%TO.P,U1,127,CAM1_C_N*%
%TO.N,unconnected-(U1-Pad127)*%
X166520000Y-96825000D03*
%TO.P,U1,126,GND*%
%TO.N,GND*%
X169600000Y-96425000D03*
%TO.P,U1,125,GND*%
X166520000Y-96425000D03*
%TO.P,U1,124,PCIe_TX_N*%
%TO.N,unconnected-(U1-Pad124)*%
X169600000Y-96025000D03*
%TO.P,U1,123,CAM1_D1_P*%
%TO.N,unconnected-(U1-Pad123)*%
X166520000Y-96025000D03*
%TO.P,U1,122,PCIe_TX_P*%
%TO.N,unconnected-(U1-Pad122)*%
X169600000Y-95625000D03*
%TO.P,U1,121,CAM1_D1_N*%
%TO.N,unconnected-(U1-Pad121)*%
X166520000Y-95625000D03*
%TO.P,U1,120,GND*%
%TO.N,GND*%
X169600000Y-95225000D03*
%TO.P,U1,119,GND*%
X166520000Y-95225000D03*
%TO.P,U1,118,PCIe_RX_N*%
%TO.N,unconnected-(U1-Pad118)*%
X169600000Y-94825000D03*
%TO.P,U1,117,CAM1_D0_P*%
%TO.N,unconnected-(U1-Pad117)*%
X166520000Y-94825000D03*
%TO.P,U1,116,PCIe_RX_P*%
%TO.N,unconnected-(U1-Pad116)*%
X169600000Y-94425000D03*
%TO.P,U1,115,CAM1_D0_N*%
%TO.N,unconnected-(U1-Pad115)*%
X166520000Y-94425000D03*
%TO.P,U1,114,GND*%
%TO.N,GND*%
X169600000Y-94025000D03*
%TO.P,U1,113,GND*%
X166520000Y-94025000D03*
%TO.P,U1,112,PCIe_CLK_N*%
%TO.N,unconnected-(U1-Pad112)*%
X169600000Y-93625000D03*
%TO.P,U1,111,VDAC_COMP*%
%TO.N,unconnected-(U1-Pad111)*%
X166520000Y-93625000D03*
%TO.P,U1,110,PCIe_CLK_P*%
%TO.N,unconnected-(U1-Pad110)*%
X169600000Y-93225000D03*
%TO.P,U1,109,~{PCIe_nRST}*%
%TO.N,unconnected-(U1-Pad109)*%
X166520000Y-93225000D03*
%TO.P,U1,108,GND*%
%TO.N,GND*%
X169600000Y-92825000D03*
%TO.P,U1,107,GND*%
X166520000Y-92825000D03*
%TO.P,U1,106,Reserved*%
%TO.N,unconnected-(U1-Pad106)*%
X169600000Y-92425000D03*
%TO.P,U1,105,USB_P*%
%TO.N,unconnected-(U1-Pad105)*%
X166520000Y-92425000D03*
%TO.P,U1,104,Reserved*%
%TO.N,unconnected-(U1-Pad104)*%
X169600000Y-92025000D03*
%TO.P,U1,103,USB_N*%
%TO.N,unconnected-(U1-Pad103)*%
X166520000Y-92025000D03*
%TO.P,U1,102,~{PCIe_CLK_nREQ}*%
%TO.N,unconnected-(U1-Pad102)*%
X169600000Y-91625000D03*
%TO.P,U1,101,USB_OTG_ID*%
%TO.N,unconnected-(U1-Pad101)*%
X166520000Y-91625000D03*
%TO.P,U1,100,~{nEXTRST}*%
%TO.N,unconnected-(U1-Pad100)*%
X135680000Y-111225000D03*
%TO.P,U1,99,GLOBAL_EN*%
%TO.N,unconnected-(U1-Pad99)*%
X132600000Y-111225000D03*
%TO.P,U1,98,GND*%
%TO.N,GND*%
X135680000Y-110825000D03*
%TO.P,U1,97,Camera_GPIO*%
%TO.N,unconnected-(U1-Pad97)*%
X132600000Y-110825000D03*
%TO.P,U1,96,AnalogIP0*%
%TO.N,unconnected-(U1-Pad96)*%
X135680000Y-110425000D03*
%TO.P,U1,95,~{PI_LED_nPWR}*%
%TO.N,unconnected-(U1-Pad95)*%
X132600000Y-110425000D03*
%TO.P,U1,94,AnalogIP1*%
%TO.N,unconnected-(U1-Pad94)*%
X135680000Y-110025000D03*
%TO.P,U1,93,~{nRPIBOOT}*%
%TO.N,unconnected-(U1-Pad93)*%
X132600000Y-110025000D03*
%TO.P,U1,92,RUN_PG*%
%TO.N,unconnected-(U1-Pad92)*%
X135680000Y-109625000D03*
%TO.P,U1,91,~{BT_nDisable}*%
%TO.N,unconnected-(U1-Pad91)*%
X132600000Y-109625000D03*
%TO.P,U1,90,CM4_1.8V_Out*%
%TO.N,1.8V*%
X135680000Y-109225000D03*
%TO.P,U1,89,~{WL_nDisable}*%
%TO.N,unconnected-(U1-Pad89)*%
X132600000Y-109225000D03*
%TO.P,U1,88,CM4_1.8V_Out*%
%TO.N,1.8V*%
X135680000Y-108825000D03*
%TO.P,U1,87,+5V*%
%TO.N,5V*%
X132600000Y-108825000D03*
%TO.P,U1,86,CM4_3.3V_Out*%
%TO.N,3.3V*%
X135680000Y-108425000D03*
%TO.P,U1,85,+5V*%
%TO.N,5V*%
X132600000Y-108425000D03*
%TO.P,U1,84,CM4_3.3V_Out*%
%TO.N,3.3V*%
X135680000Y-108025000D03*
%TO.P,U1,83,+5V*%
%TO.N,5V*%
X132600000Y-108025000D03*
%TO.P,U1,82,I2C_SDA0*%
%TO.N,SDA_0*%
X135680000Y-107625000D03*
%TO.P,U1,81,+5V*%
%TO.N,5V*%
X132600000Y-107625000D03*
%TO.P,U1,80,I2C_SCL0*%
%TO.N,SCL_0*%
X135680000Y-107225000D03*
%TO.P,U1,79,+5V*%
%TO.N,5V*%
X132600000Y-107225000D03*
%TO.P,U1,78,GPIO_VREF*%
%TO.N,unconnected-(U1-Pad78)*%
X135680000Y-106825000D03*
%TO.P,U1,77,+5V*%
%TO.N,5V*%
X132600000Y-106825000D03*
%TO.P,U1,76,Reserved*%
%TO.N,unconnected-(U1-Pad76)*%
X135680000Y-106425000D03*
%TO.P,U1,75,SD_PWR_ON*%
%TO.N,unconnected-(U1-Pad75)*%
X132600000Y-106425000D03*
%TO.P,U1,74,GND*%
%TO.N,GND*%
X135680000Y-106025000D03*
%TO.P,U1,73,SD_VDD_Override*%
%TO.N,unconnected-(U1-Pad73)*%
X132600000Y-106025000D03*
%TO.P,U1,72,SD_DAT6*%
%TO.N,unconnected-(U1-Pad72)*%
X135680000Y-105625000D03*
%TO.P,U1,71,GND*%
%TO.N,GND*%
X132600000Y-105625000D03*
%TO.P,U1,70,SD_DAT7*%
%TO.N,unconnected-(U1-Pad70)*%
X135680000Y-105225000D03*
%TO.P,U1,69,SD_DAT2*%
%TO.N,SD_DAT2*%
X132600000Y-105225000D03*
%TO.P,U1,68,SD_DAT4*%
%TO.N,unconnected-(U1-Pad68)*%
X135680000Y-104825000D03*
%TO.P,U1,67,SD_DAT1*%
%TO.N,SD_DAT1*%
X132600000Y-104825000D03*
%TO.P,U1,66,GND*%
%TO.N,GND*%
X135680000Y-104425000D03*
%TO.P,U1,65,GND*%
X132600000Y-104425000D03*
%TO.P,U1,64,SD_DAT5*%
%TO.N,unconnected-(U1-Pad64)*%
X135680000Y-104025000D03*
%TO.P,U1,63,SD_DAT0*%
%TO.N,SD_DAT0*%
X132600000Y-104025000D03*
%TO.P,U1,62,SD_CMD*%
%TO.N,unconnected-(U1-Pad62)*%
X135680000Y-103625000D03*
%TO.P,U1,61,SD_DAT3*%
%TO.N,SD_DAT3*%
X132600000Y-103625000D03*
%TO.P,U1,60,GND*%
%TO.N,GND*%
X135680000Y-103225000D03*
%TO.P,U1,59,GND*%
X132600000Y-103225000D03*
%TO.P,U1,58,GPIO2*%
%TO.N,unconnected-(U1-Pad58)*%
X135680000Y-102825000D03*
%TO.P,U1,57,SD_CLK*%
%TO.N,SD_CLK*%
X132600000Y-102825000D03*
%TO.P,U1,56,GPIO3*%
%TO.N,unconnected-(U1-Pad56)*%
X135680000Y-102425000D03*
%TO.P,U1,55,GPIO14*%
%TO.N,UART_TX*%
X132600000Y-102425000D03*
%TO.P,U1,54,GPIO4*%
%TO.N,unconnected-(U1-Pad54)*%
X135680000Y-102025000D03*
%TO.P,U1,53,GND*%
%TO.N,GND*%
X132600000Y-102025000D03*
%TO.P,U1,52,GND*%
X135680000Y-101625000D03*
%TO.P,U1,51,GPIO15*%
%TO.N,UART_RX*%
X132600000Y-101625000D03*
%TO.P,U1,50,GPIO17*%
%TO.N,unconnected-(U1-Pad50)*%
X135680000Y-101225000D03*
%TO.P,U1,49,GPIO18*%
%TO.N,I2S_SCK*%
X132600000Y-101225000D03*
%TO.P,U1,48,GPIO27*%
%TO.N,unconnected-(U1-Pad48)*%
X135680000Y-100825000D03*
%TO.P,U1,47,GPIO23*%
%TO.N,unconnected-(U1-Pad47)*%
X132600000Y-100825000D03*
%TO.P,U1,46,GPIO22*%
%TO.N,unconnected-(U1-Pad46)*%
X135680000Y-100425000D03*
%TO.P,U1,45,GPIO24*%
%TO.N,unconnected-(U1-Pad45)*%
X132600000Y-100425000D03*
%TO.P,U1,44,GPIO10*%
%TO.N,unconnected-(U1-Pad44)*%
X135680000Y-100025000D03*
%TO.P,U1,43,GND*%
%TO.N,GND*%
X132600000Y-100025000D03*
%TO.P,U1,42,GND*%
X135680000Y-99625000D03*
%TO.P,U1,41,GPIO25*%
%TO.N,unconnected-(U1-Pad41)*%
X132600000Y-99625000D03*
%TO.P,U1,40,GPIO9*%
%TO.N,unconnected-(U1-Pad40)*%
X135680000Y-99225000D03*
%TO.P,U1,39,GPIO8*%
%TO.N,unconnected-(U1-Pad39)*%
X132600000Y-99225000D03*
%TO.P,U1,38,GPIO11*%
%TO.N,unconnected-(U1-Pad38)*%
X135680000Y-98825000D03*
%TO.P,U1,37,GPIO7*%
%TO.N,unconnected-(U1-Pad37)*%
X132600000Y-98825000D03*
%TO.P,U1,36,ID_SD*%
%TO.N,unconnected-(U1-Pad36)*%
X135680000Y-98425000D03*
%TO.P,U1,35,ID_SC*%
%TO.N,unconnected-(U1-Pad35)*%
X132600000Y-98425000D03*
%TO.P,U1,34,GPIO5*%
%TO.N,unconnected-(U1-Pad34)*%
X135680000Y-98025000D03*
%TO.P,U1,33,GND*%
%TO.N,GND*%
X132600000Y-98025000D03*
%TO.P,U1,32,GND*%
X135680000Y-97625000D03*
%TO.P,U1,31,GPIO12*%
%TO.N,unconnected-(U1-Pad31)*%
X132600000Y-97625000D03*
%TO.P,U1,30,GPIO6*%
%TO.N,unconnected-(U1-Pad30)*%
X135680000Y-97225000D03*
%TO.P,U1,29,GPIO16*%
%TO.N,unconnected-(U1-Pad29)*%
X132600000Y-97225000D03*
%TO.P,U1,28,GPIO13*%
%TO.N,unconnected-(U1-Pad28)*%
X135680000Y-96825000D03*
%TO.P,U1,27,GPIO20*%
%TO.N,I2S_SD*%
X132600000Y-96825000D03*
%TO.P,U1,26,GPIO19*%
%TO.N,I2S_WS*%
X135680000Y-96425000D03*
%TO.P,U1,25,GPIO21*%
%TO.N,unconnected-(U1-Pad25)*%
X132600000Y-96425000D03*
%TO.P,U1,24,GPIO26*%
%TO.N,unconnected-(U1-Pad24)*%
X135680000Y-96025000D03*
%TO.P,U1,23,GND*%
%TO.N,GND*%
X132600000Y-96025000D03*
%TO.P,U1,22,GND*%
X135680000Y-95625000D03*
%TO.P,U1,21,~{Pi_nLED_Activity}*%
%TO.N,unconnected-(U1-Pad21)*%
X132600000Y-95625000D03*
%TO.P,U1,20,EEPROM_nWP*%
%TO.N,unconnected-(U1-Pad20)*%
X135680000Y-95225000D03*
%TO.P,U1,19,~{Ethernet_nLED1}*%
%TO.N,unconnected-(U1-Pad19)*%
X132600000Y-95225000D03*
%TO.P,U1,18,Ethernet_SYNC_OUT*%
%TO.N,unconnected-(U1-Pad18)*%
X135680000Y-94825000D03*
%TO.P,U1,17,~{Ethernet_nLED2}*%
%TO.N,unconnected-(U1-Pad17)*%
X132600000Y-94825000D03*
%TO.P,U1,16,Ethernet_SYNC_IN*%
%TO.N,unconnected-(U1-Pad16)*%
X135680000Y-94425000D03*
%TO.P,U1,15,~{Ethernet_nLED3}*%
%TO.N,unconnected-(U1-Pad15)*%
X132600000Y-94425000D03*
%TO.P,U1,14,GND*%
%TO.N,GND*%
X135680000Y-94025000D03*
%TO.P,U1,13,GND*%
X132600000Y-94025000D03*
%TO.P,U1,12,Ethernet_Pair0_P*%
%TO.N,unconnected-(U1-Pad12)*%
X135680000Y-93625000D03*
%TO.P,U1,11,Ethernet_Pair2_P*%
%TO.N,unconnected-(U1-Pad11)*%
X132600000Y-93625000D03*
%TO.P,U1,10,Ethernet_Pair0_N*%
%TO.N,unconnected-(U1-Pad10)*%
X135680000Y-93225000D03*
%TO.P,U1,9,Ethernet_Pair2_N*%
%TO.N,unconnected-(U1-Pad9)*%
X132600000Y-93225000D03*
%TO.P,U1,8,GND*%
%TO.N,GND*%
X135680000Y-92825000D03*
%TO.P,U1,7,GND*%
X132600000Y-92825000D03*
%TO.P,U1,6,Ethernet_Pair1_N*%
%TO.N,unconnected-(U1-Pad6)*%
X135680000Y-92425000D03*
%TO.P,U1,5,Ethernet_Pair3_N*%
%TO.N,unconnected-(U1-Pad5)*%
X132600000Y-92425000D03*
%TO.P,U1,4,Ethernet_Pair1_P*%
%TO.N,unconnected-(U1-Pad4)*%
X135680000Y-92025000D03*
%TO.P,U1,3,Ethernet_Pair3_P*%
%TO.N,unconnected-(U1-Pad3)*%
X132600000Y-92025000D03*
%TO.P,U1,2,GND*%
%TO.N,GND*%
X135680000Y-91625000D03*
%TO.P,U1,1,GND*%
X132600000Y-91625000D03*
%TD*%
D13*
%TO.N,GND*%
X168070000Y-111560000D03*
X113190000Y-102360000D03*
X121560000Y-103920000D03*
X118180000Y-101620000D03*
X128330000Y-106460000D03*
X141210000Y-109390000D03*
X141480000Y-100390000D03*
X141010000Y-92130000D03*
X120920000Y-88900000D03*
X133950000Y-87610000D03*
X130650000Y-93520000D03*
X137210000Y-93950000D03*
X137570000Y-101590000D03*
X130200000Y-98020000D03*
X129570000Y-110620000D03*
X137470000Y-106110000D03*
X125970000Y-110780000D03*
X134115000Y-113375000D03*
X134190000Y-111820000D03*
%TO.N,UART_RX*%
X118625000Y-104100000D03*
X128100000Y-99675000D03*
%TO.N,I2S_SCK*%
X120425000Y-105625000D03*
X130300000Y-100175000D03*
%TO.N,UART_TX*%
X128512500Y-101512500D03*
%TO.N,SD_DAT1*%
X115200000Y-99900000D03*
%TO.N,SD_DAT2*%
X123850000Y-106400000D03*
%TO.N,I2S_WS*%
X138150000Y-99600000D03*
%TO.N,I2S_SD*%
X129450000Y-95450000D03*
X130675000Y-107275000D03*
%TO.N,3.3V*%
X137600000Y-112275000D03*
X138375000Y-109375000D03*
%TD*%
D14*
%TO.N,GND*%
X168070000Y-111560000D02*
X168070000Y-110220000D01*
X168070000Y-111725978D02*
X168070000Y-111560000D01*
X168070000Y-110220000D02*
X168070000Y-110130000D01*
X166520000Y-109625000D02*
X167475000Y-109625000D01*
X167475000Y-109625000D02*
X168070000Y-110220000D01*
X168070000Y-110130000D02*
X168070000Y-109210000D01*
X168070000Y-109210000D02*
X168070000Y-108830000D01*
X166520000Y-108425000D02*
X167285000Y-108425000D01*
X167285000Y-108425000D02*
X168070000Y-109210000D01*
X166520000Y-107225000D02*
X167495000Y-107225000D01*
X167495000Y-107225000D02*
X168070000Y-107800000D01*
X168070000Y-107800000D02*
X168070000Y-106880000D01*
X168070000Y-106880000D02*
X168070000Y-106610000D01*
X166520000Y-106025000D02*
X167215000Y-106025000D01*
X167215000Y-106025000D02*
X168070000Y-106880000D01*
X168070000Y-106610000D02*
X168070000Y-105740000D01*
X166520000Y-104825000D02*
X167155000Y-104825000D01*
X167155000Y-104825000D02*
X168070000Y-105740000D01*
X168070000Y-105740000D02*
X168070000Y-105250000D01*
X168070000Y-105250000D02*
X168070000Y-104510000D01*
X168070000Y-104510000D02*
X168070000Y-104010000D01*
X166520000Y-103625000D02*
X167185000Y-103625000D01*
X167185000Y-103625000D02*
X168070000Y-104510000D01*
X166520000Y-102425000D02*
X167565000Y-102425000D01*
X167565000Y-102425000D02*
X168070000Y-102930000D01*
X168070000Y-100480000D02*
X168070000Y-99500000D01*
X167395000Y-98825000D02*
X168070000Y-99500000D01*
X168070000Y-99500000D02*
X168070000Y-99240000D01*
X166520000Y-98825000D02*
X167395000Y-98825000D01*
X168070000Y-99240000D02*
X168070000Y-98310000D01*
X168070000Y-98310000D02*
X168070000Y-98080000D01*
X166520000Y-97625000D02*
X167385000Y-97625000D01*
X167385000Y-97625000D02*
X168070000Y-98310000D01*
X168070000Y-97000000D02*
X168070000Y-96890000D01*
X168070000Y-96890000D02*
X168070000Y-95640000D01*
X166520000Y-96425000D02*
X167605000Y-96425000D01*
X167605000Y-96425000D02*
X168070000Y-96890000D01*
X166520000Y-95225000D02*
X167655000Y-95225000D01*
X167655000Y-95225000D02*
X168070000Y-95640000D01*
X168070000Y-94600000D02*
X168070000Y-94370000D01*
X168070000Y-95640000D02*
X168070000Y-94600000D01*
X168070000Y-94600000D02*
X167495000Y-94025000D01*
X167495000Y-94025000D02*
X166520000Y-94025000D01*
X168070000Y-93400000D02*
X168645000Y-92825000D01*
X168645000Y-92825000D02*
X169600000Y-92825000D01*
X168070000Y-94370000D02*
X168070000Y-93400000D01*
X169600000Y-94025000D02*
X168415000Y-94025000D01*
X168415000Y-94025000D02*
X168070000Y-94370000D01*
X169600000Y-95225000D02*
X168485000Y-95225000D01*
X168485000Y-95225000D02*
X168070000Y-95640000D01*
X168070000Y-98080000D02*
X168070000Y-97000000D01*
X169600000Y-96425000D02*
X168645000Y-96425000D01*
X168645000Y-96425000D02*
X168070000Y-97000000D01*
X169600000Y-97625000D02*
X168525000Y-97625000D01*
X168525000Y-97625000D02*
X168070000Y-98080000D01*
X169600000Y-98825000D02*
X168485000Y-98825000D01*
X168485000Y-98825000D02*
X168070000Y-99240000D01*
X168070000Y-101720000D02*
X168070000Y-100480000D01*
X169600000Y-100025000D02*
X168525000Y-100025000D01*
X168525000Y-100025000D02*
X168070000Y-100480000D01*
X168070000Y-102930000D02*
X168070000Y-101720000D01*
X169600000Y-101225000D02*
X168565000Y-101225000D01*
X168565000Y-101225000D02*
X168070000Y-101720000D01*
X168070000Y-104010000D02*
X168070000Y-102930000D01*
X169600000Y-102425000D02*
X168575000Y-102425000D01*
X168575000Y-102425000D02*
X168070000Y-102930000D01*
X169600000Y-103625000D02*
X168455000Y-103625000D01*
X168455000Y-103625000D02*
X168070000Y-104010000D01*
X169600000Y-104825000D02*
X168495000Y-104825000D01*
X168495000Y-104825000D02*
X168070000Y-105250000D01*
X169600000Y-106025000D02*
X168655000Y-106025000D01*
X168655000Y-106025000D02*
X168070000Y-106610000D01*
X168070000Y-108830000D02*
X168070000Y-107800000D01*
X169600000Y-107225000D02*
X168645000Y-107225000D01*
X168645000Y-107225000D02*
X168070000Y-107800000D01*
X168070000Y-108830000D02*
X168475000Y-108425000D01*
X168475000Y-108425000D02*
X169600000Y-108425000D01*
X168070000Y-110130000D02*
X168575000Y-109625000D01*
X168575000Y-109625000D02*
X169600000Y-109625000D01*
X168070000Y-111725978D02*
X168970978Y-110825000D01*
X168970978Y-110825000D02*
X169600000Y-110825000D01*
X166520000Y-110825000D02*
X167169022Y-110825000D01*
X167169022Y-110825000D02*
X168070000Y-111725978D01*
X167495000Y-92825000D02*
X166520000Y-92825000D01*
X168070000Y-93400000D02*
X167495000Y-92825000D01*
X131345000Y-92825000D02*
X130650000Y-93520000D01*
X132600000Y-92825000D02*
X131345000Y-92825000D01*
X137210000Y-93705978D02*
X137210000Y-93950000D01*
X136329022Y-92825000D02*
X137210000Y-93705978D01*
X135680000Y-92825000D02*
X136329022Y-92825000D01*
X137570000Y-101590000D02*
X137570000Y-101600000D01*
X137545000Y-101625000D02*
X137570000Y-101590000D01*
X135680000Y-101625000D02*
X137545000Y-101625000D01*
X130200000Y-98020000D02*
X130210000Y-98030000D01*
X130215000Y-98025000D02*
X130200000Y-98020000D01*
X132600000Y-98025000D02*
X130215000Y-98025000D01*
X129570000Y-110620000D02*
X129570000Y-110610000D01*
X129570000Y-110770000D02*
X129570000Y-110620000D01*
X129600000Y-110800000D02*
X129570000Y-110770000D01*
X134190000Y-111820000D02*
X130620000Y-111820000D01*
X130620000Y-111820000D02*
X129600000Y-110800000D01*
X135680000Y-103225000D02*
X134845000Y-103225000D01*
X134845000Y-103225000D02*
X134190000Y-103880000D01*
X134190000Y-105265978D02*
X134190000Y-103880000D01*
X133535000Y-103225000D02*
X134190000Y-103880000D01*
X134190000Y-103880000D02*
X134190000Y-102850000D01*
X132600000Y-103225000D02*
X133535000Y-103225000D01*
X132600000Y-102025000D02*
X133365000Y-102025000D01*
X134190000Y-102850000D02*
X134190000Y-102350000D01*
X133365000Y-102025000D02*
X134190000Y-102850000D01*
X134190000Y-102350000D02*
X134190000Y-100560000D01*
X135680000Y-101625000D02*
X134915000Y-101625000D01*
X134915000Y-101625000D02*
X134190000Y-102350000D01*
X134190000Y-100560000D02*
X134190000Y-100050000D01*
X133655000Y-100025000D02*
X134190000Y-100560000D01*
X132600000Y-100025000D02*
X133655000Y-100025000D01*
X134190000Y-98670000D02*
X134190000Y-98560000D01*
X134190000Y-100050000D02*
X134190000Y-98670000D01*
X134190000Y-98670000D02*
X133545000Y-98025000D01*
X133545000Y-98025000D02*
X132600000Y-98025000D01*
X135680000Y-99625000D02*
X134615000Y-99625000D01*
X134615000Y-99625000D02*
X134190000Y-100050000D01*
X134190000Y-98560000D02*
X134190000Y-96450000D01*
X135680000Y-97625000D02*
X135125000Y-97625000D01*
X135125000Y-97625000D02*
X134190000Y-98560000D01*
X134205978Y-96450000D02*
X133781467Y-96025489D01*
X133781467Y-96025489D02*
X132600489Y-96025489D01*
X132600489Y-96025489D02*
X132600000Y-96025000D01*
X134205978Y-96450000D02*
X134190000Y-96450000D01*
X134190000Y-96450000D02*
X134190000Y-94720000D01*
X135030978Y-95625000D02*
X134205978Y-96450000D01*
X135680000Y-95625000D02*
X135030978Y-95625000D01*
X134190000Y-94610000D02*
X134190000Y-93600000D01*
X134775000Y-94025000D02*
X135680000Y-94025000D01*
X134190000Y-94720000D02*
X134190000Y-94610000D01*
X134190000Y-94610000D02*
X134775000Y-94025000D01*
X134190000Y-94720000D02*
X133495000Y-94025000D01*
X133495000Y-94025000D02*
X132600000Y-94025000D01*
X134190000Y-93600000D02*
X134965000Y-92825000D01*
X134965000Y-92825000D02*
X135680000Y-92825000D01*
X134190000Y-93600000D02*
X134190000Y-92465978D01*
X132600000Y-92825000D02*
X133415000Y-92825000D01*
X133415000Y-92825000D02*
X134190000Y-93600000D01*
X134190000Y-92465978D02*
X133349022Y-91625000D01*
X133349022Y-91625000D02*
X132600000Y-91625000D01*
X135030978Y-91625000D02*
X135680000Y-91625000D01*
X134190000Y-92465978D02*
X135030978Y-91625000D01*
X132600000Y-104425000D02*
X133349022Y-104425000D01*
X133349022Y-104425000D02*
X134190000Y-105265978D01*
X134190000Y-107000000D02*
X134190000Y-111820000D01*
X135679511Y-106024511D02*
X135680000Y-106025000D01*
X134190000Y-106180000D02*
X134190000Y-107000000D01*
X134190000Y-107000000D02*
X135165489Y-106024511D01*
X135165489Y-106024511D02*
X135679511Y-106024511D01*
X134190000Y-105265978D02*
X134190000Y-106180000D01*
X132600000Y-105625000D02*
X133635000Y-105625000D01*
X133635000Y-105625000D02*
X134190000Y-106180000D01*
X135680000Y-104425000D02*
X135030978Y-104425000D01*
X135030978Y-104425000D02*
X134190000Y-105265978D01*
X137470000Y-106110000D02*
X137470000Y-106120000D01*
X137375000Y-106025000D02*
X137470000Y-106110000D01*
X135680000Y-106025000D02*
X137375000Y-106025000D01*
X134190000Y-111665978D02*
X134190000Y-111820000D01*
X135030978Y-110825000D02*
X134190000Y-111665978D01*
X135680000Y-110825000D02*
X135030978Y-110825000D01*
%TO.N,UART_RX*%
X118625000Y-104100000D02*
X117579511Y-105145489D01*
X117579511Y-105145489D02*
X108684511Y-105145489D01*
X108684511Y-105145489D02*
X107535000Y-106295000D01*
%TO.N,I2S_SCK*%
X120425000Y-105625000D02*
X119755000Y-106295000D01*
X119755000Y-106295000D02*
X110075000Y-106295000D01*
%TO.N,UART_TX*%
X128512500Y-101512500D02*
X128500000Y-101500000D01*
%TO.N,SD_DAT1*%
X132600000Y-104825000D02*
X124900000Y-104825000D01*
X119975000Y-99900000D02*
X115200000Y-99900000D01*
X124900000Y-104825000D02*
X119975000Y-99900000D01*
%TO.N,SD_DAT0*%
X111750000Y-99850000D02*
X108900000Y-99850000D01*
X108900000Y-99850000D02*
X107535000Y-101215000D01*
%TO.N,SD_DAT2*%
X125000000Y-105225000D02*
X123825000Y-106400000D01*
X132600000Y-105225000D02*
X125000000Y-105225000D01*
%TO.N,SD_CLK*%
X132600000Y-102825000D02*
X128350000Y-102825000D01*
X128350000Y-102825000D02*
X126050000Y-100525000D01*
X106225000Y-97475000D02*
X105825000Y-97875000D01*
X126050000Y-100525000D02*
X124650000Y-100525000D01*
X122400000Y-98250000D02*
X111900000Y-98250000D01*
X124650000Y-100525000D02*
X122950000Y-98825000D01*
X122950000Y-98825000D02*
X122950000Y-98800000D01*
X106305000Y-103755000D02*
X107535000Y-103755000D01*
X122950000Y-98800000D02*
X122400000Y-98250000D01*
X111125000Y-97475000D02*
X106225000Y-97475000D01*
X111900000Y-98250000D02*
X111125000Y-97475000D01*
X105825000Y-97875000D02*
X105825000Y-103275000D01*
X105825000Y-103275000D02*
X106305000Y-103755000D01*
%TO.N,SD_DAT0*%
X112450000Y-99150000D02*
X111750000Y-99850000D01*
X121750000Y-99150000D02*
X112450000Y-99150000D01*
X123900000Y-102250000D02*
X123900000Y-101300000D01*
X123900000Y-101300000D02*
X121750000Y-99150000D01*
%TO.N,SD_DAT3*%
X110075000Y-98675000D02*
X121950000Y-98675000D01*
X126900000Y-103625000D02*
X132600000Y-103625000D01*
X121950000Y-98675000D02*
X126900000Y-103625000D01*
%TO.N,SCL_0*%
X135680000Y-107225000D02*
X137375000Y-107225000D01*
X137375000Y-107225000D02*
X140700000Y-103900000D01*
X140700000Y-103900000D02*
X140700000Y-95595978D01*
X140700000Y-95595978D02*
X136329511Y-91225489D01*
X127190006Y-94975000D02*
X108695000Y-94975000D01*
X136329511Y-91225489D02*
X130939517Y-91225489D01*
X130939517Y-91225489D02*
X127190006Y-94975000D01*
X108695000Y-94975000D02*
X107535000Y-96135000D01*
%TO.N,SDA_0*%
X110075000Y-93595000D02*
X128005000Y-93595000D01*
X128005000Y-93595000D02*
X131025000Y-90575000D01*
X142325000Y-95950000D02*
X142325000Y-107425000D01*
X131025000Y-90575000D02*
X136950000Y-90575000D01*
X136950000Y-90575000D02*
X142325000Y-95950000D01*
X142325000Y-107425000D02*
X142125000Y-107625000D01*
X142125000Y-107625000D02*
X138550000Y-107625000D01*
%TO.N,I2S_WS*%
X138150000Y-99600000D02*
X138150000Y-99625000D01*
X138550000Y-99225000D02*
X138150000Y-99600000D01*
X138550000Y-97325000D02*
X138550000Y-99225000D01*
%TO.N,I2S_SD*%
X130264511Y-107685489D02*
X130675000Y-107275000D01*
X108684511Y-107685489D02*
X130264511Y-107685489D01*
X107535000Y-108835000D02*
X108684511Y-107685489D01*
%TO.N,5V*%
X110075000Y-111375000D02*
X112625000Y-108825000D01*
X112625000Y-108825000D02*
X132600000Y-108825000D01*
%TO.N,3.3V*%
X137600000Y-112275000D02*
X137350489Y-112524511D01*
X137350489Y-112524511D02*
X108684511Y-112524511D01*
X108684511Y-112524511D02*
X107535000Y-111375000D01*
X138375000Y-109375000D02*
X138400000Y-109350000D01*
%TO.N,1.8V*%
X138025000Y-111200000D02*
X137300000Y-110475000D01*
X135775489Y-84825489D02*
X142850000Y-91900000D01*
X137300000Y-110195978D02*
X136329022Y-109225000D01*
X142850000Y-110250000D02*
X141900000Y-111200000D01*
X108925489Y-84825489D02*
X135775489Y-84825489D01*
X107535000Y-83435000D02*
X108925489Y-84825489D01*
X141900000Y-111200000D02*
X138025000Y-111200000D01*
X142850000Y-91900000D02*
X142850000Y-110250000D01*
X137300000Y-110475000D02*
X137300000Y-110195978D01*
X136329022Y-109225000D02*
X135680000Y-109225000D01*
%TO.N,SDA_0*%
X138550000Y-107625000D02*
X138600000Y-107675000D01*
X135680000Y-107625000D02*
X138550000Y-107625000D01*
%TO.N,SD_DAT0*%
X125675000Y-104025000D02*
X123900000Y-102250000D01*
X132600000Y-104025000D02*
X125675000Y-104025000D01*
%TO.N,UART_TX*%
X129425000Y-102425000D02*
X128512500Y-101512500D01*
X132600000Y-102425000D02*
X129425000Y-102425000D01*
%TO.N,UART_RX*%
X130050000Y-101625000D02*
X128100000Y-99675000D01*
X132600000Y-101625000D02*
X130050000Y-101625000D01*
%TO.N,I2S_SCK*%
X131350000Y-101225000D02*
X130300000Y-100175000D01*
X132600000Y-101225000D02*
X131350000Y-101225000D01*
%TO.N,I2S_SD*%
X130825000Y-96825000D02*
X129450000Y-95450000D01*
X132600000Y-96825000D02*
X130825000Y-96825000D01*
%TO.N,I2S_WS*%
X137650000Y-96425000D02*
X138550000Y-97325000D01*
X135680000Y-96425000D02*
X137650000Y-96425000D01*
%TO.N,3.3V*%
X137475000Y-108425000D02*
X138375000Y-109375000D01*
X135680000Y-108425000D02*
X137475000Y-108425000D01*
X135680000Y-108025000D02*
X135680000Y-108425000D01*
%TO.N,1.8V*%
X135680000Y-108825000D02*
X135680000Y-109225000D01*
%TO.N,5V*%
X132600000Y-106825000D02*
X132600000Y-107225000D01*
X132600000Y-107225000D02*
X132600000Y-107625000D01*
X132600000Y-108025000D02*
X132600000Y-108150000D01*
X132600000Y-108150000D02*
X132600000Y-108425000D01*
X132600000Y-107625000D02*
X132600000Y-108150000D01*
X132600000Y-108825000D02*
X132600000Y-108425000D01*
%TD*%
%TA.AperFunction,Conductor*%
%TO.N,GND*%
G36*
X167970057Y-71509500D02*
G01*
X167984858Y-71511805D01*
X167984861Y-71511805D01*
X167993730Y-71513186D01*
X168002631Y-71512022D01*
X168002635Y-71512022D01*
X168012411Y-71510743D01*
X168035343Y-71509852D01*
X168306149Y-71524044D01*
X168319265Y-71525422D01*
X168615550Y-71572349D01*
X168628450Y-71575091D01*
X168918205Y-71652731D01*
X168930742Y-71656805D01*
X169178762Y-71752011D01*
X169210787Y-71764304D01*
X169222835Y-71769668D01*
X169490117Y-71905855D01*
X169501538Y-71912449D01*
X169753121Y-72075828D01*
X169763791Y-72083581D01*
X169996908Y-72272355D01*
X170006709Y-72281180D01*
X170218820Y-72493291D01*
X170227645Y-72503092D01*
X170416419Y-72736209D01*
X170424172Y-72746879D01*
X170587551Y-72998462D01*
X170594145Y-73009883D01*
X170730332Y-73277165D01*
X170735696Y-73289213D01*
X170832395Y-73541121D01*
X170843193Y-73569251D01*
X170847269Y-73581794D01*
X170861176Y-73633697D01*
X170924909Y-73871550D01*
X170927651Y-73884450D01*
X170974578Y-74180735D01*
X170975956Y-74193851D01*
X170980981Y-74289729D01*
X170989764Y-74457330D01*
X170988436Y-74483312D01*
X170988195Y-74484856D01*
X170988195Y-74484860D01*
X170986814Y-74493730D01*
X170987978Y-74502632D01*
X170987978Y-74502635D01*
X170990936Y-74525251D01*
X170992000Y-74541589D01*
X170992000Y-122950672D01*
X170990500Y-122970056D01*
X170986814Y-122993730D01*
X170987978Y-123002631D01*
X170987978Y-123002635D01*
X170989257Y-123012411D01*
X170990148Y-123035343D01*
X170980399Y-123221378D01*
X170975956Y-123306148D01*
X170974578Y-123319265D01*
X170927651Y-123615550D01*
X170924909Y-123628450D01*
X170847269Y-123918205D01*
X170843195Y-123930742D01*
X170778986Y-124098013D01*
X170735696Y-124210787D01*
X170730332Y-124222835D01*
X170594145Y-124490117D01*
X170587551Y-124501538D01*
X170424172Y-124753121D01*
X170416419Y-124763791D01*
X170227645Y-124996908D01*
X170218820Y-125006709D01*
X170006709Y-125218820D01*
X169996908Y-125227645D01*
X169809166Y-125379676D01*
X169743640Y-125407001D01*
X169673742Y-125394561D01*
X169621665Y-125346307D01*
X169603943Y-125277558D01*
X169626203Y-125210141D01*
X169645155Y-125188488D01*
X169776675Y-125069023D01*
X169779325Y-125066616D01*
X170007753Y-124806143D01*
X170205228Y-124521485D01*
X170369208Y-124216303D01*
X170497587Y-123894519D01*
X170588713Y-123560271D01*
X170625106Y-123323821D01*
X170640874Y-123221378D01*
X170640874Y-123221374D01*
X170641416Y-123217855D01*
X170648587Y-123035343D01*
X170654878Y-122875244D01*
X170654878Y-122875239D01*
X170655018Y-122871674D01*
X170629343Y-122526179D01*
X170564722Y-122185812D01*
X170461986Y-121854947D01*
X170366097Y-121637023D01*
X170323899Y-121541121D01*
X170323897Y-121541116D01*
X170322455Y-121537840D01*
X170147924Y-121238566D01*
X169940636Y-120960973D01*
X169938192Y-120958375D01*
X169938187Y-120958369D01*
X169776107Y-120786074D01*
X169703256Y-120708631D01*
X169438836Y-120484783D01*
X169237311Y-120350128D01*
X169153752Y-120294296D01*
X169153750Y-120294295D01*
X169150775Y-120292307D01*
X169147591Y-120290667D01*
X168845960Y-120135316D01*
X168845955Y-120135314D01*
X168842777Y-120133677D01*
X168839436Y-120132411D01*
X168839431Y-120132409D01*
X168522145Y-120012201D01*
X168522146Y-120012201D01*
X168518801Y-120010934D01*
X168515337Y-120010054D01*
X168515333Y-120010053D01*
X168186481Y-119926535D01*
X168186473Y-119926533D01*
X168183014Y-119925655D01*
X168014221Y-119902683D01*
X167842723Y-119879343D01*
X167842716Y-119879342D01*
X167839730Y-119878936D01*
X167726826Y-119874500D01*
X167512246Y-119874500D01*
X167373025Y-119882406D01*
X167257678Y-119888955D01*
X167257671Y-119888956D01*
X167254110Y-119889158D01*
X166912666Y-119947829D01*
X166909234Y-119948829D01*
X166909231Y-119948830D01*
X166583503Y-120043771D01*
X166583500Y-120043772D01*
X166580059Y-120044775D01*
X166576759Y-120046159D01*
X166576750Y-120046162D01*
X166375062Y-120130737D01*
X166260564Y-120178750D01*
X165958290Y-120348032D01*
X165677122Y-120550444D01*
X165674471Y-120552852D01*
X165674466Y-120552856D01*
X165505515Y-120706321D01*
X165420675Y-120783384D01*
X165192247Y-121043857D01*
X164994772Y-121328515D01*
X164830792Y-121633697D01*
X164702413Y-121955481D01*
X164611287Y-122289729D01*
X164610745Y-122293251D01*
X164574346Y-122529741D01*
X164558584Y-122632145D01*
X164558444Y-122635710D01*
X164545123Y-122974749D01*
X164544982Y-122978326D01*
X164549219Y-123035343D01*
X164569344Y-123306148D01*
X164570657Y-123323821D01*
X164635278Y-123664188D01*
X164738014Y-123995053D01*
X164739455Y-123998327D01*
X164739455Y-123998328D01*
X164835367Y-124216303D01*
X164877545Y-124312160D01*
X165052076Y-124611434D01*
X165259364Y-124889027D01*
X165261808Y-124891625D01*
X165261813Y-124891631D01*
X165360848Y-124996908D01*
X165496744Y-125141369D01*
X165499473Y-125143679D01*
X165738827Y-125346307D01*
X165761164Y-125365217D01*
X165764128Y-125367197D01*
X165764130Y-125367199D01*
X165968450Y-125503721D01*
X166049225Y-125557693D01*
X166052407Y-125559332D01*
X166052409Y-125559333D01*
X166354040Y-125714684D01*
X166354045Y-125714686D01*
X166357223Y-125716323D01*
X166360564Y-125717589D01*
X166360569Y-125717591D01*
X166441290Y-125748173D01*
X166497905Y-125791012D01*
X166522373Y-125857659D01*
X166506924Y-125926955D01*
X166456463Y-125976897D01*
X166396649Y-125992000D01*
X135800833Y-125992000D01*
X135732712Y-125971998D01*
X135686219Y-125918342D01*
X135676115Y-125848068D01*
X135705609Y-125783488D01*
X135752106Y-125749804D01*
X135939436Y-125671250D01*
X136241710Y-125501968D01*
X136522878Y-125299556D01*
X136525529Y-125297148D01*
X136525534Y-125297144D01*
X136776675Y-125069023D01*
X136779325Y-125066616D01*
X137007753Y-124806143D01*
X137205228Y-124521485D01*
X137369208Y-124216303D01*
X137497587Y-123894519D01*
X137588713Y-123560271D01*
X137625106Y-123323821D01*
X137640874Y-123221378D01*
X137640874Y-123221374D01*
X137641416Y-123217855D01*
X137648587Y-123035343D01*
X137654878Y-122875244D01*
X137654878Y-122875239D01*
X137655018Y-122871674D01*
X137629343Y-122526179D01*
X137564722Y-122185812D01*
X137461986Y-121854947D01*
X137366097Y-121637023D01*
X137323899Y-121541121D01*
X137323897Y-121541116D01*
X137322455Y-121537840D01*
X137147924Y-121238566D01*
X136940636Y-120960973D01*
X136938192Y-120958375D01*
X136938187Y-120958369D01*
X136776107Y-120786074D01*
X136703256Y-120708631D01*
X136438836Y-120484783D01*
X136237311Y-120350128D01*
X136153752Y-120294296D01*
X136153750Y-120294295D01*
X136150775Y-120292307D01*
X136147591Y-120290667D01*
X135845960Y-120135316D01*
X135845955Y-120135314D01*
X135842777Y-120133677D01*
X135839436Y-120132411D01*
X135839431Y-120132409D01*
X135522145Y-120012201D01*
X135522146Y-120012201D01*
X135518801Y-120010934D01*
X135515337Y-120010054D01*
X135515333Y-120010053D01*
X135186481Y-119926535D01*
X135186473Y-119926533D01*
X135183014Y-119925655D01*
X135014221Y-119902683D01*
X134842723Y-119879343D01*
X134842716Y-119879342D01*
X134839730Y-119878936D01*
X134726826Y-119874500D01*
X134512246Y-119874500D01*
X134373025Y-119882406D01*
X134257678Y-119888955D01*
X134257671Y-119888956D01*
X134254110Y-119889158D01*
X133912666Y-119947829D01*
X133909234Y-119948829D01*
X133909231Y-119948830D01*
X133583503Y-120043771D01*
X133583500Y-120043772D01*
X133580059Y-120044775D01*
X133576759Y-120046159D01*
X133576750Y-120046162D01*
X133375062Y-120130737D01*
X133260564Y-120178750D01*
X132958290Y-120348032D01*
X132677122Y-120550444D01*
X132674471Y-120552852D01*
X132674466Y-120552856D01*
X132505515Y-120706321D01*
X132420675Y-120783384D01*
X132192247Y-121043857D01*
X131994772Y-121328515D01*
X131830792Y-121633697D01*
X131702413Y-121955481D01*
X131611287Y-122289729D01*
X131610745Y-122293251D01*
X131574346Y-122529741D01*
X131558584Y-122632145D01*
X131558444Y-122635710D01*
X131545123Y-122974749D01*
X131544982Y-122978326D01*
X131549219Y-123035343D01*
X131569344Y-123306148D01*
X131570657Y-123323821D01*
X131635278Y-123664188D01*
X131738014Y-123995053D01*
X131739455Y-123998327D01*
X131739455Y-123998328D01*
X131835367Y-124216303D01*
X131877545Y-124312160D01*
X132052076Y-124611434D01*
X132259364Y-124889027D01*
X132261808Y-124891625D01*
X132261813Y-124891631D01*
X132360848Y-124996908D01*
X132496744Y-125141369D01*
X132499473Y-125143679D01*
X132738827Y-125346307D01*
X132761164Y-125365217D01*
X132764128Y-125367197D01*
X132764130Y-125367199D01*
X132968450Y-125503721D01*
X133049225Y-125557693D01*
X133052407Y-125559332D01*
X133052409Y-125559333D01*
X133354040Y-125714684D01*
X133354045Y-125714686D01*
X133357223Y-125716323D01*
X133360564Y-125717589D01*
X133360569Y-125717591D01*
X133441290Y-125748173D01*
X133497905Y-125791012D01*
X133522373Y-125857659D01*
X133506924Y-125926955D01*
X133456463Y-125976897D01*
X133396649Y-125992000D01*
X107049328Y-125992000D01*
X107029943Y-125990500D01*
X107015142Y-125988195D01*
X107015139Y-125988195D01*
X107006270Y-125986814D01*
X106997369Y-125987978D01*
X106997365Y-125987978D01*
X106987589Y-125989257D01*
X106964657Y-125990148D01*
X106693851Y-125975956D01*
X106680735Y-125974578D01*
X106594010Y-125960842D01*
X106384450Y-125927651D01*
X106371550Y-125924909D01*
X106081795Y-125847269D01*
X106069258Y-125843195D01*
X105789214Y-125735696D01*
X105777165Y-125730332D01*
X105509883Y-125594145D01*
X105498462Y-125587551D01*
X105246879Y-125424172D01*
X105236209Y-125416419D01*
X105003092Y-125227645D01*
X104993291Y-125218820D01*
X104781180Y-125006709D01*
X104772355Y-124996908D01*
X104583581Y-124763791D01*
X104575828Y-124753121D01*
X104412449Y-124501538D01*
X104405855Y-124490117D01*
X104269668Y-124222835D01*
X104264304Y-124210787D01*
X104221014Y-124098013D01*
X104156805Y-123930742D01*
X104152731Y-123918205D01*
X104075091Y-123628450D01*
X104072349Y-123615550D01*
X104025422Y-123319265D01*
X104024044Y-123306148D01*
X104010236Y-123042666D01*
X104011564Y-123016688D01*
X104011805Y-123015144D01*
X104011805Y-123015140D01*
X104013186Y-123006270D01*
X104011547Y-122993730D01*
X104009064Y-122974749D01*
X104008000Y-122958411D01*
X104008000Y-103275000D01*
X105211250Y-103275000D01*
X105216500Y-103314880D01*
X105216500Y-103314885D01*
X105224169Y-103373134D01*
X105232162Y-103433851D01*
X105293476Y-103581876D01*
X105298503Y-103588427D01*
X105298504Y-103588429D01*
X105366520Y-103677069D01*
X105366526Y-103677075D01*
X105391013Y-103708987D01*
X105397568Y-103714017D01*
X105416379Y-103728452D01*
X105428770Y-103739319D01*
X105840685Y-104151234D01*
X105851552Y-104163625D01*
X105871013Y-104188987D01*
X105877563Y-104194013D01*
X105902921Y-104213471D01*
X105902937Y-104213485D01*
X105952305Y-104251366D01*
X105998124Y-104286524D01*
X106035668Y-104302075D01*
X106138520Y-104344678D01*
X106138523Y-104344679D01*
X106146150Y-104347838D01*
X106259269Y-104362730D01*
X106324195Y-104391452D01*
X106350255Y-104421818D01*
X106432287Y-104555683D01*
X106432291Y-104555688D01*
X106434987Y-104560088D01*
X106581250Y-104728938D01*
X106753126Y-104871632D01*
X106823595Y-104912811D01*
X106826445Y-104914476D01*
X106875169Y-104966114D01*
X106888240Y-105035897D01*
X106861509Y-105101669D01*
X106821055Y-105135027D01*
X106808607Y-105141507D01*
X106804474Y-105144610D01*
X106804471Y-105144612D01*
X106634100Y-105272530D01*
X106629965Y-105275635D01*
X106626393Y-105279373D01*
X106498012Y-105413716D01*
X106475629Y-105437138D01*
X106349743Y-105621680D01*
X106323463Y-105678295D01*
X106260041Y-105814928D01*
X106255688Y-105824305D01*
X106195989Y-106039570D01*
X106172251Y-106261695D01*
X106172548Y-106266848D01*
X106172548Y-106266851D01*
X106174906Y-106307749D01*
X106185110Y-106484715D01*
X106186247Y-106489761D01*
X106186248Y-106489767D01*
X106204266Y-106569716D01*
X106234222Y-106702639D01*
X106284526Y-106826524D01*
X106315783Y-106903500D01*
X106318266Y-106909616D01*
X106332631Y-106933057D01*
X106420757Y-107076866D01*
X106434987Y-107100088D01*
X106581250Y-107268938D01*
X106753126Y-107411632D01*
X106823595Y-107452811D01*
X106826445Y-107454476D01*
X106875169Y-107506114D01*
X106888240Y-107575897D01*
X106861509Y-107641669D01*
X106821055Y-107675027D01*
X106808607Y-107681507D01*
X106804474Y-107684610D01*
X106804471Y-107684612D01*
X106634100Y-107812530D01*
X106629965Y-107815635D01*
X106574699Y-107873467D01*
X106494158Y-107957749D01*
X106475629Y-107977138D01*
X106472715Y-107981410D01*
X106472714Y-107981411D01*
X106414931Y-108066118D01*
X106349743Y-108161680D01*
X106312957Y-108240929D01*
X106288016Y-108294661D01*
X106255688Y-108364305D01*
X106195989Y-108579570D01*
X106172251Y-108801695D01*
X106172548Y-108806848D01*
X106172548Y-108806851D01*
X106174677Y-108843774D01*
X106185110Y-109024715D01*
X106186247Y-109029761D01*
X106186248Y-109029767D01*
X106207275Y-109123069D01*
X106234222Y-109242639D01*
X106272461Y-109336811D01*
X106314739Y-109440929D01*
X106318266Y-109449616D01*
X106434987Y-109640088D01*
X106581250Y-109808938D01*
X106753126Y-109951632D01*
X106823595Y-109992811D01*
X106826445Y-109994476D01*
X106875169Y-110046114D01*
X106888240Y-110115897D01*
X106861509Y-110181669D01*
X106821055Y-110215027D01*
X106808607Y-110221507D01*
X106804474Y-110224610D01*
X106804471Y-110224612D01*
X106634100Y-110352530D01*
X106629965Y-110355635D01*
X106590525Y-110396907D01*
X106536280Y-110453671D01*
X106475629Y-110517138D01*
X106472715Y-110521410D01*
X106472714Y-110521411D01*
X106444051Y-110563429D01*
X106349743Y-110701680D01*
X106343878Y-110714315D01*
X106268328Y-110877075D01*
X106255688Y-110904305D01*
X106195989Y-111119570D01*
X106172251Y-111341695D01*
X106172548Y-111346848D01*
X106172548Y-111346851D01*
X106180294Y-111481194D01*
X106185110Y-111564715D01*
X106186247Y-111569761D01*
X106186248Y-111569767D01*
X106199244Y-111627432D01*
X106234222Y-111782639D01*
X106318266Y-111989616D01*
X106434987Y-112180088D01*
X106581250Y-112348938D01*
X106753126Y-112491632D01*
X106946000Y-112604338D01*
X107154692Y-112684030D01*
X107159760Y-112685061D01*
X107159763Y-112685062D01*
X107267003Y-112706880D01*
X107373597Y-112728567D01*
X107378772Y-112728757D01*
X107378774Y-112728757D01*
X107591673Y-112736564D01*
X107591677Y-112736564D01*
X107596837Y-112736753D01*
X107601957Y-112736097D01*
X107601959Y-112736097D01*
X107671153Y-112727233D01*
X107818416Y-112708368D01*
X107823370Y-112706882D01*
X107823378Y-112706880D01*
X107892023Y-112686285D01*
X107963018Y-112685867D01*
X108017326Y-112717875D01*
X108220196Y-112920745D01*
X108231063Y-112933136D01*
X108250524Y-112958498D01*
X108282436Y-112982985D01*
X108282439Y-112982988D01*
X108377635Y-113056035D01*
X108525660Y-113117349D01*
X108533847Y-113118427D01*
X108533848Y-113118427D01*
X108545053Y-113119902D01*
X108576249Y-113124009D01*
X108644626Y-113133011D01*
X108644629Y-113133011D01*
X108644637Y-113133012D01*
X108676322Y-113137183D01*
X108684511Y-113138261D01*
X108716204Y-113134089D01*
X108732647Y-113133011D01*
X137266802Y-113133011D01*
X137305739Y-113139178D01*
X137311682Y-113141109D01*
X137317712Y-113143794D01*
X137324164Y-113145166D01*
X137324169Y-113145167D01*
X137498056Y-113182128D01*
X137498061Y-113182128D01*
X137504513Y-113183500D01*
X137695487Y-113183500D01*
X137701939Y-113182128D01*
X137701944Y-113182128D01*
X137788887Y-113163647D01*
X137882288Y-113143794D01*
X137892656Y-113139178D01*
X138050722Y-113068803D01*
X138050724Y-113068802D01*
X138056752Y-113066118D01*
X138077551Y-113051007D01*
X138171174Y-112982985D01*
X138211253Y-112953866D01*
X138339040Y-112811944D01*
X138434527Y-112646556D01*
X138493542Y-112464928D01*
X138513504Y-112275000D01*
X138503939Y-112183990D01*
X138494232Y-112091635D01*
X138494232Y-112091633D01*
X138493542Y-112085072D01*
X138457269Y-111973436D01*
X138455241Y-111902469D01*
X138491904Y-111841671D01*
X138555616Y-111810345D01*
X138577102Y-111808500D01*
X141851864Y-111808500D01*
X141868307Y-111809578D01*
X141900000Y-111813750D01*
X141908189Y-111812672D01*
X141939874Y-111808501D01*
X141939884Y-111808500D01*
X141939885Y-111808500D01*
X142039457Y-111795391D01*
X142050664Y-111793916D01*
X142050666Y-111793915D01*
X142058851Y-111792838D01*
X142206876Y-111731524D01*
X142244825Y-111702405D01*
X142302072Y-111658477D01*
X142302075Y-111658474D01*
X142327434Y-111639015D01*
X142333987Y-111633987D01*
X142339017Y-111627432D01*
X142353452Y-111608621D01*
X142364319Y-111596230D01*
X142587415Y-111373134D01*
X165661500Y-111373134D01*
X165668255Y-111435316D01*
X165719385Y-111571705D01*
X165806739Y-111688261D01*
X165923295Y-111775615D01*
X166059684Y-111826745D01*
X166121866Y-111833500D01*
X166918134Y-111833500D01*
X166980316Y-111826745D01*
X167116705Y-111775615D01*
X167233261Y-111688261D01*
X167320615Y-111571705D01*
X167371745Y-111435316D01*
X167378500Y-111373134D01*
X168741500Y-111373134D01*
X168748255Y-111435316D01*
X168799385Y-111571705D01*
X168886739Y-111688261D01*
X169003295Y-111775615D01*
X169139684Y-111826745D01*
X169201866Y-111833500D01*
X169998134Y-111833500D01*
X170060316Y-111826745D01*
X170196705Y-111775615D01*
X170313261Y-111688261D01*
X170400615Y-111571705D01*
X170451745Y-111435316D01*
X170458500Y-111373134D01*
X170458500Y-111076866D01*
X170454091Y-111036280D01*
X170454091Y-111009065D01*
X170457631Y-110976481D01*
X170458000Y-110969673D01*
X170457999Y-110680330D01*
X170457630Y-110673509D01*
X170454091Y-110640929D01*
X170454091Y-110613720D01*
X170458500Y-110573134D01*
X170458500Y-110276866D01*
X170454344Y-110238606D01*
X170454344Y-110211393D01*
X170458131Y-110176533D01*
X170458131Y-110176529D01*
X170458500Y-110173134D01*
X170458500Y-109876866D01*
X170454091Y-109836280D01*
X170454091Y-109809065D01*
X170457631Y-109776481D01*
X170458000Y-109769673D01*
X170457999Y-109480330D01*
X170457630Y-109473509D01*
X170454091Y-109440929D01*
X170454091Y-109413720D01*
X170458500Y-109373134D01*
X170458500Y-109076866D01*
X170457646Y-109068998D01*
X170454344Y-109038607D01*
X170454344Y-109011393D01*
X170458131Y-108976533D01*
X170458131Y-108976529D01*
X170458500Y-108973134D01*
X170458500Y-108676866D01*
X170454091Y-108636280D01*
X170454091Y-108609065D01*
X170457631Y-108576481D01*
X170458000Y-108569673D01*
X170457999Y-108280330D01*
X170457630Y-108273509D01*
X170454091Y-108240929D01*
X170454091Y-108213720D01*
X170458500Y-108173134D01*
X170458500Y-107876866D01*
X170454344Y-107838606D01*
X170454344Y-107811393D01*
X170458131Y-107776533D01*
X170458131Y-107776529D01*
X170458500Y-107773134D01*
X170458500Y-107476866D01*
X170454091Y-107436280D01*
X170454091Y-107409065D01*
X170457631Y-107376481D01*
X170458000Y-107369673D01*
X170457999Y-107080330D01*
X170457630Y-107073509D01*
X170454091Y-107040929D01*
X170454091Y-107013720D01*
X170458500Y-106973134D01*
X170458500Y-106676866D01*
X170454344Y-106638606D01*
X170454344Y-106611393D01*
X170458131Y-106576533D01*
X170458131Y-106576529D01*
X170458500Y-106573134D01*
X170458500Y-106276866D01*
X170454091Y-106236280D01*
X170454091Y-106209065D01*
X170457631Y-106176481D01*
X170458000Y-106169673D01*
X170457999Y-105880330D01*
X170457630Y-105873509D01*
X170454091Y-105840929D01*
X170454091Y-105813720D01*
X170458500Y-105773134D01*
X170458500Y-105476866D01*
X170454344Y-105438606D01*
X170454344Y-105411393D01*
X170458131Y-105376533D01*
X170458131Y-105376528D01*
X170458500Y-105373134D01*
X170458500Y-105076866D01*
X170454091Y-105036280D01*
X170454091Y-105009065D01*
X170457631Y-104976481D01*
X170458000Y-104969673D01*
X170457999Y-104680330D01*
X170457630Y-104673509D01*
X170454091Y-104640929D01*
X170454091Y-104613720D01*
X170458500Y-104573134D01*
X170458500Y-104276866D01*
X170454344Y-104238606D01*
X170454344Y-104211393D01*
X170458131Y-104176533D01*
X170458131Y-104176528D01*
X170458500Y-104173134D01*
X170458500Y-103876866D01*
X170454091Y-103836280D01*
X170454091Y-103809065D01*
X170457631Y-103776481D01*
X170458000Y-103769673D01*
X170457999Y-103480330D01*
X170457630Y-103473509D01*
X170454091Y-103440929D01*
X170454091Y-103413720D01*
X170458500Y-103373134D01*
X170458500Y-103076866D01*
X170454344Y-103038606D01*
X170454344Y-103011393D01*
X170458131Y-102976533D01*
X170458131Y-102976528D01*
X170458500Y-102973134D01*
X170458500Y-102676866D01*
X170454091Y-102636280D01*
X170454091Y-102609065D01*
X170457631Y-102576481D01*
X170458000Y-102569673D01*
X170457999Y-102280330D01*
X170457630Y-102273509D01*
X170454091Y-102240929D01*
X170454091Y-102213720D01*
X170458500Y-102173134D01*
X170458500Y-101876866D01*
X170454344Y-101838606D01*
X170454344Y-101811393D01*
X170458131Y-101776533D01*
X170458131Y-101776528D01*
X170458500Y-101773134D01*
X170458500Y-101476866D01*
X170454091Y-101436280D01*
X170454091Y-101409065D01*
X170457631Y-101376481D01*
X170458000Y-101369673D01*
X170457999Y-101080330D01*
X170457630Y-101073509D01*
X170454091Y-101040929D01*
X170454091Y-101013720D01*
X170458500Y-100973134D01*
X170458500Y-100676866D01*
X170454344Y-100638606D01*
X170454344Y-100611393D01*
X170458131Y-100576533D01*
X170458131Y-100576529D01*
X170458500Y-100573134D01*
X170458500Y-100276866D01*
X170454091Y-100236280D01*
X170454091Y-100209065D01*
X170457631Y-100176481D01*
X170458000Y-100169673D01*
X170457999Y-99880330D01*
X170457630Y-99873509D01*
X170454091Y-99840929D01*
X170454091Y-99813720D01*
X170458500Y-99773134D01*
X170458500Y-99476866D01*
X170454344Y-99438606D01*
X170454344Y-99411393D01*
X170458131Y-99376533D01*
X170458131Y-99376528D01*
X170458500Y-99373134D01*
X170458500Y-99076866D01*
X170454091Y-99036280D01*
X170454091Y-99009065D01*
X170457631Y-98976481D01*
X170458000Y-98969673D01*
X170457999Y-98680330D01*
X170457630Y-98673509D01*
X170454091Y-98640929D01*
X170454091Y-98613720D01*
X170458500Y-98573134D01*
X170458500Y-98276866D01*
X170454344Y-98238606D01*
X170454344Y-98211393D01*
X170458131Y-98176533D01*
X170458131Y-98176529D01*
X170458500Y-98173134D01*
X170458500Y-97876866D01*
X170454091Y-97836280D01*
X170454091Y-97809065D01*
X170457631Y-97776481D01*
X170458000Y-97769673D01*
X170457999Y-97480330D01*
X170457630Y-97473509D01*
X170454091Y-97440929D01*
X170454091Y-97413720D01*
X170458500Y-97373134D01*
X170458500Y-97076866D01*
X170457361Y-97066375D01*
X170454344Y-97038607D01*
X170454344Y-97011393D01*
X170458131Y-96976533D01*
X170458131Y-96976529D01*
X170458500Y-96973134D01*
X170458500Y-96676866D01*
X170454091Y-96636280D01*
X170454091Y-96609065D01*
X170457631Y-96576481D01*
X170458000Y-96569673D01*
X170457999Y-96280330D01*
X170457630Y-96273509D01*
X170454091Y-96240929D01*
X170454091Y-96213720D01*
X170458500Y-96173134D01*
X170458500Y-95876866D01*
X170454344Y-95838606D01*
X170454344Y-95811393D01*
X170454374Y-95811122D01*
X170458500Y-95773134D01*
X170458500Y-95476866D01*
X170454091Y-95436280D01*
X170454091Y-95409065D01*
X170457631Y-95376481D01*
X170458000Y-95369673D01*
X170457999Y-95080330D01*
X170457630Y-95073509D01*
X170454091Y-95040929D01*
X170454091Y-95013720D01*
X170458500Y-94973134D01*
X170458500Y-94676866D01*
X170456547Y-94658882D01*
X170454344Y-94638607D01*
X170454344Y-94611393D01*
X170458131Y-94576533D01*
X170458131Y-94576529D01*
X170458500Y-94573134D01*
X170458500Y-94276866D01*
X170454091Y-94236280D01*
X170454091Y-94209065D01*
X170457631Y-94176481D01*
X170458000Y-94169673D01*
X170457999Y-93880330D01*
X170457630Y-93873509D01*
X170454091Y-93840929D01*
X170454091Y-93813720D01*
X170458500Y-93773134D01*
X170458500Y-93476866D01*
X170454344Y-93438606D01*
X170454344Y-93411393D01*
X170458131Y-93376533D01*
X170458131Y-93376529D01*
X170458500Y-93373134D01*
X170458500Y-93076866D01*
X170454091Y-93036280D01*
X170454091Y-93009065D01*
X170457631Y-92976481D01*
X170458000Y-92969673D01*
X170457999Y-92680330D01*
X170457630Y-92673509D01*
X170454091Y-92640929D01*
X170454091Y-92613720D01*
X170458500Y-92573134D01*
X170458500Y-92276866D01*
X170454344Y-92238606D01*
X170454344Y-92211393D01*
X170458131Y-92176533D01*
X170458131Y-92176529D01*
X170458500Y-92173134D01*
X170458500Y-91876866D01*
X170456681Y-91860115D01*
X170454344Y-91838607D01*
X170454344Y-91811393D01*
X170458131Y-91776533D01*
X170458131Y-91776529D01*
X170458500Y-91773134D01*
X170458500Y-91476866D01*
X170451745Y-91414684D01*
X170400615Y-91278295D01*
X170313261Y-91161739D01*
X170196705Y-91074385D01*
X170060316Y-91023255D01*
X169998134Y-91016500D01*
X169201866Y-91016500D01*
X169139684Y-91023255D01*
X169003295Y-91074385D01*
X168886739Y-91161739D01*
X168799385Y-91278295D01*
X168748255Y-91414684D01*
X168741500Y-91476866D01*
X168741500Y-91773134D01*
X168741869Y-91776529D01*
X168741869Y-91776533D01*
X168745656Y-91811393D01*
X168745656Y-91838607D01*
X168743320Y-91860115D01*
X168741500Y-91876866D01*
X168741500Y-92173134D01*
X168741869Y-92176529D01*
X168741869Y-92176533D01*
X168745656Y-92211393D01*
X168745656Y-92238606D01*
X168741500Y-92276866D01*
X168741500Y-92573134D01*
X168745909Y-92613720D01*
X168745909Y-92640933D01*
X168742369Y-92673517D01*
X168742000Y-92680327D01*
X168742001Y-92969670D01*
X168742370Y-92976488D01*
X168745909Y-93009067D01*
X168745909Y-93036280D01*
X168741500Y-93076866D01*
X168741500Y-93373134D01*
X168741869Y-93376529D01*
X168741869Y-93376533D01*
X168745656Y-93411393D01*
X168745656Y-93438606D01*
X168741500Y-93476866D01*
X168741500Y-93773134D01*
X168745909Y-93813720D01*
X168745909Y-93840933D01*
X168742369Y-93873517D01*
X168742000Y-93880327D01*
X168742001Y-94169670D01*
X168742370Y-94176488D01*
X168745909Y-94209067D01*
X168745909Y-94236280D01*
X168741500Y-94276866D01*
X168741500Y-94573134D01*
X168741869Y-94576529D01*
X168741869Y-94576533D01*
X168745656Y-94611393D01*
X168745656Y-94638607D01*
X168743454Y-94658882D01*
X168741500Y-94676866D01*
X168741500Y-94973134D01*
X168745909Y-95013720D01*
X168745909Y-95040933D01*
X168742369Y-95073517D01*
X168742000Y-95080327D01*
X168742001Y-95369670D01*
X168742370Y-95376488D01*
X168745909Y-95409067D01*
X168745909Y-95436280D01*
X168741500Y-95476866D01*
X168741500Y-95773134D01*
X168745627Y-95811122D01*
X168745656Y-95811393D01*
X168745656Y-95838606D01*
X168741500Y-95876866D01*
X168741500Y-96173134D01*
X168745909Y-96213720D01*
X168745909Y-96240933D01*
X168742369Y-96273517D01*
X168742000Y-96280327D01*
X168742001Y-96569670D01*
X168742370Y-96576488D01*
X168745909Y-96609067D01*
X168745909Y-96636280D01*
X168741500Y-96676866D01*
X168741500Y-96973134D01*
X168741869Y-96976529D01*
X168741869Y-96976533D01*
X168745656Y-97011393D01*
X168745656Y-97038607D01*
X168742640Y-97066375D01*
X168741500Y-97076866D01*
X168741500Y-97373134D01*
X168745909Y-97413720D01*
X168745909Y-97440933D01*
X168742369Y-97473517D01*
X168742000Y-97480327D01*
X168742001Y-97769670D01*
X168742370Y-97776488D01*
X168745909Y-97809067D01*
X168745909Y-97836280D01*
X168741500Y-97876866D01*
X168741500Y-98173134D01*
X168741869Y-98176529D01*
X168741869Y-98176533D01*
X168745656Y-98211393D01*
X168745656Y-98238606D01*
X168741500Y-98276866D01*
X168741500Y-98573134D01*
X168745909Y-98613720D01*
X168745909Y-98640933D01*
X168742369Y-98673517D01*
X168742000Y-98680327D01*
X168742001Y-98969670D01*
X168742370Y-98976488D01*
X168745909Y-99009067D01*
X168745909Y-99036280D01*
X168741500Y-99076866D01*
X168741500Y-99373134D01*
X168741869Y-99376528D01*
X168741869Y-99376533D01*
X168745656Y-99411393D01*
X168745656Y-99438606D01*
X168741500Y-99476866D01*
X168741500Y-99773134D01*
X168745909Y-99813720D01*
X168745909Y-99840933D01*
X168742369Y-99873517D01*
X168742000Y-99880327D01*
X168742001Y-100169670D01*
X168742370Y-100176488D01*
X168745909Y-100209067D01*
X168745909Y-100236280D01*
X168741500Y-100276866D01*
X168741500Y-100573134D01*
X168741869Y-100576529D01*
X168741869Y-100576533D01*
X168745656Y-100611393D01*
X168745656Y-100638606D01*
X168741500Y-100676866D01*
X168741500Y-100973134D01*
X168745909Y-101013720D01*
X168745909Y-101040933D01*
X168742369Y-101073517D01*
X168742000Y-101080327D01*
X168742001Y-101369670D01*
X168742370Y-101376488D01*
X168745909Y-101409067D01*
X168745909Y-101436280D01*
X168741500Y-101476866D01*
X168741500Y-101773134D01*
X168741869Y-101776528D01*
X168741869Y-101776533D01*
X168745656Y-101811393D01*
X168745656Y-101838606D01*
X168741500Y-101876866D01*
X168741500Y-102173134D01*
X168745909Y-102213720D01*
X168745909Y-102240933D01*
X168742369Y-102273517D01*
X168742000Y-102280327D01*
X168742001Y-102569670D01*
X168742370Y-102576488D01*
X168745909Y-102609067D01*
X168745909Y-102636280D01*
X168741500Y-102676866D01*
X168741500Y-102973134D01*
X168741869Y-102976528D01*
X168741869Y-102976533D01*
X168745656Y-103011393D01*
X168745656Y-103038606D01*
X168741500Y-103076866D01*
X168741500Y-103373134D01*
X168745909Y-103413720D01*
X168745909Y-103440933D01*
X168742369Y-103473517D01*
X168742000Y-103480327D01*
X168742001Y-103769670D01*
X168742370Y-103776488D01*
X168745909Y-103809067D01*
X168745909Y-103836280D01*
X168741500Y-103876866D01*
X168741500Y-104173134D01*
X168741869Y-104176528D01*
X168741869Y-104176533D01*
X168745656Y-104211393D01*
X168745656Y-104238606D01*
X168741500Y-104276866D01*
X168741500Y-104573134D01*
X168745909Y-104613720D01*
X168745909Y-104640933D01*
X168742369Y-104673517D01*
X168742000Y-104680327D01*
X168742001Y-104969670D01*
X168742370Y-104976488D01*
X168745909Y-105009067D01*
X168745909Y-105036280D01*
X168741500Y-105076866D01*
X168741500Y-105373134D01*
X168741869Y-105376528D01*
X168741869Y-105376533D01*
X168745656Y-105411393D01*
X168745656Y-105438606D01*
X168741500Y-105476866D01*
X168741500Y-105773134D01*
X168745909Y-105813720D01*
X168745909Y-105840933D01*
X168742369Y-105873517D01*
X168742000Y-105880327D01*
X168742001Y-106169670D01*
X168742370Y-106176488D01*
X168745909Y-106209067D01*
X168745909Y-106236280D01*
X168741500Y-106276866D01*
X168741500Y-106573134D01*
X168741869Y-106576529D01*
X168741869Y-106576533D01*
X168745656Y-106611393D01*
X168745656Y-106638606D01*
X168741500Y-106676866D01*
X168741500Y-106973134D01*
X168745909Y-107013720D01*
X168745909Y-107040933D01*
X168742369Y-107073517D01*
X168742000Y-107080327D01*
X168742001Y-107369670D01*
X168742370Y-107376488D01*
X168745909Y-107409067D01*
X168745909Y-107436280D01*
X168741500Y-107476866D01*
X168741500Y-107773134D01*
X168741869Y-107776529D01*
X168741869Y-107776533D01*
X168745656Y-107811393D01*
X168745656Y-107838606D01*
X168741500Y-107876866D01*
X168741500Y-108173134D01*
X168745909Y-108213720D01*
X168745909Y-108240933D01*
X168742369Y-108273517D01*
X168742000Y-108280327D01*
X168742001Y-108569670D01*
X168742370Y-108576488D01*
X168745909Y-108609067D01*
X168745909Y-108636280D01*
X168741500Y-108676866D01*
X168741500Y-108973134D01*
X168741869Y-108976529D01*
X168741869Y-108976533D01*
X168745656Y-109011393D01*
X168745656Y-109038607D01*
X168742355Y-109068998D01*
X168741500Y-109076866D01*
X168741500Y-109373134D01*
X168745909Y-109413720D01*
X168745909Y-109440933D01*
X168742369Y-109473517D01*
X168742000Y-109480327D01*
X168742001Y-109769670D01*
X168742370Y-109776488D01*
X168745909Y-109809067D01*
X168745909Y-109836280D01*
X168741500Y-109876866D01*
X168741500Y-110173134D01*
X168741869Y-110176529D01*
X168741869Y-110176533D01*
X168745656Y-110211393D01*
X168745656Y-110238606D01*
X168741500Y-110276866D01*
X168741500Y-110573134D01*
X168745909Y-110613720D01*
X168745909Y-110640933D01*
X168742369Y-110673517D01*
X168742000Y-110680327D01*
X168742001Y-110969670D01*
X168742370Y-110976488D01*
X168745909Y-111009067D01*
X168745909Y-111036280D01*
X168741500Y-111076866D01*
X168741500Y-111373134D01*
X167378500Y-111373134D01*
X167378500Y-111076866D01*
X167374091Y-111036280D01*
X167374091Y-111009065D01*
X167377631Y-110976481D01*
X167378000Y-110969673D01*
X167377999Y-110680330D01*
X167377630Y-110673509D01*
X167374091Y-110640929D01*
X167374091Y-110613720D01*
X167378500Y-110573134D01*
X167378500Y-110276866D01*
X167374344Y-110238606D01*
X167374344Y-110211393D01*
X167378131Y-110176533D01*
X167378131Y-110176529D01*
X167378500Y-110173134D01*
X167378500Y-109876866D01*
X167374091Y-109836280D01*
X167374091Y-109809065D01*
X167377631Y-109776481D01*
X167378000Y-109769673D01*
X167377999Y-109480330D01*
X167377630Y-109473509D01*
X167374091Y-109440929D01*
X167374091Y-109413720D01*
X167378500Y-109373134D01*
X167378500Y-109076866D01*
X167377646Y-109068998D01*
X167374344Y-109038607D01*
X167374344Y-109011393D01*
X167378131Y-108976533D01*
X167378131Y-108976529D01*
X167378500Y-108973134D01*
X167378500Y-108676866D01*
X167374091Y-108636280D01*
X167374091Y-108609065D01*
X167377631Y-108576481D01*
X167378000Y-108569673D01*
X167377999Y-108280330D01*
X167377630Y-108273509D01*
X167374091Y-108240929D01*
X167374091Y-108213720D01*
X167378500Y-108173134D01*
X167378500Y-107876866D01*
X167374344Y-107838606D01*
X167374344Y-107811393D01*
X167378131Y-107776533D01*
X167378131Y-107776529D01*
X167378500Y-107773134D01*
X167378500Y-107476866D01*
X167374091Y-107436280D01*
X167374091Y-107409065D01*
X167377631Y-107376481D01*
X167378000Y-107369673D01*
X167377999Y-107080330D01*
X167377630Y-107073509D01*
X167374091Y-107040929D01*
X167374091Y-107013720D01*
X167378500Y-106973134D01*
X167378500Y-106676866D01*
X167374344Y-106638606D01*
X167374344Y-106611393D01*
X167378131Y-106576533D01*
X167378131Y-106576529D01*
X167378500Y-106573134D01*
X167378500Y-106276866D01*
X167374091Y-106236280D01*
X167374091Y-106209065D01*
X167377631Y-106176481D01*
X167378000Y-106169673D01*
X167377999Y-105880330D01*
X167377630Y-105873509D01*
X167374091Y-105840929D01*
X167374091Y-105813720D01*
X167378500Y-105773134D01*
X167378500Y-105476866D01*
X167374344Y-105438606D01*
X167374344Y-105411393D01*
X167378131Y-105376533D01*
X167378131Y-105376528D01*
X167378500Y-105373134D01*
X167378500Y-105076866D01*
X167374091Y-105036280D01*
X167374091Y-105009065D01*
X167377631Y-104976481D01*
X167378000Y-104969673D01*
X167377999Y-104680330D01*
X167377630Y-104673509D01*
X167374091Y-104640929D01*
X167374091Y-104613720D01*
X167378500Y-104573134D01*
X167378500Y-104276866D01*
X167374344Y-104238606D01*
X167374344Y-104211393D01*
X167378131Y-104176533D01*
X167378131Y-104176528D01*
X167378500Y-104173134D01*
X167378500Y-103876866D01*
X167374091Y-103836280D01*
X167374091Y-103809065D01*
X167377631Y-103776481D01*
X167378000Y-103769673D01*
X167377999Y-103480330D01*
X167377630Y-103473509D01*
X167374091Y-103440929D01*
X167374091Y-103413720D01*
X167378500Y-103373134D01*
X167378500Y-103076866D01*
X167374344Y-103038606D01*
X167374344Y-103011393D01*
X167378131Y-102976533D01*
X167378131Y-102976528D01*
X167378500Y-102973134D01*
X167378500Y-102676866D01*
X167374091Y-102636280D01*
X167374091Y-102609065D01*
X167377631Y-102576481D01*
X167378000Y-102569673D01*
X167377999Y-102280330D01*
X167377630Y-102273509D01*
X167374091Y-102240929D01*
X167374091Y-102213720D01*
X167378500Y-102173134D01*
X167378500Y-101876866D01*
X167374344Y-101838606D01*
X167374344Y-101811393D01*
X167378131Y-101776533D01*
X167378131Y-101776528D01*
X167378500Y-101773134D01*
X167378500Y-101476866D01*
X167374344Y-101438606D01*
X167374344Y-101411393D01*
X167378131Y-101376533D01*
X167378131Y-101376528D01*
X167378500Y-101373134D01*
X167378500Y-101076866D01*
X167374344Y-101038606D01*
X167374344Y-101011393D01*
X167378131Y-100976533D01*
X167378131Y-100976528D01*
X167378500Y-100973134D01*
X167378500Y-100676866D01*
X167374344Y-100638606D01*
X167374344Y-100611393D01*
X167378131Y-100576533D01*
X167378131Y-100576529D01*
X167378500Y-100573134D01*
X167378500Y-100276866D01*
X167377241Y-100265271D01*
X167374344Y-100238607D01*
X167374344Y-100211393D01*
X167378131Y-100176533D01*
X167378131Y-100176529D01*
X167378500Y-100173134D01*
X167378500Y-99876866D01*
X167374344Y-99838606D01*
X167374344Y-99811393D01*
X167378131Y-99776533D01*
X167378131Y-99776528D01*
X167378500Y-99773134D01*
X167378500Y-99476866D01*
X167374344Y-99438606D01*
X167374344Y-99411393D01*
X167378131Y-99376533D01*
X167378131Y-99376528D01*
X167378500Y-99373134D01*
X167378500Y-99076866D01*
X167374091Y-99036280D01*
X167374091Y-99009065D01*
X167377631Y-98976481D01*
X167378000Y-98969673D01*
X167377999Y-98680330D01*
X167377630Y-98673509D01*
X167374091Y-98640929D01*
X167374091Y-98613720D01*
X167378500Y-98573134D01*
X167378500Y-98276866D01*
X167374344Y-98238606D01*
X167374344Y-98211393D01*
X167378131Y-98176533D01*
X167378131Y-98176529D01*
X167378500Y-98173134D01*
X167378500Y-97876866D01*
X167374091Y-97836280D01*
X167374091Y-97809065D01*
X167377631Y-97776481D01*
X167378000Y-97769673D01*
X167377999Y-97480330D01*
X167377630Y-97473509D01*
X167374091Y-97440929D01*
X167374091Y-97413720D01*
X167378500Y-97373134D01*
X167378500Y-97076866D01*
X167377361Y-97066375D01*
X167374344Y-97038607D01*
X167374344Y-97011393D01*
X167378131Y-96976533D01*
X167378131Y-96976529D01*
X167378500Y-96973134D01*
X167378500Y-96676866D01*
X167374091Y-96636280D01*
X167374091Y-96609065D01*
X167377631Y-96576481D01*
X167378000Y-96569673D01*
X167377999Y-96280330D01*
X167377630Y-96273509D01*
X167374091Y-96240929D01*
X167374091Y-96213720D01*
X167378500Y-96173134D01*
X167378500Y-95876866D01*
X167374344Y-95838606D01*
X167374344Y-95811393D01*
X167374374Y-95811122D01*
X167378500Y-95773134D01*
X167378500Y-95476866D01*
X167374091Y-95436280D01*
X167374091Y-95409065D01*
X167377631Y-95376481D01*
X167378000Y-95369673D01*
X167377999Y-95080330D01*
X167377630Y-95073509D01*
X167374091Y-95040929D01*
X167374091Y-95013720D01*
X167378500Y-94973134D01*
X167378500Y-94676866D01*
X167376547Y-94658882D01*
X167374344Y-94638607D01*
X167374344Y-94611393D01*
X167378131Y-94576533D01*
X167378131Y-94576529D01*
X167378500Y-94573134D01*
X167378500Y-94276866D01*
X167374091Y-94236280D01*
X167374091Y-94209065D01*
X167377631Y-94176481D01*
X167378000Y-94169673D01*
X167377999Y-93880330D01*
X167377630Y-93873509D01*
X167374091Y-93840929D01*
X167374091Y-93813720D01*
X167378500Y-93773134D01*
X167378500Y-93476866D01*
X167374344Y-93438606D01*
X167374344Y-93411393D01*
X167378131Y-93376533D01*
X167378131Y-93376529D01*
X167378500Y-93373134D01*
X167378500Y-93076866D01*
X167374091Y-93036280D01*
X167374091Y-93009065D01*
X167377631Y-92976481D01*
X167378000Y-92969673D01*
X167377999Y-92680330D01*
X167377630Y-92673509D01*
X167374091Y-92640929D01*
X167374091Y-92613720D01*
X167378500Y-92573134D01*
X167378500Y-92276866D01*
X167374344Y-92238606D01*
X167374344Y-92211393D01*
X167378131Y-92176533D01*
X167378131Y-92176529D01*
X167378500Y-92173134D01*
X167378500Y-91876866D01*
X167376681Y-91860115D01*
X167374344Y-91838607D01*
X167374344Y-91811393D01*
X167378131Y-91776533D01*
X167378131Y-91776529D01*
X167378500Y-91773134D01*
X167378500Y-91476866D01*
X167371745Y-91414684D01*
X167320615Y-91278295D01*
X167233261Y-91161739D01*
X167116705Y-91074385D01*
X166980316Y-91023255D01*
X166918134Y-91016500D01*
X166121866Y-91016500D01*
X166059684Y-91023255D01*
X165923295Y-91074385D01*
X165806739Y-91161739D01*
X165719385Y-91278295D01*
X165668255Y-91414684D01*
X165661500Y-91476866D01*
X165661500Y-91773134D01*
X165661869Y-91776529D01*
X165661869Y-91776533D01*
X165665656Y-91811393D01*
X165665656Y-91838607D01*
X165663320Y-91860115D01*
X165661500Y-91876866D01*
X165661500Y-92173134D01*
X165661869Y-92176529D01*
X165661869Y-92176533D01*
X165665656Y-92211393D01*
X165665656Y-92238606D01*
X165661500Y-92276866D01*
X165661500Y-92573134D01*
X165665909Y-92613720D01*
X165665909Y-92640933D01*
X165662369Y-92673517D01*
X165662000Y-92680327D01*
X165662001Y-92969670D01*
X165662370Y-92976488D01*
X165665909Y-93009067D01*
X165665909Y-93036280D01*
X165661500Y-93076866D01*
X165661500Y-93373134D01*
X165661869Y-93376529D01*
X165661869Y-93376533D01*
X165665656Y-93411393D01*
X165665656Y-93438606D01*
X165661500Y-93476866D01*
X165661500Y-93773134D01*
X165665909Y-93813720D01*
X165665909Y-93840933D01*
X165662369Y-93873517D01*
X165662000Y-93880327D01*
X165662001Y-94169670D01*
X165662370Y-94176488D01*
X165665909Y-94209067D01*
X165665909Y-94236280D01*
X165661500Y-94276866D01*
X165661500Y-94573134D01*
X165661869Y-94576529D01*
X165661869Y-94576533D01*
X165665656Y-94611393D01*
X165665656Y-94638607D01*
X165663454Y-94658882D01*
X165661500Y-94676866D01*
X165661500Y-94973134D01*
X165665909Y-95013720D01*
X165665909Y-95040933D01*
X165662369Y-95073517D01*
X165662000Y-95080327D01*
X165662001Y-95369670D01*
X165662370Y-95376488D01*
X165665909Y-95409067D01*
X165665909Y-95436280D01*
X165661500Y-95476866D01*
X165661500Y-95773134D01*
X165665627Y-95811122D01*
X165665656Y-95811393D01*
X165665656Y-95838606D01*
X165661500Y-95876866D01*
X165661500Y-96173134D01*
X165665909Y-96213720D01*
X165665909Y-96240933D01*
X165662369Y-96273517D01*
X165662000Y-96280327D01*
X165662001Y-96569670D01*
X165662370Y-96576488D01*
X165665909Y-96609067D01*
X165665909Y-96636280D01*
X165661500Y-96676866D01*
X165661500Y-96973134D01*
X165661869Y-96976529D01*
X165661869Y-96976533D01*
X165665656Y-97011393D01*
X165665656Y-97038607D01*
X165662640Y-97066375D01*
X165661500Y-97076866D01*
X165661500Y-97373134D01*
X165665909Y-97413720D01*
X165665909Y-97440933D01*
X165662369Y-97473517D01*
X165662000Y-97480327D01*
X165662001Y-97769670D01*
X165662370Y-97776488D01*
X165665909Y-97809067D01*
X165665909Y-97836280D01*
X165661500Y-97876866D01*
X165661500Y-98173134D01*
X165661869Y-98176529D01*
X165661869Y-98176533D01*
X165665656Y-98211393D01*
X165665656Y-98238606D01*
X165661500Y-98276866D01*
X165661500Y-98573134D01*
X165665909Y-98613720D01*
X165665909Y-98640933D01*
X165662369Y-98673517D01*
X165662000Y-98680327D01*
X165662001Y-98969670D01*
X165662370Y-98976488D01*
X165665909Y-99009067D01*
X165665909Y-99036280D01*
X165661500Y-99076866D01*
X165661500Y-99373134D01*
X165661869Y-99376528D01*
X165661869Y-99376533D01*
X165665656Y-99411393D01*
X165665656Y-99438606D01*
X165661500Y-99476866D01*
X165661500Y-99773134D01*
X165661869Y-99776528D01*
X165661869Y-99776533D01*
X165665656Y-99811393D01*
X165665656Y-99838606D01*
X165661500Y-99876866D01*
X165661500Y-100173134D01*
X165661869Y-100176529D01*
X165661869Y-100176533D01*
X165665656Y-100211393D01*
X165665656Y-100238607D01*
X165662760Y-100265271D01*
X165661500Y-100276866D01*
X165661500Y-100573134D01*
X165661869Y-100576529D01*
X165661869Y-100576533D01*
X165665656Y-100611393D01*
X165665656Y-100638606D01*
X165661500Y-100676866D01*
X165661500Y-100973134D01*
X165661869Y-100976528D01*
X165661869Y-100976533D01*
X165665656Y-101011393D01*
X165665656Y-101038606D01*
X165661500Y-101076866D01*
X165661500Y-101373134D01*
X165661869Y-101376528D01*
X165661869Y-101376533D01*
X165665656Y-101411393D01*
X165665656Y-101438606D01*
X165661500Y-101476866D01*
X165661500Y-101773134D01*
X165661869Y-101776528D01*
X165661869Y-101776533D01*
X165665656Y-101811393D01*
X165665656Y-101838606D01*
X165661500Y-101876866D01*
X165661500Y-102173134D01*
X165665909Y-102213720D01*
X165665909Y-102240933D01*
X165662369Y-102273517D01*
X165662000Y-102280327D01*
X165662001Y-102569670D01*
X165662370Y-102576488D01*
X165665909Y-102609067D01*
X165665909Y-102636280D01*
X165661500Y-102676866D01*
X165661500Y-102973134D01*
X165661869Y-102976528D01*
X165661869Y-102976533D01*
X165665656Y-103011393D01*
X165665656Y-103038606D01*
X165661500Y-103076866D01*
X165661500Y-103373134D01*
X165665909Y-103413720D01*
X165665909Y-103440933D01*
X165662369Y-103473517D01*
X165662000Y-103480327D01*
X165662001Y-103769670D01*
X165662370Y-103776488D01*
X165665909Y-103809067D01*
X165665909Y-103836280D01*
X165661500Y-103876866D01*
X165661500Y-104173134D01*
X165661869Y-104176528D01*
X165661869Y-104176533D01*
X165665656Y-104211393D01*
X165665656Y-104238606D01*
X165661500Y-104276866D01*
X165661500Y-104573134D01*
X165665909Y-104613720D01*
X165665909Y-104640933D01*
X165662369Y-104673517D01*
X165662000Y-104680327D01*
X165662001Y-104969670D01*
X165662370Y-104976488D01*
X165665909Y-105009067D01*
X165665909Y-105036280D01*
X165661500Y-105076866D01*
X165661500Y-105373134D01*
X165661869Y-105376528D01*
X165661869Y-105376533D01*
X165665656Y-105411393D01*
X165665656Y-105438606D01*
X165661500Y-105476866D01*
X165661500Y-105773134D01*
X165665909Y-105813720D01*
X165665909Y-105840933D01*
X165662369Y-105873517D01*
X165662000Y-105880327D01*
X165662001Y-106169670D01*
X165662370Y-106176488D01*
X165665909Y-106209067D01*
X165665909Y-106236280D01*
X165661500Y-106276866D01*
X165661500Y-106573134D01*
X165661869Y-106576529D01*
X165661869Y-106576533D01*
X165665656Y-106611393D01*
X165665656Y-106638606D01*
X165661500Y-106676866D01*
X165661500Y-106973134D01*
X165665909Y-107013720D01*
X165665909Y-107040933D01*
X165662369Y-107073517D01*
X165662000Y-107080327D01*
X165662001Y-107369670D01*
X165662370Y-107376488D01*
X165665909Y-107409067D01*
X165665909Y-107436280D01*
X165661500Y-107476866D01*
X165661500Y-107773134D01*
X165661869Y-107776529D01*
X165661869Y-107776533D01*
X165665656Y-107811393D01*
X165665656Y-107838606D01*
X165661500Y-107876866D01*
X165661500Y-108173134D01*
X165665909Y-108213720D01*
X165665909Y-108240933D01*
X165662369Y-108273517D01*
X165662000Y-108280327D01*
X165662001Y-108569670D01*
X165662370Y-108576488D01*
X165665909Y-108609067D01*
X165665909Y-108636280D01*
X165661500Y-108676866D01*
X165661500Y-108973134D01*
X165661869Y-108976529D01*
X165661869Y-108976533D01*
X165665656Y-109011393D01*
X165665656Y-109038607D01*
X165662355Y-109068998D01*
X165661500Y-109076866D01*
X165661500Y-109373134D01*
X165665909Y-109413720D01*
X165665909Y-109440933D01*
X165662369Y-109473517D01*
X165662000Y-109480327D01*
X165662001Y-109769670D01*
X165662370Y-109776488D01*
X165665909Y-109809067D01*
X165665909Y-109836280D01*
X165661500Y-109876866D01*
X165661500Y-110173134D01*
X165661869Y-110176529D01*
X165661869Y-110176533D01*
X165665656Y-110211393D01*
X165665656Y-110238606D01*
X165661500Y-110276866D01*
X165661500Y-110573134D01*
X165665909Y-110613720D01*
X165665909Y-110640933D01*
X165662369Y-110673517D01*
X165662000Y-110680327D01*
X165662001Y-110969670D01*
X165662370Y-110976488D01*
X165665909Y-111009067D01*
X165665909Y-111036280D01*
X165661500Y-111076866D01*
X165661500Y-111373134D01*
X142587415Y-111373134D01*
X143246234Y-110714315D01*
X143258625Y-110703448D01*
X143277437Y-110689013D01*
X143283987Y-110683987D01*
X143308474Y-110652075D01*
X143308478Y-110652071D01*
X143381524Y-110556876D01*
X143442838Y-110408851D01*
X143446893Y-110378051D01*
X143455042Y-110316151D01*
X143455042Y-110316149D01*
X143458500Y-110289885D01*
X143458501Y-110289871D01*
X143459395Y-110283084D01*
X143463750Y-110250000D01*
X143459578Y-110218307D01*
X143458500Y-110201864D01*
X143458500Y-91948136D01*
X143459578Y-91931690D01*
X143462672Y-91908188D01*
X143463750Y-91900000D01*
X143458500Y-91860122D01*
X143458500Y-91860115D01*
X143442838Y-91741150D01*
X143381524Y-91593125D01*
X143334901Y-91532365D01*
X143308477Y-91497928D01*
X143308474Y-91497925D01*
X143292315Y-91476866D01*
X143289016Y-91472566D01*
X143289013Y-91472563D01*
X143283987Y-91466013D01*
X143273018Y-91457596D01*
X143258621Y-91446548D01*
X143246230Y-91435681D01*
X136239804Y-84429255D01*
X136228937Y-84416864D01*
X136214502Y-84398052D01*
X136209476Y-84391502D01*
X136177564Y-84367015D01*
X136177561Y-84367012D01*
X136082365Y-84293965D01*
X135934340Y-84232651D01*
X135926153Y-84231573D01*
X135926152Y-84231573D01*
X135914947Y-84230098D01*
X135883751Y-84225991D01*
X135815374Y-84216989D01*
X135815371Y-84216989D01*
X135815363Y-84216988D01*
X135783678Y-84212817D01*
X135775489Y-84211739D01*
X135743796Y-84215911D01*
X135727353Y-84216989D01*
X111406779Y-84216989D01*
X111338658Y-84196987D01*
X111292165Y-84143331D01*
X111282061Y-84073057D01*
X111293822Y-84035162D01*
X111340136Y-83941452D01*
X111342430Y-83936811D01*
X111407370Y-83723069D01*
X111436529Y-83501590D01*
X111438156Y-83435000D01*
X111419852Y-83212361D01*
X111365431Y-82995702D01*
X111276354Y-82790840D01*
X111155014Y-82603277D01*
X111004670Y-82438051D01*
X111000619Y-82434852D01*
X111000615Y-82434848D01*
X110833414Y-82302800D01*
X110833410Y-82302798D01*
X110829359Y-82299598D01*
X110633789Y-82191638D01*
X110628920Y-82189914D01*
X110628916Y-82189912D01*
X110428087Y-82118795D01*
X110428083Y-82118794D01*
X110423212Y-82117069D01*
X110418119Y-82116162D01*
X110418116Y-82116161D01*
X110208373Y-82078800D01*
X110208367Y-82078799D01*
X110203284Y-82077894D01*
X110129452Y-82076992D01*
X109985081Y-82075228D01*
X109985079Y-82075228D01*
X109979911Y-82075165D01*
X109759091Y-82108955D01*
X109546756Y-82178357D01*
X109348607Y-82281507D01*
X109344474Y-82284610D01*
X109344471Y-82284612D01*
X109320247Y-82302800D01*
X109169965Y-82415635D01*
X109015629Y-82577138D01*
X108908201Y-82734621D01*
X108853293Y-82779621D01*
X108782768Y-82787792D01*
X108719021Y-82756538D01*
X108698324Y-82732054D01*
X108617822Y-82607617D01*
X108617820Y-82607614D01*
X108615014Y-82603277D01*
X108464670Y-82438051D01*
X108460619Y-82434852D01*
X108460615Y-82434848D01*
X108293414Y-82302800D01*
X108293410Y-82302798D01*
X108289359Y-82299598D01*
X108093789Y-82191638D01*
X108088920Y-82189914D01*
X108088916Y-82189912D01*
X107888087Y-82118795D01*
X107888083Y-82118794D01*
X107883212Y-82117069D01*
X107878119Y-82116162D01*
X107878116Y-82116161D01*
X107668373Y-82078800D01*
X107668367Y-82078799D01*
X107663284Y-82077894D01*
X107589452Y-82076992D01*
X107445081Y-82075228D01*
X107445079Y-82075228D01*
X107439911Y-82075165D01*
X107219091Y-82108955D01*
X107006756Y-82178357D01*
X106808607Y-82281507D01*
X106804474Y-82284610D01*
X106804471Y-82284612D01*
X106780247Y-82302800D01*
X106629965Y-82415635D01*
X106475629Y-82577138D01*
X106349743Y-82761680D01*
X106255688Y-82964305D01*
X106195989Y-83179570D01*
X106172251Y-83401695D01*
X106172548Y-83406848D01*
X106172548Y-83406851D01*
X106178011Y-83501590D01*
X106185110Y-83624715D01*
X106186247Y-83629761D01*
X106186248Y-83629767D01*
X106206119Y-83717939D01*
X106234222Y-83842639D01*
X106318266Y-84049616D01*
X106320965Y-84054020D01*
X106430430Y-84232651D01*
X106434987Y-84240088D01*
X106581250Y-84408938D01*
X106753126Y-84551632D01*
X106826955Y-84594774D01*
X106875679Y-84646412D01*
X106888750Y-84716195D01*
X106862019Y-84781967D01*
X106821562Y-84815327D01*
X106813457Y-84819546D01*
X106804738Y-84825036D01*
X106634433Y-84952905D01*
X106626726Y-84959748D01*
X106479590Y-85113717D01*
X106473104Y-85121727D01*
X106353098Y-85297649D01*
X106348000Y-85306623D01*
X106258338Y-85499783D01*
X106254775Y-85509470D01*
X106199389Y-85709183D01*
X106200912Y-85717607D01*
X106213292Y-85721000D01*
X107663000Y-85721000D01*
X107731121Y-85741002D01*
X107777614Y-85794658D01*
X107789000Y-85847000D01*
X107789000Y-86103000D01*
X107768998Y-86171121D01*
X107715342Y-86217614D01*
X107663000Y-86229000D01*
X106218225Y-86229000D01*
X106204694Y-86232973D01*
X106203257Y-86242966D01*
X106233565Y-86377446D01*
X106236645Y-86387275D01*
X106316770Y-86584603D01*
X106321413Y-86593794D01*
X106432694Y-86775388D01*
X106438777Y-86783699D01*
X106578213Y-86944667D01*
X106585580Y-86951883D01*
X106749434Y-87087916D01*
X106757881Y-87093831D01*
X106826969Y-87134203D01*
X106875693Y-87185842D01*
X106888764Y-87255625D01*
X106862033Y-87321396D01*
X106821584Y-87354752D01*
X106808607Y-87361507D01*
X106804474Y-87364610D01*
X106804471Y-87364612D01*
X106780247Y-87382800D01*
X106629965Y-87495635D01*
X106475629Y-87657138D01*
X106349743Y-87841680D01*
X106255688Y-88044305D01*
X106195989Y-88259570D01*
X106172251Y-88481695D01*
X106172548Y-88486848D01*
X106172548Y-88486851D01*
X106178011Y-88581590D01*
X106185110Y-88704715D01*
X106186247Y-88709761D01*
X106186248Y-88709767D01*
X106206119Y-88797939D01*
X106234222Y-88922639D01*
X106318266Y-89129616D01*
X106369019Y-89212438D01*
X106432291Y-89315688D01*
X106434987Y-89320088D01*
X106581250Y-89488938D01*
X106753126Y-89631632D01*
X106823595Y-89672811D01*
X106826445Y-89674476D01*
X106875169Y-89726114D01*
X106888240Y-89795897D01*
X106861509Y-89861669D01*
X106821055Y-89895027D01*
X106808607Y-89901507D01*
X106804474Y-89904610D01*
X106804471Y-89904612D01*
X106634100Y-90032530D01*
X106629965Y-90035635D01*
X106626393Y-90039373D01*
X106498768Y-90172925D01*
X106475629Y-90197138D01*
X106349743Y-90381680D01*
X106255688Y-90584305D01*
X106195989Y-90799570D01*
X106172251Y-91021695D01*
X106172548Y-91026848D01*
X106172548Y-91026851D01*
X106178011Y-91121590D01*
X106185110Y-91244715D01*
X106186247Y-91249761D01*
X106186248Y-91249767D01*
X106206119Y-91337939D01*
X106234222Y-91462639D01*
X106318266Y-91669616D01*
X106357427Y-91733521D01*
X106432291Y-91855688D01*
X106434987Y-91860088D01*
X106581250Y-92028938D01*
X106753126Y-92171632D01*
X106821169Y-92211393D01*
X106826445Y-92214476D01*
X106875169Y-92266114D01*
X106888240Y-92335897D01*
X106861509Y-92401669D01*
X106821055Y-92435027D01*
X106808607Y-92441507D01*
X106804474Y-92444610D01*
X106804471Y-92444612D01*
X106706517Y-92518158D01*
X106629965Y-92575635D01*
X106475629Y-92737138D01*
X106349743Y-92921680D01*
X106255688Y-93124305D01*
X106195989Y-93339570D01*
X106172251Y-93561695D01*
X106185110Y-93784715D01*
X106186247Y-93789761D01*
X106186248Y-93789767D01*
X106197779Y-93840933D01*
X106234222Y-94002639D01*
X106266723Y-94082680D01*
X106315783Y-94203500D01*
X106318266Y-94209616D01*
X106434987Y-94400088D01*
X106581250Y-94568938D01*
X106753126Y-94711632D01*
X106823595Y-94752811D01*
X106826445Y-94754476D01*
X106875169Y-94806114D01*
X106888240Y-94875897D01*
X106861509Y-94941669D01*
X106821055Y-94975027D01*
X106808607Y-94981507D01*
X106804474Y-94984610D01*
X106804471Y-94984612D01*
X106671128Y-95084729D01*
X106629965Y-95115635D01*
X106475629Y-95277138D01*
X106349743Y-95461680D01*
X106302715Y-95562993D01*
X106273933Y-95625000D01*
X106255688Y-95664305D01*
X106195989Y-95879570D01*
X106172251Y-96101695D01*
X106172548Y-96106848D01*
X106172548Y-96106851D01*
X106182158Y-96273517D01*
X106185110Y-96324715D01*
X106186247Y-96329761D01*
X106186248Y-96329767D01*
X106208392Y-96428023D01*
X106234222Y-96542639D01*
X106236164Y-96547421D01*
X106236165Y-96547425D01*
X106295229Y-96692882D01*
X106302325Y-96763523D01*
X106270103Y-96826787D01*
X106208793Y-96862587D01*
X106194937Y-96865207D01*
X106185134Y-96866498D01*
X106185115Y-96866500D01*
X106146772Y-96871548D01*
X106066150Y-96882162D01*
X105918125Y-96943476D01*
X105918123Y-96943477D01*
X105918124Y-96943477D01*
X105822928Y-97016523D01*
X105822925Y-97016526D01*
X105791013Y-97041013D01*
X105785983Y-97047568D01*
X105771548Y-97066379D01*
X105760681Y-97078770D01*
X105428766Y-97410685D01*
X105416375Y-97421552D01*
X105391013Y-97441013D01*
X105366526Y-97472925D01*
X105366523Y-97472928D01*
X105366520Y-97472932D01*
X105366519Y-97472933D01*
X105360846Y-97480327D01*
X105293476Y-97568124D01*
X105247943Y-97678051D01*
X105232162Y-97716150D01*
X105231084Y-97724338D01*
X105219317Y-97813715D01*
X105216500Y-97835115D01*
X105216500Y-97835120D01*
X105211250Y-97875000D01*
X105212328Y-97883188D01*
X105215422Y-97906690D01*
X105216500Y-97923136D01*
X105216500Y-103226864D01*
X105215422Y-103243307D01*
X105211250Y-103275000D01*
X104008000Y-103275000D01*
X104008000Y-74978326D01*
X131544982Y-74978326D01*
X131570657Y-75323821D01*
X131635278Y-75664188D01*
X131738014Y-75995053D01*
X131739455Y-75998327D01*
X131739455Y-75998328D01*
X131835367Y-76216303D01*
X131877545Y-76312160D01*
X132052076Y-76611434D01*
X132259364Y-76889027D01*
X132261808Y-76891625D01*
X132261813Y-76891631D01*
X132378054Y-77015198D01*
X132496744Y-77141369D01*
X132761164Y-77365217D01*
X132764128Y-77367197D01*
X132764130Y-77367199D01*
X132968450Y-77503721D01*
X133049225Y-77557693D01*
X133052407Y-77559332D01*
X133052409Y-77559333D01*
X133354040Y-77714684D01*
X133354045Y-77714686D01*
X133357223Y-77716323D01*
X133360564Y-77717589D01*
X133360569Y-77717591D01*
X133588216Y-77803838D01*
X133681199Y-77839066D01*
X133684663Y-77839946D01*
X133684667Y-77839947D01*
X134013519Y-77923465D01*
X134013527Y-77923467D01*
X134016986Y-77924345D01*
X134185779Y-77947317D01*
X134357277Y-77970657D01*
X134357284Y-77970658D01*
X134360270Y-77971064D01*
X134473174Y-77975500D01*
X134687754Y-77975500D01*
X134826975Y-77967594D01*
X134942322Y-77961045D01*
X134942329Y-77961044D01*
X134945890Y-77960842D01*
X135287334Y-77902171D01*
X135290766Y-77901171D01*
X135290769Y-77901170D01*
X135616497Y-77806229D01*
X135616500Y-77806228D01*
X135619941Y-77805225D01*
X135623241Y-77803841D01*
X135623250Y-77803838D01*
X135835857Y-77714684D01*
X135939436Y-77671250D01*
X136241710Y-77501968D01*
X136522878Y-77299556D01*
X136525529Y-77297148D01*
X136525534Y-77297144D01*
X136776675Y-77069023D01*
X136779325Y-77066616D01*
X137007753Y-76806143D01*
X137205228Y-76521485D01*
X137369208Y-76216303D01*
X137497587Y-75894519D01*
X137588713Y-75560271D01*
X137625106Y-75323821D01*
X137640874Y-75221378D01*
X137640874Y-75221374D01*
X137641416Y-75217855D01*
X137650688Y-74981886D01*
X137650828Y-74978326D01*
X164544982Y-74978326D01*
X164570657Y-75323821D01*
X164635278Y-75664188D01*
X164738014Y-75995053D01*
X164739455Y-75998327D01*
X164739455Y-75998328D01*
X164835367Y-76216303D01*
X164877545Y-76312160D01*
X165052076Y-76611434D01*
X165259364Y-76889027D01*
X165261808Y-76891625D01*
X165261813Y-76891631D01*
X165378054Y-77015198D01*
X165496744Y-77141369D01*
X165761164Y-77365217D01*
X165764128Y-77367197D01*
X165764130Y-77367199D01*
X165968450Y-77503721D01*
X166049225Y-77557693D01*
X166052407Y-77559332D01*
X166052409Y-77559333D01*
X166354040Y-77714684D01*
X166354045Y-77714686D01*
X166357223Y-77716323D01*
X166360564Y-77717589D01*
X166360569Y-77717591D01*
X166588216Y-77803838D01*
X166681199Y-77839066D01*
X166684663Y-77839946D01*
X166684667Y-77839947D01*
X167013519Y-77923465D01*
X167013527Y-77923467D01*
X167016986Y-77924345D01*
X167185779Y-77947317D01*
X167357277Y-77970657D01*
X167357284Y-77970658D01*
X167360270Y-77971064D01*
X167473174Y-77975500D01*
X167687754Y-77975500D01*
X167826975Y-77967594D01*
X167942322Y-77961045D01*
X167942329Y-77961044D01*
X167945890Y-77960842D01*
X168287334Y-77902171D01*
X168290766Y-77901171D01*
X168290769Y-77901170D01*
X168616497Y-77806229D01*
X168616500Y-77806228D01*
X168619941Y-77805225D01*
X168623241Y-77803841D01*
X168623250Y-77803838D01*
X168835857Y-77714684D01*
X168939436Y-77671250D01*
X169241710Y-77501968D01*
X169522878Y-77299556D01*
X169525529Y-77297148D01*
X169525534Y-77297144D01*
X169776675Y-77069023D01*
X169779325Y-77066616D01*
X170007753Y-76806143D01*
X170205228Y-76521485D01*
X170369208Y-76216303D01*
X170497587Y-75894519D01*
X170588713Y-75560271D01*
X170625106Y-75323821D01*
X170640874Y-75221378D01*
X170640874Y-75221374D01*
X170641416Y-75217855D01*
X170650688Y-74981886D01*
X170654878Y-74875244D01*
X170654878Y-74875239D01*
X170655018Y-74871674D01*
X170636956Y-74628622D01*
X170629608Y-74529741D01*
X170629607Y-74529736D01*
X170629343Y-74526179D01*
X170564722Y-74185812D01*
X170461986Y-73854947D01*
X170366097Y-73637023D01*
X170323899Y-73541121D01*
X170323897Y-73541116D01*
X170322455Y-73537840D01*
X170147924Y-73238566D01*
X169940636Y-72960973D01*
X169938192Y-72958375D01*
X169938187Y-72958369D01*
X169776107Y-72786074D01*
X169703256Y-72708631D01*
X169513922Y-72548348D01*
X169441558Y-72487087D01*
X169441554Y-72487084D01*
X169438836Y-72484783D01*
X169237311Y-72350128D01*
X169153752Y-72294296D01*
X169153750Y-72294295D01*
X169150775Y-72292307D01*
X169129171Y-72281180D01*
X168845960Y-72135316D01*
X168845955Y-72135314D01*
X168842777Y-72133677D01*
X168839436Y-72132411D01*
X168839431Y-72132409D01*
X168522145Y-72012201D01*
X168522146Y-72012201D01*
X168518801Y-72010934D01*
X168515337Y-72010054D01*
X168515333Y-72010053D01*
X168186481Y-71926535D01*
X168186473Y-71926533D01*
X168183014Y-71925655D01*
X168014221Y-71902683D01*
X167842723Y-71879343D01*
X167842716Y-71879342D01*
X167839730Y-71878936D01*
X167726826Y-71874500D01*
X167512246Y-71874500D01*
X167373025Y-71882406D01*
X167257678Y-71888955D01*
X167257671Y-71888956D01*
X167254110Y-71889158D01*
X166912666Y-71947829D01*
X166909234Y-71948829D01*
X166909231Y-71948830D01*
X166583503Y-72043771D01*
X166583500Y-72043772D01*
X166580059Y-72044775D01*
X166576759Y-72046159D01*
X166576750Y-72046162D01*
X166375062Y-72130737D01*
X166260564Y-72178750D01*
X165958290Y-72348032D01*
X165677122Y-72550444D01*
X165674471Y-72552852D01*
X165674466Y-72552856D01*
X165505515Y-72706321D01*
X165420675Y-72783384D01*
X165192247Y-73043857D01*
X164994772Y-73328515D01*
X164830792Y-73633697D01*
X164702413Y-73955481D01*
X164611287Y-74289729D01*
X164610745Y-74293251D01*
X164572832Y-74539577D01*
X164558584Y-74632145D01*
X164558444Y-74635710D01*
X164549173Y-74871674D01*
X164544982Y-74978326D01*
X137650828Y-74978326D01*
X137654878Y-74875244D01*
X137654878Y-74875239D01*
X137655018Y-74871674D01*
X137636956Y-74628622D01*
X137629608Y-74529741D01*
X137629607Y-74529736D01*
X137629343Y-74526179D01*
X137564722Y-74185812D01*
X137461986Y-73854947D01*
X137366097Y-73637023D01*
X137323899Y-73541121D01*
X137323897Y-73541116D01*
X137322455Y-73537840D01*
X137147924Y-73238566D01*
X136940636Y-72960973D01*
X136938192Y-72958375D01*
X136938187Y-72958369D01*
X136776107Y-72786074D01*
X136703256Y-72708631D01*
X136513922Y-72548348D01*
X136441558Y-72487087D01*
X136441554Y-72487084D01*
X136438836Y-72484783D01*
X136237311Y-72350128D01*
X136153752Y-72294296D01*
X136153750Y-72294295D01*
X136150775Y-72292307D01*
X136129171Y-72281180D01*
X135845960Y-72135316D01*
X135845955Y-72135314D01*
X135842777Y-72133677D01*
X135839436Y-72132411D01*
X135839431Y-72132409D01*
X135522145Y-72012201D01*
X135522146Y-72012201D01*
X135518801Y-72010934D01*
X135515337Y-72010054D01*
X135515333Y-72010053D01*
X135186481Y-71926535D01*
X135186473Y-71926533D01*
X135183014Y-71925655D01*
X135014221Y-71902683D01*
X134842723Y-71879343D01*
X134842716Y-71879342D01*
X134839730Y-71878936D01*
X134726826Y-71874500D01*
X134512246Y-71874500D01*
X134373025Y-71882406D01*
X134257678Y-71888955D01*
X134257671Y-71888956D01*
X134254110Y-71889158D01*
X133912666Y-71947829D01*
X133909234Y-71948829D01*
X133909231Y-71948830D01*
X133583503Y-72043771D01*
X133583500Y-72043772D01*
X133580059Y-72044775D01*
X133576759Y-72046159D01*
X133576750Y-72046162D01*
X133375062Y-72130737D01*
X133260564Y-72178750D01*
X132958290Y-72348032D01*
X132677122Y-72550444D01*
X132674471Y-72552852D01*
X132674466Y-72552856D01*
X132505515Y-72706321D01*
X132420675Y-72783384D01*
X132192247Y-73043857D01*
X131994772Y-73328515D01*
X131830792Y-73633697D01*
X131702413Y-73955481D01*
X131611287Y-74289729D01*
X131610745Y-74293251D01*
X131572832Y-74539577D01*
X131558584Y-74632145D01*
X131558444Y-74635710D01*
X131549173Y-74871674D01*
X131544982Y-74978326D01*
X104008000Y-74978326D01*
X104008000Y-74549328D01*
X104009500Y-74529943D01*
X104011805Y-74515142D01*
X104011805Y-74515139D01*
X104013186Y-74506270D01*
X104012022Y-74497369D01*
X104012022Y-74497365D01*
X104010743Y-74487589D01*
X104009852Y-74464657D01*
X104024044Y-74193852D01*
X104025422Y-74180735D01*
X104072349Y-73884450D01*
X104075091Y-73871550D01*
X104138824Y-73633697D01*
X104152731Y-73581794D01*
X104156807Y-73569251D01*
X104167606Y-73541121D01*
X104264304Y-73289213D01*
X104269668Y-73277165D01*
X104405855Y-73009883D01*
X104412449Y-72998462D01*
X104575828Y-72746879D01*
X104583581Y-72736209D01*
X104772355Y-72503092D01*
X104781180Y-72493291D01*
X104993291Y-72281180D01*
X105003092Y-72272355D01*
X105236209Y-72083581D01*
X105246879Y-72075828D01*
X105498462Y-71912449D01*
X105509883Y-71905855D01*
X105777165Y-71769668D01*
X105789213Y-71764304D01*
X105821238Y-71752011D01*
X106069258Y-71656805D01*
X106081795Y-71652731D01*
X106371550Y-71575091D01*
X106384450Y-71572349D01*
X106680735Y-71525422D01*
X106693851Y-71524044D01*
X106957334Y-71510236D01*
X106983312Y-71511564D01*
X106984856Y-71511805D01*
X106984860Y-71511805D01*
X106993730Y-71513186D01*
X107002632Y-71512022D01*
X107002635Y-71512022D01*
X107025251Y-71509064D01*
X107041589Y-71508000D01*
X167950672Y-71508000D01*
X167970057Y-71509500D01*
G37*
%TD.AperFunction*%
%TA.AperFunction,Conductor*%
G36*
X131683621Y-109453502D02*
G01*
X131730114Y-109507158D01*
X131741500Y-109559500D01*
X131741500Y-109773134D01*
X131741869Y-109776529D01*
X131741869Y-109776533D01*
X131745656Y-109811393D01*
X131745656Y-109838606D01*
X131741500Y-109876866D01*
X131741500Y-110173134D01*
X131741869Y-110176529D01*
X131741869Y-110176533D01*
X131745656Y-110211393D01*
X131745656Y-110238606D01*
X131741500Y-110276866D01*
X131741500Y-110573134D01*
X131741869Y-110576528D01*
X131741869Y-110576533D01*
X131745656Y-110611393D01*
X131745656Y-110638606D01*
X131741500Y-110676866D01*
X131741500Y-110973134D01*
X131741869Y-110976529D01*
X131741869Y-110976533D01*
X131745656Y-111011393D01*
X131745656Y-111038606D01*
X131741500Y-111076866D01*
X131741500Y-111373134D01*
X131748255Y-111435316D01*
X131799385Y-111571705D01*
X131886739Y-111688261D01*
X131893919Y-111693642D01*
X131900269Y-111699992D01*
X131897856Y-111702405D01*
X131930485Y-111746039D01*
X131935514Y-111816857D01*
X131901457Y-111879152D01*
X131839127Y-111913145D01*
X131812407Y-111916011D01*
X111559500Y-111916011D01*
X111491379Y-111896009D01*
X111444886Y-111842353D01*
X111433500Y-111790011D01*
X111433500Y-110929239D01*
X111453502Y-110861118D01*
X111470405Y-110840144D01*
X112840144Y-109470405D01*
X112902456Y-109436379D01*
X112929239Y-109433500D01*
X131615500Y-109433500D01*
X131683621Y-109453502D01*
G37*
%TD.AperFunction*%
%TA.AperFunction,Conductor*%
G36*
X134763621Y-91853991D02*
G01*
X134810114Y-91907647D01*
X134821500Y-91959989D01*
X134821500Y-92173134D01*
X134821869Y-92176529D01*
X134821869Y-92176533D01*
X134825656Y-92211393D01*
X134825656Y-92238606D01*
X134821500Y-92276866D01*
X134821500Y-92573134D01*
X134825909Y-92613720D01*
X134825909Y-92640933D01*
X134822369Y-92673517D01*
X134822000Y-92680327D01*
X134822001Y-92969670D01*
X134822370Y-92976488D01*
X134825909Y-93009067D01*
X134825909Y-93036280D01*
X134821500Y-93076866D01*
X134821500Y-93373134D01*
X134821869Y-93376529D01*
X134821869Y-93376533D01*
X134825656Y-93411393D01*
X134825656Y-93438606D01*
X134821500Y-93476866D01*
X134821500Y-93773134D01*
X134825909Y-93813720D01*
X134825909Y-93840933D01*
X134822369Y-93873517D01*
X134822000Y-93880327D01*
X134822001Y-94169670D01*
X134822370Y-94176488D01*
X134825909Y-94209067D01*
X134825909Y-94236280D01*
X134821500Y-94276866D01*
X134821500Y-94573134D01*
X134821869Y-94576529D01*
X134821869Y-94576533D01*
X134825656Y-94611393D01*
X134825656Y-94638607D01*
X134823454Y-94658882D01*
X134821500Y-94676866D01*
X134821500Y-94973134D01*
X134821869Y-94976528D01*
X134821869Y-94976533D01*
X134825656Y-95011393D01*
X134825656Y-95038606D01*
X134821500Y-95076866D01*
X134821500Y-95373134D01*
X134825909Y-95413720D01*
X134825909Y-95440933D01*
X134822369Y-95473517D01*
X134822000Y-95480327D01*
X134822001Y-95769670D01*
X134822370Y-95776488D01*
X134825909Y-95809067D01*
X134825909Y-95836280D01*
X134821500Y-95876866D01*
X134821500Y-96173134D01*
X134824952Y-96204908D01*
X134825656Y-96211393D01*
X134825656Y-96238606D01*
X134821500Y-96276866D01*
X134821500Y-96573134D01*
X134821869Y-96576529D01*
X134821869Y-96576533D01*
X134825656Y-96611393D01*
X134825656Y-96638606D01*
X134821500Y-96676866D01*
X134821500Y-96973134D01*
X134821869Y-96976529D01*
X134821869Y-96976533D01*
X134825656Y-97011393D01*
X134825656Y-97038607D01*
X134822640Y-97066375D01*
X134821500Y-97076866D01*
X134821500Y-97373134D01*
X134825909Y-97413720D01*
X134825909Y-97440933D01*
X134822369Y-97473517D01*
X134822000Y-97480327D01*
X134822001Y-97769670D01*
X134822370Y-97776488D01*
X134825909Y-97809067D01*
X134825909Y-97836280D01*
X134821500Y-97876866D01*
X134821500Y-98173134D01*
X134821869Y-98176529D01*
X134821869Y-98176533D01*
X134825656Y-98211393D01*
X134825656Y-98238606D01*
X134821500Y-98276866D01*
X134821500Y-98573134D01*
X134821869Y-98576528D01*
X134821869Y-98576533D01*
X134825656Y-98611393D01*
X134825656Y-98638606D01*
X134821500Y-98676866D01*
X134821500Y-98973134D01*
X134821869Y-98976529D01*
X134821869Y-98976533D01*
X134825656Y-99011393D01*
X134825656Y-99038606D01*
X134821500Y-99076866D01*
X134821500Y-99373134D01*
X134825909Y-99413720D01*
X134825909Y-99440933D01*
X134822369Y-99473517D01*
X134822000Y-99480327D01*
X134822001Y-99769670D01*
X134822370Y-99776488D01*
X134825909Y-99809067D01*
X134825909Y-99836280D01*
X134821500Y-99876866D01*
X134821500Y-100173134D01*
X134821869Y-100176529D01*
X134821869Y-100176533D01*
X134825656Y-100211393D01*
X134825656Y-100238607D01*
X134822760Y-100265271D01*
X134821500Y-100276866D01*
X134821500Y-100573134D01*
X134821869Y-100576529D01*
X134821869Y-100576533D01*
X134825656Y-100611393D01*
X134825656Y-100638606D01*
X134821500Y-100676866D01*
X134821500Y-100973134D01*
X134821869Y-100976528D01*
X134821869Y-100976533D01*
X134825656Y-101011393D01*
X134825656Y-101038606D01*
X134821500Y-101076866D01*
X134821500Y-101373134D01*
X134825909Y-101413720D01*
X134825909Y-101440933D01*
X134822369Y-101473517D01*
X134822000Y-101480327D01*
X134822001Y-101769670D01*
X134822370Y-101776488D01*
X134825909Y-101809067D01*
X134825909Y-101836280D01*
X134821500Y-101876866D01*
X134821500Y-102173134D01*
X134821869Y-102176528D01*
X134821869Y-102176533D01*
X134825656Y-102211393D01*
X134825656Y-102238606D01*
X134821500Y-102276866D01*
X134821500Y-102573134D01*
X134821869Y-102576529D01*
X134821869Y-102576533D01*
X134825656Y-102611393D01*
X134825656Y-102638606D01*
X134821500Y-102676866D01*
X134821500Y-102973134D01*
X134825909Y-103013720D01*
X134825909Y-103040933D01*
X134822369Y-103073517D01*
X134822000Y-103080327D01*
X134822001Y-103369670D01*
X134822370Y-103376488D01*
X134825909Y-103409067D01*
X134825909Y-103436280D01*
X134821500Y-103476866D01*
X134821500Y-103773134D01*
X134821869Y-103776529D01*
X134821869Y-103776533D01*
X134825656Y-103811393D01*
X134825656Y-103838606D01*
X134821500Y-103876866D01*
X134821500Y-104173134D01*
X134825909Y-104213720D01*
X134825909Y-104240933D01*
X134822369Y-104273517D01*
X134822000Y-104280327D01*
X134822001Y-104569670D01*
X134822370Y-104576488D01*
X134825909Y-104609067D01*
X134825909Y-104636280D01*
X134821500Y-104676866D01*
X134821500Y-104973134D01*
X134821869Y-104976529D01*
X134821869Y-104976533D01*
X134825656Y-105011393D01*
X134825656Y-105038606D01*
X134821500Y-105076866D01*
X134821500Y-105373134D01*
X134821869Y-105376528D01*
X134821869Y-105376533D01*
X134825656Y-105411393D01*
X134825656Y-105438606D01*
X134821500Y-105476866D01*
X134821500Y-105773134D01*
X134825909Y-105813720D01*
X134825909Y-105840933D01*
X134822369Y-105873517D01*
X134822000Y-105880327D01*
X134822001Y-106169670D01*
X134822370Y-106176488D01*
X134825909Y-106209067D01*
X134825909Y-106236280D01*
X134821500Y-106276866D01*
X134821500Y-106573134D01*
X134821869Y-106576529D01*
X134821869Y-106576533D01*
X134825656Y-106611393D01*
X134825656Y-106638606D01*
X134821500Y-106676866D01*
X134821500Y-106973134D01*
X134821869Y-106976528D01*
X134821869Y-106976533D01*
X134825656Y-107011393D01*
X134825656Y-107038606D01*
X134821500Y-107076866D01*
X134821500Y-107373134D01*
X134821869Y-107376529D01*
X134821869Y-107376533D01*
X134825656Y-107411393D01*
X134825656Y-107438606D01*
X134821500Y-107476866D01*
X134821500Y-107773134D01*
X134821869Y-107776529D01*
X134821869Y-107776533D01*
X134825656Y-107811393D01*
X134825656Y-107838606D01*
X134821500Y-107876866D01*
X134821500Y-108173134D01*
X134821869Y-108176528D01*
X134821869Y-108176533D01*
X134825656Y-108211393D01*
X134825656Y-108238607D01*
X134822481Y-108267839D01*
X134821500Y-108276866D01*
X134821500Y-108573134D01*
X134821869Y-108576529D01*
X134821869Y-108576533D01*
X134825656Y-108611393D01*
X134825656Y-108638606D01*
X134821500Y-108676866D01*
X134821500Y-108973134D01*
X134821869Y-108976529D01*
X134821869Y-108976533D01*
X134825656Y-109011393D01*
X134825656Y-109038607D01*
X134822355Y-109068998D01*
X134821500Y-109076866D01*
X134821500Y-109373134D01*
X134821869Y-109376528D01*
X134821869Y-109376533D01*
X134825656Y-109411393D01*
X134825656Y-109438606D01*
X134821500Y-109476866D01*
X134821500Y-109773134D01*
X134821869Y-109776529D01*
X134821869Y-109776533D01*
X134825656Y-109811393D01*
X134825656Y-109838606D01*
X134821500Y-109876866D01*
X134821500Y-110173134D01*
X134821869Y-110176529D01*
X134821869Y-110176533D01*
X134825656Y-110211393D01*
X134825656Y-110238606D01*
X134821500Y-110276866D01*
X134821500Y-110573134D01*
X134825909Y-110613720D01*
X134825909Y-110640933D01*
X134822369Y-110673517D01*
X134822000Y-110680327D01*
X134822001Y-110969670D01*
X134822370Y-110976488D01*
X134825909Y-111009067D01*
X134825909Y-111036280D01*
X134821500Y-111076866D01*
X134821500Y-111373134D01*
X134828255Y-111435316D01*
X134879385Y-111571705D01*
X134966739Y-111688261D01*
X134973919Y-111693642D01*
X134980269Y-111699992D01*
X134977856Y-111702405D01*
X135010485Y-111746039D01*
X135015514Y-111816857D01*
X134981457Y-111879152D01*
X134919127Y-111913145D01*
X134892407Y-111916011D01*
X133387593Y-111916011D01*
X133319472Y-111896009D01*
X133272979Y-111842353D01*
X133262875Y-111772079D01*
X133292369Y-111707499D01*
X133300067Y-111700328D01*
X133299731Y-111699992D01*
X133306081Y-111693642D01*
X133313261Y-111688261D01*
X133400615Y-111571705D01*
X133451745Y-111435316D01*
X133458500Y-111373134D01*
X133458500Y-111076866D01*
X133454344Y-111038606D01*
X133454344Y-111011393D01*
X133458131Y-110976533D01*
X133458131Y-110976529D01*
X133458500Y-110973134D01*
X133458500Y-110676866D01*
X133454344Y-110638606D01*
X133454344Y-110611393D01*
X133458131Y-110576533D01*
X133458131Y-110576528D01*
X133458500Y-110573134D01*
X133458500Y-110276866D01*
X133454344Y-110238606D01*
X133454344Y-110211393D01*
X133458131Y-110176533D01*
X133458131Y-110176529D01*
X133458500Y-110173134D01*
X133458500Y-109876866D01*
X133454344Y-109838606D01*
X133454344Y-109811393D01*
X133458131Y-109776533D01*
X133458131Y-109776529D01*
X133458500Y-109773134D01*
X133458500Y-109476866D01*
X133454344Y-109438606D01*
X133454344Y-109411393D01*
X133458131Y-109376533D01*
X133458131Y-109376528D01*
X133458500Y-109373134D01*
X133458500Y-109076866D01*
X133457646Y-109068998D01*
X133454344Y-109038607D01*
X133454344Y-109011393D01*
X133458131Y-108976533D01*
X133458131Y-108976529D01*
X133458500Y-108973134D01*
X133458500Y-108676866D01*
X133454344Y-108638606D01*
X133454344Y-108611393D01*
X133458131Y-108576533D01*
X133458131Y-108576529D01*
X133458500Y-108573134D01*
X133458500Y-108276866D01*
X133457520Y-108267839D01*
X133454344Y-108238607D01*
X133454344Y-108211393D01*
X133458131Y-108176533D01*
X133458131Y-108176528D01*
X133458500Y-108173134D01*
X133458500Y-107876866D01*
X133454344Y-107838606D01*
X133454344Y-107811393D01*
X133458131Y-107776533D01*
X133458131Y-107776529D01*
X133458500Y-107773134D01*
X133458500Y-107476866D01*
X133454344Y-107438606D01*
X133454344Y-107411393D01*
X133458131Y-107376533D01*
X133458131Y-107376529D01*
X133458500Y-107373134D01*
X133458500Y-107076866D01*
X133454344Y-107038606D01*
X133454344Y-107011393D01*
X133458131Y-106976533D01*
X133458131Y-106976528D01*
X133458500Y-106973134D01*
X133458500Y-106676866D01*
X133454344Y-106638606D01*
X133454344Y-106611393D01*
X133458131Y-106576533D01*
X133458131Y-106576529D01*
X133458500Y-106573134D01*
X133458500Y-106276866D01*
X133456295Y-106256562D01*
X133454344Y-106238607D01*
X133454344Y-106211393D01*
X133458131Y-106176533D01*
X133458131Y-106176529D01*
X133458500Y-106173134D01*
X133458500Y-105876866D01*
X133454091Y-105836280D01*
X133454091Y-105809067D01*
X133457631Y-105776483D01*
X133458000Y-105769673D01*
X133457999Y-105480330D01*
X133457630Y-105473509D01*
X133454091Y-105440930D01*
X133454091Y-105413716D01*
X133454344Y-105411393D01*
X133458500Y-105373134D01*
X133458500Y-105076866D01*
X133454344Y-105038606D01*
X133454344Y-105011393D01*
X133458131Y-104976533D01*
X133458131Y-104976529D01*
X133458500Y-104973134D01*
X133458500Y-104676866D01*
X133454091Y-104636280D01*
X133454091Y-104609065D01*
X133457631Y-104576481D01*
X133458000Y-104569673D01*
X133457999Y-104280330D01*
X133457630Y-104273509D01*
X133454091Y-104240929D01*
X133454091Y-104213720D01*
X133458500Y-104173134D01*
X133458500Y-103876866D01*
X133454344Y-103838606D01*
X133454344Y-103811393D01*
X133458131Y-103776533D01*
X133458131Y-103776529D01*
X133458500Y-103773134D01*
X133458500Y-103476866D01*
X133454091Y-103436280D01*
X133454091Y-103409065D01*
X133457631Y-103376481D01*
X133458000Y-103369673D01*
X133457999Y-103080330D01*
X133457630Y-103073509D01*
X133454091Y-103040929D01*
X133454091Y-103013720D01*
X133458500Y-102973134D01*
X133458500Y-102676866D01*
X133454344Y-102638606D01*
X133454344Y-102611393D01*
X133458131Y-102576533D01*
X133458131Y-102576529D01*
X133458500Y-102573134D01*
X133458500Y-102276866D01*
X133454091Y-102236280D01*
X133454091Y-102209067D01*
X133457631Y-102176483D01*
X133458000Y-102169673D01*
X133457999Y-101880330D01*
X133457630Y-101873509D01*
X133454091Y-101840930D01*
X133454091Y-101813716D01*
X133454344Y-101811393D01*
X133458500Y-101773134D01*
X133458500Y-101476866D01*
X133454344Y-101438606D01*
X133454344Y-101411393D01*
X133458131Y-101376533D01*
X133458131Y-101376528D01*
X133458500Y-101373134D01*
X133458500Y-101076866D01*
X133454344Y-101038606D01*
X133454344Y-101011393D01*
X133458131Y-100976533D01*
X133458131Y-100976528D01*
X133458500Y-100973134D01*
X133458500Y-100676866D01*
X133454344Y-100638606D01*
X133454344Y-100611393D01*
X133458131Y-100576533D01*
X133458131Y-100576529D01*
X133458500Y-100573134D01*
X133458500Y-100276866D01*
X133454091Y-100236280D01*
X133454091Y-100209065D01*
X133457631Y-100176481D01*
X133458000Y-100169673D01*
X133457999Y-99880330D01*
X133457630Y-99873509D01*
X133454091Y-99840929D01*
X133454091Y-99813720D01*
X133458500Y-99773134D01*
X133458500Y-99476866D01*
X133454344Y-99438606D01*
X133454344Y-99411393D01*
X133458131Y-99376533D01*
X133458131Y-99376528D01*
X133458500Y-99373134D01*
X133458500Y-99076866D01*
X133454344Y-99038606D01*
X133454344Y-99011393D01*
X133458131Y-98976533D01*
X133458131Y-98976529D01*
X133458500Y-98973134D01*
X133458500Y-98676866D01*
X133454344Y-98638606D01*
X133454344Y-98611393D01*
X133458131Y-98576533D01*
X133458131Y-98576528D01*
X133458500Y-98573134D01*
X133458500Y-98276866D01*
X133454091Y-98236280D01*
X133454091Y-98209065D01*
X133457631Y-98176481D01*
X133458000Y-98169673D01*
X133457999Y-97880330D01*
X133457630Y-97873509D01*
X133454091Y-97840929D01*
X133454091Y-97813720D01*
X133458500Y-97773134D01*
X133458500Y-97476866D01*
X133458072Y-97472921D01*
X133454344Y-97438607D01*
X133454344Y-97411393D01*
X133458131Y-97376533D01*
X133458131Y-97376528D01*
X133458500Y-97373134D01*
X133458500Y-97076866D01*
X133457361Y-97066375D01*
X133454344Y-97038607D01*
X133454344Y-97011393D01*
X133458131Y-96976533D01*
X133458131Y-96976529D01*
X133458500Y-96973134D01*
X133458500Y-96676866D01*
X133454344Y-96638606D01*
X133454344Y-96611393D01*
X133458131Y-96576533D01*
X133458131Y-96576529D01*
X133458500Y-96573134D01*
X133458500Y-96276866D01*
X133454091Y-96236280D01*
X133454091Y-96209067D01*
X133457631Y-96176483D01*
X133458000Y-96169673D01*
X133457999Y-95880330D01*
X133457630Y-95873509D01*
X133454091Y-95840929D01*
X133454091Y-95813720D01*
X133458500Y-95773134D01*
X133458500Y-95476866D01*
X133457361Y-95466375D01*
X133455307Y-95447469D01*
X133454344Y-95438606D01*
X133454344Y-95411393D01*
X133458131Y-95376533D01*
X133458131Y-95376528D01*
X133458500Y-95373134D01*
X133458500Y-95076866D01*
X133454344Y-95038606D01*
X133454344Y-95011393D01*
X133458131Y-94976533D01*
X133458131Y-94976528D01*
X133458500Y-94973134D01*
X133458500Y-94676866D01*
X133456547Y-94658882D01*
X133454344Y-94638607D01*
X133454344Y-94611393D01*
X133458131Y-94576533D01*
X133458131Y-94576529D01*
X133458500Y-94573134D01*
X133458500Y-94276866D01*
X133454091Y-94236280D01*
X133454091Y-94209065D01*
X133457631Y-94176481D01*
X133458000Y-94169673D01*
X133457999Y-93880330D01*
X133457630Y-93873509D01*
X133454091Y-93840929D01*
X133454091Y-93813720D01*
X133458500Y-93773134D01*
X133458500Y-93476866D01*
X133454344Y-93438606D01*
X133454344Y-93411393D01*
X133458131Y-93376533D01*
X133458131Y-93376529D01*
X133458500Y-93373134D01*
X133458500Y-93076866D01*
X133454091Y-93036280D01*
X133454091Y-93009065D01*
X133457631Y-92976481D01*
X133458000Y-92969673D01*
X133457999Y-92680330D01*
X133457630Y-92673509D01*
X133454091Y-92640929D01*
X133454091Y-92613720D01*
X133458500Y-92573134D01*
X133458500Y-92276866D01*
X133454344Y-92238606D01*
X133454344Y-92211393D01*
X133458131Y-92176533D01*
X133458131Y-92176529D01*
X133458500Y-92173134D01*
X133458500Y-91959989D01*
X133478502Y-91891868D01*
X133532158Y-91845375D01*
X133584500Y-91833989D01*
X134695500Y-91833989D01*
X134763621Y-91853991D01*
G37*
%TD.AperFunction*%
%TA.AperFunction,Conductor*%
G36*
X142093307Y-108234578D02*
G01*
X142125000Y-108238750D01*
X142125001Y-108238750D01*
X142124784Y-108240398D01*
X142183621Y-108257674D01*
X142230114Y-108311330D01*
X142241500Y-108363672D01*
X142241500Y-109945761D01*
X142221498Y-110013882D01*
X142204595Y-110034856D01*
X141684856Y-110554595D01*
X141622544Y-110588621D01*
X141595761Y-110591500D01*
X138329239Y-110591500D01*
X138261118Y-110571498D01*
X138240144Y-110554595D01*
X138183407Y-110497858D01*
X138149381Y-110435546D01*
X138154446Y-110364731D01*
X138196993Y-110307895D01*
X138263513Y-110283084D01*
X138278749Y-110283338D01*
X138279513Y-110283500D01*
X138470487Y-110283500D01*
X138476939Y-110282128D01*
X138476944Y-110282128D01*
X138563888Y-110263647D01*
X138657288Y-110243794D01*
X138663319Y-110241109D01*
X138825722Y-110168803D01*
X138825724Y-110168802D01*
X138831752Y-110166118D01*
X138845186Y-110156358D01*
X138917010Y-110104174D01*
X138986253Y-110053866D01*
X139006923Y-110030910D01*
X139109621Y-109916852D01*
X139109622Y-109916851D01*
X139114040Y-109911944D01*
X139209527Y-109746556D01*
X139268542Y-109564928D01*
X139278151Y-109473509D01*
X139287814Y-109381565D01*
X139288504Y-109375000D01*
X139280985Y-109303459D01*
X139269232Y-109191635D01*
X139269232Y-109191633D01*
X139268542Y-109185072D01*
X139209527Y-109003444D01*
X139192028Y-108973134D01*
X139117341Y-108843774D01*
X139114040Y-108838056D01*
X139081301Y-108801695D01*
X138990675Y-108701045D01*
X138990674Y-108701044D01*
X138986253Y-108696134D01*
X138870950Y-108612361D01*
X138837094Y-108587763D01*
X138837093Y-108587762D01*
X138831752Y-108583882D01*
X138825726Y-108581199D01*
X138825719Y-108581195D01*
X138675405Y-108514272D01*
X138621309Y-108468292D01*
X138600659Y-108400365D01*
X138620011Y-108332057D01*
X138673222Y-108285055D01*
X138710207Y-108274243D01*
X138750662Y-108268917D01*
X138750663Y-108268917D01*
X138758850Y-108267839D01*
X138818598Y-108243090D01*
X138866814Y-108233500D01*
X142076864Y-108233500D01*
X142093307Y-108234578D01*
G37*
%TD.AperFunction*%
%TA.AperFunction,Conductor*%
G36*
X112059393Y-108313991D02*
G01*
X112105886Y-108367647D01*
X112115990Y-108437921D01*
X112086496Y-108502501D01*
X112080367Y-108509084D01*
X111529121Y-109060330D01*
X111466809Y-109094356D01*
X111405247Y-109092340D01*
X111393617Y-109089000D01*
X109947000Y-109089000D01*
X109878879Y-109068998D01*
X109832386Y-109015342D01*
X109821000Y-108963000D01*
X109821000Y-108707000D01*
X109841002Y-108638879D01*
X109894658Y-108592386D01*
X109947000Y-108581000D01*
X111393344Y-108581000D01*
X111406875Y-108577027D01*
X111408180Y-108567947D01*
X111378726Y-108450685D01*
X111381530Y-108379743D01*
X111422243Y-108321580D01*
X111487938Y-108294661D01*
X111500930Y-108293989D01*
X111991272Y-108293989D01*
X112059393Y-108313991D01*
G37*
%TD.AperFunction*%
%TA.AperFunction,Conductor*%
G36*
X131683621Y-105853502D02*
G01*
X131730114Y-105907158D01*
X131741500Y-105959500D01*
X131741500Y-106173134D01*
X131741869Y-106176529D01*
X131741869Y-106176533D01*
X131745656Y-106211393D01*
X131745656Y-106238607D01*
X131743706Y-106256562D01*
X131741500Y-106276866D01*
X131741500Y-106573134D01*
X131741869Y-106576529D01*
X131741869Y-106576533D01*
X131745656Y-106611393D01*
X131745656Y-106638606D01*
X131741500Y-106676866D01*
X131741500Y-106834995D01*
X131721498Y-106903116D01*
X131667842Y-106949609D01*
X131597568Y-106959713D01*
X131532988Y-106930219D01*
X131506381Y-106897995D01*
X131469768Y-106834580D01*
X131414040Y-106738056D01*
X131382151Y-106702639D01*
X131290675Y-106601045D01*
X131290674Y-106601044D01*
X131286253Y-106596134D01*
X131131752Y-106483882D01*
X131125724Y-106481198D01*
X131125722Y-106481197D01*
X130963319Y-106408891D01*
X130963318Y-106408891D01*
X130957288Y-106406206D01*
X130863888Y-106386353D01*
X130776944Y-106367872D01*
X130776939Y-106367872D01*
X130770487Y-106366500D01*
X130579513Y-106366500D01*
X130573061Y-106367872D01*
X130573056Y-106367872D01*
X130486112Y-106386353D01*
X130392712Y-106406206D01*
X130386682Y-106408891D01*
X130386681Y-106408891D01*
X130224278Y-106481197D01*
X130224276Y-106481198D01*
X130218248Y-106483882D01*
X130063747Y-106596134D01*
X130059326Y-106601044D01*
X130059325Y-106601045D01*
X129967850Y-106702639D01*
X129935960Y-106738056D01*
X129840473Y-106903444D01*
X129838433Y-106909724D01*
X129838432Y-106909725D01*
X129812373Y-106989926D01*
X129772299Y-107048531D01*
X129706903Y-107076168D01*
X129692540Y-107076989D01*
X124726423Y-107076989D01*
X124658302Y-107056987D01*
X124611809Y-107003331D01*
X124601705Y-106933057D01*
X124617304Y-106887989D01*
X124626208Y-106872568D01*
X124684527Y-106771556D01*
X124743542Y-106589928D01*
X124745667Y-106569716D01*
X124762814Y-106406565D01*
X124763504Y-106400000D01*
X124762372Y-106389226D01*
X124775145Y-106319388D01*
X124798586Y-106286963D01*
X125215143Y-105870405D01*
X125277456Y-105836380D01*
X125304239Y-105833500D01*
X131615500Y-105833500D01*
X131683621Y-105853502D01*
G37*
%TD.AperFunction*%
%TA.AperFunction,Conductor*%
G36*
X114229552Y-99778502D02*
G01*
X114276045Y-99832158D01*
X114284970Y-99886830D01*
X114287186Y-99886830D01*
X114287186Y-99893435D01*
X114286496Y-99900000D01*
X114306458Y-100089928D01*
X114365473Y-100271556D01*
X114368776Y-100277278D01*
X114368777Y-100277279D01*
X114370512Y-100280284D01*
X114460960Y-100436944D01*
X114465378Y-100441851D01*
X114465379Y-100441852D01*
X114560041Y-100546985D01*
X114588747Y-100578866D01*
X114640546Y-100616500D01*
X114718954Y-100673467D01*
X114743248Y-100691118D01*
X114749276Y-100693802D01*
X114749278Y-100693803D01*
X114811222Y-100721382D01*
X114917712Y-100768794D01*
X115011113Y-100788647D01*
X115098056Y-100807128D01*
X115098061Y-100807128D01*
X115104513Y-100808500D01*
X115295487Y-100808500D01*
X115301939Y-100807128D01*
X115301944Y-100807128D01*
X115388888Y-100788647D01*
X115482288Y-100768794D01*
X115588778Y-100721382D01*
X115650722Y-100693803D01*
X115650724Y-100693802D01*
X115656752Y-100691118D01*
X115681047Y-100673467D01*
X115804875Y-100583500D01*
X115811253Y-100578866D01*
X115837074Y-100550189D01*
X115897520Y-100512950D01*
X115930710Y-100508500D01*
X119670761Y-100508500D01*
X119738882Y-100528502D01*
X119759856Y-100545405D01*
X124200356Y-104985905D01*
X124234382Y-105048217D01*
X124229317Y-105119032D01*
X124200356Y-105164095D01*
X123909856Y-105454595D01*
X123847544Y-105488621D01*
X123820761Y-105491500D01*
X123754513Y-105491500D01*
X123748061Y-105492872D01*
X123748056Y-105492872D01*
X123661113Y-105511353D01*
X123567712Y-105531206D01*
X123561682Y-105533891D01*
X123561681Y-105533891D01*
X123399278Y-105606197D01*
X123399276Y-105606198D01*
X123393248Y-105608882D01*
X123387907Y-105612762D01*
X123387906Y-105612763D01*
X123369171Y-105626375D01*
X123238747Y-105721134D01*
X123234326Y-105726044D01*
X123234325Y-105726045D01*
X123130880Y-105840933D01*
X123110960Y-105863056D01*
X123102987Y-105876866D01*
X123033884Y-105996556D01*
X123015473Y-106028444D01*
X122956458Y-106210072D01*
X122955768Y-106216633D01*
X122955768Y-106216635D01*
X122943910Y-106329459D01*
X122936496Y-106400000D01*
X122937186Y-106406565D01*
X122954334Y-106569716D01*
X122956458Y-106589928D01*
X123015473Y-106771556D01*
X123073793Y-106872568D01*
X123082696Y-106887989D01*
X123099434Y-106956984D01*
X123076214Y-107024076D01*
X123020407Y-107067963D01*
X122973577Y-107076989D01*
X120090645Y-107076989D01*
X120022524Y-107056987D01*
X119976031Y-107003331D01*
X119965927Y-106933057D01*
X119995421Y-106868477D01*
X120042427Y-106834580D01*
X120061876Y-106826524D01*
X120086033Y-106807988D01*
X120157072Y-106753477D01*
X120157075Y-106753474D01*
X120182434Y-106734015D01*
X120188987Y-106728987D01*
X120194017Y-106722432D01*
X120208452Y-106703621D01*
X120219319Y-106691230D01*
X120340144Y-106570405D01*
X120402456Y-106536379D01*
X120429239Y-106533500D01*
X120520487Y-106533500D01*
X120526939Y-106532128D01*
X120526944Y-106532128D01*
X120613887Y-106513647D01*
X120707288Y-106493794D01*
X120713319Y-106491109D01*
X120875722Y-106418803D01*
X120875724Y-106418802D01*
X120881752Y-106416118D01*
X120903937Y-106400000D01*
X121001027Y-106329459D01*
X121036253Y-106303866D01*
X121063624Y-106273467D01*
X121159621Y-106166852D01*
X121159622Y-106166851D01*
X121164040Y-106161944D01*
X121237569Y-106034588D01*
X121256223Y-106002279D01*
X121256224Y-106002278D01*
X121259527Y-105996556D01*
X121318542Y-105814928D01*
X121323299Y-105769673D01*
X121337814Y-105631565D01*
X121338504Y-105625000D01*
X121322582Y-105473509D01*
X121319232Y-105441635D01*
X121319232Y-105441633D01*
X121318542Y-105435072D01*
X121259527Y-105253444D01*
X121164040Y-105088056D01*
X121153965Y-105076866D01*
X121040675Y-104951045D01*
X121040674Y-104951044D01*
X121036253Y-104946134D01*
X120881752Y-104833882D01*
X120875724Y-104831198D01*
X120875722Y-104831197D01*
X120713319Y-104758891D01*
X120713318Y-104758891D01*
X120707288Y-104756206D01*
X120613887Y-104736353D01*
X120526944Y-104717872D01*
X120526939Y-104717872D01*
X120520487Y-104716500D01*
X120329513Y-104716500D01*
X120323061Y-104717872D01*
X120323056Y-104717872D01*
X120236113Y-104736353D01*
X120142712Y-104756206D01*
X120136682Y-104758891D01*
X120136681Y-104758891D01*
X119974278Y-104831197D01*
X119974276Y-104831198D01*
X119968248Y-104833882D01*
X119813747Y-104946134D01*
X119809326Y-104951044D01*
X119809325Y-104951045D01*
X119696036Y-105076866D01*
X119685960Y-105088056D01*
X119590473Y-105253444D01*
X119531458Y-105435072D01*
X119530768Y-105441633D01*
X119530768Y-105441635D01*
X119527418Y-105473509D01*
X119517098Y-105571705D01*
X119516891Y-105573670D01*
X119489878Y-105639327D01*
X119431656Y-105679957D01*
X119391581Y-105686500D01*
X118203239Y-105686500D01*
X118135118Y-105666498D01*
X118088625Y-105612842D01*
X118078521Y-105542568D01*
X118108015Y-105477988D01*
X118114144Y-105471405D01*
X118540144Y-105045405D01*
X118602456Y-105011379D01*
X118629239Y-105008500D01*
X118720487Y-105008500D01*
X118726939Y-105007128D01*
X118726944Y-105007128D01*
X118813888Y-104988647D01*
X118907288Y-104968794D01*
X118913319Y-104966109D01*
X119075722Y-104893803D01*
X119075724Y-104893802D01*
X119081752Y-104891118D01*
X119236253Y-104778866D01*
X119256656Y-104756206D01*
X119359621Y-104641852D01*
X119359622Y-104641851D01*
X119364040Y-104636944D01*
X119459527Y-104471556D01*
X119518542Y-104289928D01*
X119519429Y-104281495D01*
X119537814Y-104106565D01*
X119538504Y-104100000D01*
X119530621Y-104025000D01*
X119519232Y-103916635D01*
X119519232Y-103916633D01*
X119518542Y-103910072D01*
X119459527Y-103728444D01*
X119448294Y-103708987D01*
X119378689Y-103588429D01*
X119364040Y-103563056D01*
X119254077Y-103440929D01*
X119240675Y-103426045D01*
X119240674Y-103426044D01*
X119236253Y-103421134D01*
X119091139Y-103315702D01*
X119087094Y-103312763D01*
X119087093Y-103312762D01*
X119081752Y-103308882D01*
X119075724Y-103306198D01*
X119075722Y-103306197D01*
X118913319Y-103233891D01*
X118913318Y-103233891D01*
X118907288Y-103231206D01*
X118813888Y-103211353D01*
X118726944Y-103192872D01*
X118726939Y-103192872D01*
X118720487Y-103191500D01*
X118529513Y-103191500D01*
X118523061Y-103192872D01*
X118523056Y-103192872D01*
X118436113Y-103211353D01*
X118342712Y-103231206D01*
X118336682Y-103233891D01*
X118336681Y-103233891D01*
X118174278Y-103306197D01*
X118174276Y-103306198D01*
X118168248Y-103308882D01*
X118162907Y-103312762D01*
X118162906Y-103312763D01*
X118158861Y-103315702D01*
X118013747Y-103421134D01*
X118009326Y-103426044D01*
X118009325Y-103426045D01*
X117995924Y-103440929D01*
X117885960Y-103563056D01*
X117871311Y-103588429D01*
X117801707Y-103708987D01*
X117790473Y-103728444D01*
X117731458Y-103910072D01*
X117730768Y-103916633D01*
X117730768Y-103916635D01*
X117719379Y-104025000D01*
X117711496Y-104100000D01*
X117711684Y-104101786D01*
X117692184Y-104168196D01*
X117675281Y-104189170D01*
X117364367Y-104500084D01*
X117302055Y-104534110D01*
X117275272Y-104536989D01*
X111406779Y-104536989D01*
X111338658Y-104516987D01*
X111292165Y-104463331D01*
X111282061Y-104393057D01*
X111293822Y-104355162D01*
X111297442Y-104347838D01*
X111342430Y-104256811D01*
X111407370Y-104043069D01*
X111436529Y-103821590D01*
X111437713Y-103773134D01*
X111438074Y-103758365D01*
X111438074Y-103758361D01*
X111438156Y-103755000D01*
X111419852Y-103532361D01*
X111365431Y-103315702D01*
X111276354Y-103110840D01*
X111187268Y-102973134D01*
X111157822Y-102927617D01*
X111157820Y-102927614D01*
X111155014Y-102923277D01*
X111004670Y-102758051D01*
X111000619Y-102754852D01*
X111000615Y-102754848D01*
X110833414Y-102622800D01*
X110833410Y-102622798D01*
X110829359Y-102619598D01*
X110788053Y-102596796D01*
X110738084Y-102546364D01*
X110723312Y-102476921D01*
X110748428Y-102410516D01*
X110775780Y-102383909D01*
X110819603Y-102352650D01*
X110954860Y-102256173D01*
X110970154Y-102240933D01*
X111109435Y-102102137D01*
X111113096Y-102098489D01*
X111171177Y-102017661D01*
X111240435Y-101921277D01*
X111243453Y-101917077D01*
X111261615Y-101880330D01*
X111340136Y-101721453D01*
X111340137Y-101721451D01*
X111342430Y-101716811D01*
X111407370Y-101503069D01*
X111436529Y-101281590D01*
X111438156Y-101215000D01*
X111419852Y-100992361D01*
X111365431Y-100775702D01*
X111304140Y-100634743D01*
X111295319Y-100564296D01*
X111325986Y-100500264D01*
X111386402Y-100462976D01*
X111419689Y-100458500D01*
X111701864Y-100458500D01*
X111718307Y-100459578D01*
X111750000Y-100463750D01*
X111758189Y-100462672D01*
X111789874Y-100458501D01*
X111789884Y-100458500D01*
X111789885Y-100458500D01*
X111896226Y-100444500D01*
X111900664Y-100443916D01*
X111900666Y-100443916D01*
X111908851Y-100442838D01*
X112056876Y-100381524D01*
X112088657Y-100357138D01*
X112152072Y-100308477D01*
X112152075Y-100308474D01*
X112177434Y-100289015D01*
X112183987Y-100283987D01*
X112192058Y-100273469D01*
X112203452Y-100258621D01*
X112214319Y-100246230D01*
X112665144Y-99795405D01*
X112727456Y-99761379D01*
X112754239Y-99758500D01*
X114161431Y-99758500D01*
X114229552Y-99778502D01*
G37*
%TD.AperFunction*%
%TA.AperFunction,Conductor*%
G36*
X141517012Y-96003015D02*
G01*
X141523595Y-96009144D01*
X141679595Y-96165144D01*
X141713621Y-96227456D01*
X141716500Y-96254239D01*
X141716500Y-106890500D01*
X141696498Y-106958621D01*
X141642842Y-107005114D01*
X141590500Y-107016500D01*
X138748239Y-107016500D01*
X138680118Y-106996498D01*
X138633625Y-106942842D01*
X138623521Y-106872568D01*
X138653015Y-106807988D01*
X138659144Y-106801405D01*
X141096234Y-104364315D01*
X141108625Y-104353448D01*
X141127437Y-104339013D01*
X141133987Y-104333987D01*
X141158474Y-104302075D01*
X141158480Y-104302069D01*
X141226496Y-104213429D01*
X141226497Y-104213427D01*
X141231524Y-104206876D01*
X141292838Y-104058851D01*
X141297294Y-104025000D01*
X141308500Y-103939885D01*
X141308500Y-103939880D01*
X141313750Y-103900000D01*
X141309578Y-103868307D01*
X141308500Y-103851864D01*
X141308500Y-96098239D01*
X141328502Y-96030118D01*
X141382158Y-95983625D01*
X141452432Y-95973521D01*
X141517012Y-96003015D01*
G37*
%TD.AperFunction*%
%TA.AperFunction,Conductor*%
G36*
X136751708Y-92508235D02*
G01*
X140054595Y-95811122D01*
X140088621Y-95873434D01*
X140091500Y-95900217D01*
X140091500Y-103595761D01*
X140071498Y-103663882D01*
X140054595Y-103684856D01*
X137159856Y-106579595D01*
X137097544Y-106613621D01*
X137070761Y-106616500D01*
X136664500Y-106616500D01*
X136596379Y-106596498D01*
X136549886Y-106542842D01*
X136538500Y-106490500D01*
X136538500Y-106276866D01*
X136534091Y-106236280D01*
X136534091Y-106209065D01*
X136537631Y-106176481D01*
X136538000Y-106169673D01*
X136537999Y-105880330D01*
X136537630Y-105873509D01*
X136534091Y-105840929D01*
X136534091Y-105813720D01*
X136538500Y-105773134D01*
X136538500Y-105476866D01*
X136534344Y-105438606D01*
X136534344Y-105411393D01*
X136538131Y-105376533D01*
X136538131Y-105376528D01*
X136538500Y-105373134D01*
X136538500Y-105076866D01*
X136534344Y-105038606D01*
X136534344Y-105011393D01*
X136538131Y-104976533D01*
X136538131Y-104976529D01*
X136538500Y-104973134D01*
X136538500Y-104676866D01*
X136534091Y-104636280D01*
X136534091Y-104609065D01*
X136537631Y-104576481D01*
X136538000Y-104569673D01*
X136537999Y-104280330D01*
X136537630Y-104273509D01*
X136534091Y-104240929D01*
X136534091Y-104213720D01*
X136538500Y-104173134D01*
X136538500Y-103876866D01*
X136534344Y-103838606D01*
X136534344Y-103811393D01*
X136538131Y-103776533D01*
X136538131Y-103776529D01*
X136538500Y-103773134D01*
X136538500Y-103476866D01*
X136534091Y-103436280D01*
X136534091Y-103409065D01*
X136537631Y-103376481D01*
X136538000Y-103369673D01*
X136537999Y-103080330D01*
X136537630Y-103073509D01*
X136534091Y-103040929D01*
X136534091Y-103013720D01*
X136538500Y-102973134D01*
X136538500Y-102676866D01*
X136534344Y-102638606D01*
X136534344Y-102611393D01*
X136538131Y-102576533D01*
X136538131Y-102576529D01*
X136538500Y-102573134D01*
X136538500Y-102276866D01*
X136534344Y-102238606D01*
X136534344Y-102211393D01*
X136538131Y-102176533D01*
X136538131Y-102176528D01*
X136538500Y-102173134D01*
X136538500Y-101876866D01*
X136534091Y-101836280D01*
X136534091Y-101809065D01*
X136537631Y-101776481D01*
X136538000Y-101769673D01*
X136537999Y-101480330D01*
X136537630Y-101473509D01*
X136534091Y-101440929D01*
X136534091Y-101413720D01*
X136538500Y-101373134D01*
X136538500Y-101076866D01*
X136534344Y-101038606D01*
X136534344Y-101011393D01*
X136538131Y-100976533D01*
X136538131Y-100976528D01*
X136538500Y-100973134D01*
X136538500Y-100676866D01*
X136534344Y-100638606D01*
X136534344Y-100611393D01*
X136538131Y-100576533D01*
X136538131Y-100576529D01*
X136538500Y-100573134D01*
X136538500Y-100276866D01*
X136537241Y-100265271D01*
X136534344Y-100238607D01*
X136534344Y-100211393D01*
X136538131Y-100176533D01*
X136538131Y-100176529D01*
X136538500Y-100173134D01*
X136538500Y-99876866D01*
X136534091Y-99836280D01*
X136534091Y-99809065D01*
X136537631Y-99776481D01*
X136538000Y-99769673D01*
X136537999Y-99480330D01*
X136537630Y-99473509D01*
X136534091Y-99440929D01*
X136534091Y-99413720D01*
X136538500Y-99373134D01*
X136538500Y-99076866D01*
X136534344Y-99038606D01*
X136534344Y-99011393D01*
X136538131Y-98976533D01*
X136538131Y-98976529D01*
X136538500Y-98973134D01*
X136538500Y-98676866D01*
X136534344Y-98638606D01*
X136534344Y-98611393D01*
X136538131Y-98576533D01*
X136538131Y-98576528D01*
X136538500Y-98573134D01*
X136538500Y-98276866D01*
X136534344Y-98238606D01*
X136534344Y-98211393D01*
X136538131Y-98176533D01*
X136538131Y-98176529D01*
X136538500Y-98173134D01*
X136538500Y-97876866D01*
X136534091Y-97836280D01*
X136534091Y-97809065D01*
X136537631Y-97776481D01*
X136538000Y-97769673D01*
X136537999Y-97480330D01*
X136537630Y-97473509D01*
X136534091Y-97440929D01*
X136534091Y-97413720D01*
X136538500Y-97373134D01*
X136538500Y-97159500D01*
X136558502Y-97091379D01*
X136612158Y-97044886D01*
X136664500Y-97033500D01*
X137345761Y-97033500D01*
X137413882Y-97053502D01*
X137434856Y-97070405D01*
X137904595Y-97540144D01*
X137938621Y-97602456D01*
X137941500Y-97629239D01*
X137941500Y-98616528D01*
X137921498Y-98684649D01*
X137866748Y-98731635D01*
X137699281Y-98806195D01*
X137699274Y-98806199D01*
X137693248Y-98808882D01*
X137687907Y-98812762D01*
X137687906Y-98812763D01*
X137637843Y-98849136D01*
X137538747Y-98921134D01*
X137534326Y-98926044D01*
X137534325Y-98926045D01*
X137435066Y-99036284D01*
X137410960Y-99063056D01*
X137315473Y-99228444D01*
X137256458Y-99410072D01*
X137255768Y-99416633D01*
X137255768Y-99416635D01*
X137241872Y-99548853D01*
X137236496Y-99600000D01*
X137237186Y-99606565D01*
X137255050Y-99776528D01*
X137256458Y-99789928D01*
X137315473Y-99971556D01*
X137318776Y-99977278D01*
X137318777Y-99977279D01*
X137331031Y-99998504D01*
X137410960Y-100136944D01*
X137415378Y-100141851D01*
X137415379Y-100141852D01*
X137533890Y-100273472D01*
X137538747Y-100278866D01*
X137552716Y-100289015D01*
X137673123Y-100376496D01*
X137693248Y-100391118D01*
X137699276Y-100393802D01*
X137699278Y-100393803D01*
X137854644Y-100462976D01*
X137867712Y-100468794D01*
X137961113Y-100488647D01*
X138048056Y-100507128D01*
X138048061Y-100507128D01*
X138054513Y-100508500D01*
X138245487Y-100508500D01*
X138251939Y-100507128D01*
X138251944Y-100507128D01*
X138338888Y-100488647D01*
X138432288Y-100468794D01*
X138445356Y-100462976D01*
X138600722Y-100393803D01*
X138600724Y-100393802D01*
X138606752Y-100391118D01*
X138626878Y-100376496D01*
X138747284Y-100289015D01*
X138761253Y-100278866D01*
X138766110Y-100273472D01*
X138884621Y-100141852D01*
X138884622Y-100141851D01*
X138889040Y-100136944D01*
X138968969Y-99998504D01*
X138981223Y-99977279D01*
X138981224Y-99977278D01*
X138984527Y-99971556D01*
X139043542Y-99789928D01*
X139044951Y-99776528D01*
X139062814Y-99606565D01*
X139063504Y-99600000D01*
X139062999Y-99595196D01*
X139079132Y-99534991D01*
X139081524Y-99531875D01*
X139084683Y-99524248D01*
X139084686Y-99524243D01*
X139107654Y-99468791D01*
X139109249Y-99465109D01*
X139137408Y-99402882D01*
X139138659Y-99395284D01*
X139138713Y-99395081D01*
X139139829Y-99391168D01*
X139139889Y-99390969D01*
X139142838Y-99383850D01*
X139151752Y-99316143D01*
X139152345Y-99312136D01*
X139162089Y-99252940D01*
X139163431Y-99244788D01*
X139159113Y-99201156D01*
X139158500Y-99188747D01*
X139158500Y-97373134D01*
X139159578Y-97356687D01*
X139159600Y-97356524D01*
X139163750Y-97325000D01*
X139158500Y-97285122D01*
X139158500Y-97285115D01*
X139142838Y-97166150D01*
X139105855Y-97076866D01*
X139085076Y-97026700D01*
X139085076Y-97026699D01*
X139081524Y-97018125D01*
X139081524Y-97018124D01*
X139008477Y-96922928D01*
X139008474Y-96922925D01*
X138983987Y-96891013D01*
X138977432Y-96885983D01*
X138958621Y-96871548D01*
X138946230Y-96860681D01*
X138114315Y-96028766D01*
X138103448Y-96016375D01*
X138089013Y-95997563D01*
X138083987Y-95991013D01*
X138052075Y-95966526D01*
X138052072Y-95966523D01*
X137988213Y-95917522D01*
X137963429Y-95898504D01*
X137963427Y-95898503D01*
X137956876Y-95893476D01*
X137808851Y-95832162D01*
X137800664Y-95831084D01*
X137800663Y-95831084D01*
X137778178Y-95828124D01*
X137689893Y-95816501D01*
X137689891Y-95816501D01*
X137689885Y-95816500D01*
X137689883Y-95816500D01*
X137689874Y-95816499D01*
X137658189Y-95812328D01*
X137650000Y-95811250D01*
X137618307Y-95815422D01*
X137601864Y-95816500D01*
X136664000Y-95816500D01*
X136595879Y-95796498D01*
X136549386Y-95742842D01*
X136538000Y-95690501D01*
X136537999Y-95480330D01*
X136537630Y-95473509D01*
X136534091Y-95440929D01*
X136534091Y-95413720D01*
X136538500Y-95373134D01*
X136538500Y-95076866D01*
X136534344Y-95038606D01*
X136534344Y-95011393D01*
X136538131Y-94976533D01*
X136538131Y-94976528D01*
X136538500Y-94973134D01*
X136538500Y-94676866D01*
X136536547Y-94658882D01*
X136534344Y-94638607D01*
X136534344Y-94611393D01*
X136538131Y-94576533D01*
X136538131Y-94576529D01*
X136538500Y-94573134D01*
X136538500Y-94276866D01*
X136534091Y-94236280D01*
X136534091Y-94209065D01*
X136537631Y-94176481D01*
X136538000Y-94169673D01*
X136537999Y-93880330D01*
X136537630Y-93873509D01*
X136534091Y-93840929D01*
X136534091Y-93813720D01*
X136538500Y-93773134D01*
X136538500Y-93476866D01*
X136534344Y-93438606D01*
X136534344Y-93411393D01*
X136538131Y-93376533D01*
X136538131Y-93376529D01*
X136538500Y-93373134D01*
X136538500Y-93076866D01*
X136534091Y-93036280D01*
X136534091Y-93009065D01*
X136537631Y-92976481D01*
X136538000Y-92969673D01*
X136537999Y-92680330D01*
X136537630Y-92673509D01*
X136534091Y-92640929D01*
X136534091Y-92613720D01*
X136537350Y-92583720D01*
X136564594Y-92518158D01*
X136622957Y-92477733D01*
X136693912Y-92475279D01*
X136751708Y-92508235D01*
G37*
%TD.AperFunction*%
%TA.AperFunction,Conductor*%
G36*
X131683621Y-91853991D02*
G01*
X131730114Y-91907647D01*
X131741500Y-91959989D01*
X131741500Y-92173134D01*
X131741869Y-92176529D01*
X131741869Y-92176533D01*
X131745656Y-92211393D01*
X131745656Y-92238606D01*
X131741500Y-92276866D01*
X131741500Y-92573134D01*
X131745909Y-92613720D01*
X131745909Y-92640933D01*
X131742369Y-92673517D01*
X131742000Y-92680327D01*
X131742001Y-92969670D01*
X131742370Y-92976488D01*
X131745909Y-93009067D01*
X131745909Y-93036280D01*
X131741500Y-93076866D01*
X131741500Y-93373134D01*
X131741869Y-93376529D01*
X131741869Y-93376533D01*
X131745656Y-93411393D01*
X131745656Y-93438606D01*
X131741500Y-93476866D01*
X131741500Y-93773134D01*
X131745909Y-93813720D01*
X131745909Y-93840933D01*
X131742369Y-93873517D01*
X131742000Y-93880327D01*
X131742001Y-94169670D01*
X131742370Y-94176488D01*
X131745909Y-94209067D01*
X131745909Y-94236280D01*
X131741500Y-94276866D01*
X131741500Y-94573134D01*
X131741869Y-94576529D01*
X131741869Y-94576533D01*
X131745656Y-94611393D01*
X131745656Y-94638607D01*
X131743454Y-94658882D01*
X131741500Y-94676866D01*
X131741500Y-94973134D01*
X131741869Y-94976528D01*
X131741869Y-94976533D01*
X131745656Y-95011393D01*
X131745656Y-95038606D01*
X131741500Y-95076866D01*
X131741500Y-95373134D01*
X131741869Y-95376528D01*
X131741869Y-95376533D01*
X131745656Y-95411393D01*
X131745656Y-95438606D01*
X131744693Y-95447469D01*
X131742640Y-95466375D01*
X131741500Y-95476866D01*
X131741500Y-95773134D01*
X131745909Y-95813720D01*
X131745909Y-95840933D01*
X131742369Y-95873517D01*
X131742000Y-95880327D01*
X131742001Y-96090499D01*
X131721999Y-96158620D01*
X131668344Y-96205113D01*
X131616001Y-96216500D01*
X131129239Y-96216500D01*
X131061118Y-96196498D01*
X131040144Y-96179595D01*
X130399719Y-95539170D01*
X130365693Y-95476858D01*
X130363159Y-95453284D01*
X130363504Y-95450000D01*
X130359193Y-95408987D01*
X130344232Y-95266635D01*
X130344232Y-95266633D01*
X130343542Y-95260072D01*
X130284527Y-95078444D01*
X130189040Y-94913056D01*
X130145000Y-94864144D01*
X130065675Y-94776045D01*
X130065674Y-94776044D01*
X130061253Y-94771134D01*
X129931505Y-94676866D01*
X129912094Y-94662763D01*
X129912093Y-94662762D01*
X129906752Y-94658882D01*
X129900724Y-94656198D01*
X129900722Y-94656197D01*
X129738319Y-94583891D01*
X129738318Y-94583891D01*
X129732288Y-94581206D01*
X129638888Y-94561353D01*
X129551944Y-94542872D01*
X129551939Y-94542872D01*
X129545487Y-94541500D01*
X129354513Y-94541500D01*
X129348061Y-94542872D01*
X129348056Y-94542872D01*
X129261113Y-94561353D01*
X129167712Y-94581206D01*
X129161682Y-94583891D01*
X129161681Y-94583891D01*
X128999278Y-94656197D01*
X128999276Y-94656198D01*
X128993248Y-94658882D01*
X128987907Y-94662762D01*
X128987906Y-94662763D01*
X128968495Y-94676866D01*
X128838747Y-94771134D01*
X128834326Y-94776044D01*
X128834325Y-94776045D01*
X128755001Y-94864144D01*
X128710960Y-94913056D01*
X128615473Y-95078444D01*
X128556458Y-95260072D01*
X128555768Y-95266633D01*
X128555768Y-95266635D01*
X128540807Y-95408987D01*
X128536496Y-95450000D01*
X128537186Y-95456565D01*
X128550641Y-95584578D01*
X128556458Y-95639928D01*
X128615473Y-95821556D01*
X128710960Y-95986944D01*
X128715378Y-95991851D01*
X128715379Y-95991852D01*
X128834325Y-96123955D01*
X128838747Y-96128866D01*
X128904286Y-96176483D01*
X128971064Y-96225000D01*
X128993248Y-96241118D01*
X128999276Y-96243802D01*
X128999278Y-96243803D01*
X129081313Y-96280327D01*
X129167712Y-96318794D01*
X129261112Y-96338647D01*
X129348056Y-96357128D01*
X129348061Y-96357128D01*
X129354513Y-96358500D01*
X129445761Y-96358500D01*
X129513882Y-96378502D01*
X129534856Y-96395405D01*
X130360685Y-97221234D01*
X130371552Y-97233625D01*
X130391013Y-97258987D01*
X130397563Y-97264013D01*
X130422921Y-97283471D01*
X130422937Y-97283485D01*
X130472305Y-97321366D01*
X130518124Y-97356524D01*
X130666149Y-97417838D01*
X130825000Y-97438751D01*
X130856699Y-97434578D01*
X130873144Y-97433500D01*
X131615500Y-97433500D01*
X131683621Y-97453502D01*
X131730114Y-97507158D01*
X131741500Y-97559500D01*
X131741500Y-97773134D01*
X131745909Y-97813720D01*
X131745909Y-97840933D01*
X131742369Y-97873517D01*
X131742000Y-97880327D01*
X131742001Y-98169670D01*
X131742370Y-98176488D01*
X131745909Y-98209067D01*
X131745909Y-98236280D01*
X131741500Y-98276866D01*
X131741500Y-98573134D01*
X131741869Y-98576528D01*
X131741869Y-98576533D01*
X131745656Y-98611393D01*
X131745656Y-98638606D01*
X131741500Y-98676866D01*
X131741500Y-98973134D01*
X131741869Y-98976529D01*
X131741869Y-98976533D01*
X131745656Y-99011393D01*
X131745656Y-99038606D01*
X131741500Y-99076866D01*
X131741500Y-99373134D01*
X131741869Y-99376528D01*
X131741869Y-99376533D01*
X131745656Y-99411393D01*
X131745656Y-99438606D01*
X131741500Y-99476866D01*
X131741500Y-99773134D01*
X131745909Y-99813720D01*
X131745909Y-99840933D01*
X131742369Y-99873517D01*
X131742000Y-99880327D01*
X131742001Y-100169670D01*
X131742370Y-100176488D01*
X131745909Y-100209067D01*
X131745909Y-100236280D01*
X131741500Y-100276866D01*
X131741500Y-100451761D01*
X131721498Y-100519882D01*
X131667842Y-100566375D01*
X131597568Y-100576479D01*
X131532988Y-100546985D01*
X131526405Y-100540856D01*
X131249719Y-100264170D01*
X131215693Y-100201858D01*
X131213159Y-100178284D01*
X131213504Y-100175000D01*
X131212814Y-100168435D01*
X131194232Y-99991635D01*
X131194232Y-99991633D01*
X131193542Y-99985072D01*
X131134527Y-99803444D01*
X131117028Y-99773134D01*
X131075876Y-99701858D01*
X131039040Y-99638056D01*
X131027285Y-99625000D01*
X130915675Y-99501045D01*
X130915674Y-99501044D01*
X130911253Y-99496134D01*
X130812157Y-99424136D01*
X130762094Y-99387763D01*
X130762093Y-99387762D01*
X130756752Y-99383882D01*
X130750724Y-99381198D01*
X130750722Y-99381197D01*
X130588319Y-99308891D01*
X130588318Y-99308891D01*
X130582288Y-99306206D01*
X130488887Y-99286353D01*
X130401944Y-99267872D01*
X130401939Y-99267872D01*
X130395487Y-99266500D01*
X130204513Y-99266500D01*
X130198061Y-99267872D01*
X130198056Y-99267872D01*
X130111112Y-99286353D01*
X130017712Y-99306206D01*
X130011682Y-99308891D01*
X130011681Y-99308891D01*
X129849278Y-99381197D01*
X129849276Y-99381198D01*
X129843248Y-99383882D01*
X129837907Y-99387762D01*
X129837906Y-99387763D01*
X129787843Y-99424136D01*
X129688747Y-99496134D01*
X129684326Y-99501044D01*
X129684325Y-99501045D01*
X129572716Y-99625000D01*
X129560960Y-99638056D01*
X129524124Y-99701858D01*
X129482973Y-99773134D01*
X129465473Y-99803444D01*
X129440507Y-99880283D01*
X129436684Y-99892048D01*
X129396611Y-99950654D01*
X129331214Y-99978291D01*
X129261257Y-99966184D01*
X129227756Y-99942207D01*
X129049719Y-99764170D01*
X129015693Y-99701858D01*
X129013159Y-99678284D01*
X129013504Y-99675000D01*
X129004931Y-99593435D01*
X128994232Y-99491635D01*
X128994232Y-99491633D01*
X128993542Y-99485072D01*
X128934527Y-99303444D01*
X128913990Y-99267872D01*
X128871895Y-99194962D01*
X128839040Y-99138056D01*
X128780889Y-99073472D01*
X128715675Y-99001045D01*
X128715674Y-99001044D01*
X128711253Y-98996134D01*
X128556752Y-98883882D01*
X128550724Y-98881198D01*
X128550722Y-98881197D01*
X128388319Y-98808891D01*
X128388318Y-98808891D01*
X128382288Y-98806206D01*
X128288888Y-98786353D01*
X128201944Y-98767872D01*
X128201939Y-98767872D01*
X128195487Y-98766500D01*
X128004513Y-98766500D01*
X127998061Y-98767872D01*
X127998056Y-98767872D01*
X127911112Y-98786353D01*
X127817712Y-98806206D01*
X127811682Y-98808891D01*
X127811681Y-98808891D01*
X127649278Y-98881197D01*
X127649276Y-98881198D01*
X127643248Y-98883882D01*
X127488747Y-98996134D01*
X127484326Y-99001044D01*
X127484325Y-99001045D01*
X127419112Y-99073472D01*
X127360960Y-99138056D01*
X127328105Y-99194962D01*
X127286011Y-99267872D01*
X127265473Y-99303444D01*
X127206458Y-99485072D01*
X127205768Y-99491633D01*
X127205768Y-99491635D01*
X127195069Y-99593435D01*
X127186496Y-99675000D01*
X127187186Y-99681565D01*
X127203936Y-99840929D01*
X127206458Y-99864928D01*
X127265473Y-100046556D01*
X127268776Y-100052278D01*
X127268777Y-100052279D01*
X127290514Y-100089928D01*
X127360960Y-100211944D01*
X127365378Y-100216851D01*
X127365379Y-100216852D01*
X127484325Y-100348955D01*
X127488747Y-100353866D01*
X127643248Y-100466118D01*
X127649276Y-100468802D01*
X127649278Y-100468803D01*
X127783365Y-100528502D01*
X127817712Y-100543794D01*
X127824167Y-100545166D01*
X127824176Y-100545169D01*
X127914160Y-100564296D01*
X127976633Y-100598024D01*
X128010954Y-100660174D01*
X128006226Y-100731013D01*
X127962024Y-100789477D01*
X127901247Y-100833634D01*
X127773460Y-100975556D01*
X127770161Y-100981269D01*
X127770158Y-100981274D01*
X127704630Y-101094772D01*
X127653247Y-101143765D01*
X127583533Y-101157201D01*
X127517623Y-101130814D01*
X127506416Y-101120867D01*
X126514315Y-100128766D01*
X126503448Y-100116375D01*
X126489013Y-100097563D01*
X126483987Y-100091013D01*
X126452075Y-100066526D01*
X126452072Y-100066523D01*
X126356876Y-99993476D01*
X126208851Y-99932162D01*
X126200664Y-99931084D01*
X126200663Y-99931084D01*
X126189458Y-99929609D01*
X126158262Y-99925502D01*
X126089885Y-99916500D01*
X126089882Y-99916500D01*
X126089874Y-99916499D01*
X126058189Y-99912328D01*
X126050000Y-99911250D01*
X126018307Y-99915422D01*
X126001864Y-99916500D01*
X124954239Y-99916500D01*
X124886118Y-99896498D01*
X124865144Y-99879595D01*
X123494202Y-98508653D01*
X123482004Y-98492756D01*
X123481524Y-98493125D01*
X123416858Y-98408851D01*
X123408477Y-98397928D01*
X123408474Y-98397925D01*
X123383987Y-98366013D01*
X123377432Y-98360983D01*
X123358621Y-98346548D01*
X123346230Y-98335681D01*
X122864315Y-97853766D01*
X122853448Y-97841375D01*
X122839013Y-97822563D01*
X122833987Y-97816013D01*
X122802075Y-97791526D01*
X122802072Y-97791523D01*
X122773593Y-97769670D01*
X122713429Y-97723504D01*
X122713427Y-97723503D01*
X122706876Y-97718476D01*
X122558851Y-97657162D01*
X122550664Y-97656084D01*
X122550663Y-97656084D01*
X122539458Y-97654609D01*
X122508262Y-97650502D01*
X122439885Y-97641500D01*
X122439882Y-97641500D01*
X122439874Y-97641499D01*
X122408189Y-97637328D01*
X122400000Y-97636250D01*
X122368307Y-97640422D01*
X122351864Y-97641500D01*
X112204239Y-97641500D01*
X112136118Y-97621498D01*
X112115144Y-97604595D01*
X111589315Y-97078766D01*
X111578448Y-97066375D01*
X111564013Y-97047563D01*
X111558987Y-97041013D01*
X111527075Y-97016526D01*
X111527072Y-97016523D01*
X111520387Y-97011393D01*
X111438429Y-96948504D01*
X111438427Y-96948503D01*
X111431876Y-96943476D01*
X111356219Y-96912138D01*
X111300938Y-96867590D01*
X111278517Y-96800226D01*
X111291479Y-96739903D01*
X111324311Y-96673472D01*
X111342430Y-96636811D01*
X111407370Y-96423069D01*
X111436529Y-96201590D01*
X111436611Y-96198240D01*
X111438074Y-96138365D01*
X111438074Y-96138361D01*
X111438156Y-96135000D01*
X111419852Y-95912361D01*
X111376607Y-95740196D01*
X111379411Y-95669254D01*
X111420124Y-95611091D01*
X111485819Y-95584172D01*
X111498811Y-95583500D01*
X127141870Y-95583500D01*
X127158313Y-95584578D01*
X127190006Y-95588750D01*
X127198195Y-95587672D01*
X127229880Y-95583501D01*
X127229890Y-95583500D01*
X127229891Y-95583500D01*
X127329463Y-95570391D01*
X127340670Y-95568916D01*
X127340672Y-95568915D01*
X127348857Y-95567838D01*
X127496882Y-95506524D01*
X127508097Y-95497919D01*
X127592078Y-95433477D01*
X127592081Y-95433474D01*
X127623993Y-95408987D01*
X127629023Y-95402432D01*
X127643458Y-95383621D01*
X127654325Y-95371230D01*
X131154661Y-91870894D01*
X131216973Y-91836868D01*
X131243756Y-91833989D01*
X131615500Y-91833989D01*
X131683621Y-91853991D01*
G37*
%TD.AperFunction*%
%TA.AperFunction,Conductor*%
G36*
X135539371Y-85453991D02*
G01*
X135560345Y-85470894D01*
X142204595Y-92115144D01*
X142238621Y-92177456D01*
X142241500Y-92204239D01*
X142241500Y-94701761D01*
X142221498Y-94769882D01*
X142167842Y-94816375D01*
X142097568Y-94826479D01*
X142032988Y-94796985D01*
X142026405Y-94790856D01*
X137414315Y-90178766D01*
X137403448Y-90166375D01*
X137389013Y-90147563D01*
X137383987Y-90141013D01*
X137352075Y-90116526D01*
X137352072Y-90116523D01*
X137337232Y-90105136D01*
X137263429Y-90048504D01*
X137263427Y-90048503D01*
X137256876Y-90043476D01*
X137108851Y-89982162D01*
X137100664Y-89981084D01*
X137100663Y-89981084D01*
X137089458Y-89979609D01*
X137058262Y-89975502D01*
X136989885Y-89966500D01*
X136989882Y-89966500D01*
X136989874Y-89966499D01*
X136958189Y-89962328D01*
X136950000Y-89961250D01*
X136918307Y-89965422D01*
X136901864Y-89966500D01*
X131073136Y-89966500D01*
X131056693Y-89965422D01*
X131025000Y-89961250D01*
X131016811Y-89962328D01*
X130985126Y-89966499D01*
X130985117Y-89966500D01*
X130985115Y-89966500D01*
X130985109Y-89966501D01*
X130985107Y-89966501D01*
X130885543Y-89979609D01*
X130874336Y-89981084D01*
X130874334Y-89981085D01*
X130866149Y-89982162D01*
X130718124Y-90043476D01*
X130711573Y-90048503D01*
X130711571Y-90048504D01*
X130637768Y-90105136D01*
X130591013Y-90141013D01*
X130585987Y-90147563D01*
X130571548Y-90166380D01*
X130560681Y-90178771D01*
X127789856Y-92949595D01*
X127727544Y-92983621D01*
X127700761Y-92986500D01*
X111367978Y-92986500D01*
X111299857Y-92966498D01*
X111262186Y-92928940D01*
X111257490Y-92921680D01*
X111217124Y-92859284D01*
X111157822Y-92767617D01*
X111157820Y-92767614D01*
X111155014Y-92763277D01*
X111004670Y-92598051D01*
X111000619Y-92594852D01*
X111000615Y-92594848D01*
X110833414Y-92462800D01*
X110833410Y-92462798D01*
X110829359Y-92459598D01*
X110788053Y-92436796D01*
X110738084Y-92386364D01*
X110723312Y-92316921D01*
X110748428Y-92250516D01*
X110775780Y-92223909D01*
X110842199Y-92176533D01*
X110954860Y-92096173D01*
X111113096Y-91938489D01*
X111146597Y-91891868D01*
X111240435Y-91761277D01*
X111243453Y-91757077D01*
X111264320Y-91714857D01*
X111340136Y-91561453D01*
X111340137Y-91561451D01*
X111342430Y-91556811D01*
X111407370Y-91343069D01*
X111436529Y-91121590D01*
X111437551Y-91079771D01*
X111438074Y-91058365D01*
X111438074Y-91058361D01*
X111438156Y-91055000D01*
X111419852Y-90832361D01*
X111365431Y-90615702D01*
X111276354Y-90410840D01*
X111155014Y-90223277D01*
X111004670Y-90058051D01*
X111000619Y-90054852D01*
X111000615Y-90054848D01*
X110833414Y-89922800D01*
X110833410Y-89922798D01*
X110829359Y-89919598D01*
X110788053Y-89896796D01*
X110738084Y-89846364D01*
X110723312Y-89776921D01*
X110748428Y-89710516D01*
X110775780Y-89683909D01*
X110819603Y-89652650D01*
X110954860Y-89556173D01*
X111113096Y-89398489D01*
X111172594Y-89315689D01*
X111240435Y-89221277D01*
X111243453Y-89217077D01*
X111264320Y-89174857D01*
X111340136Y-89021453D01*
X111340137Y-89021451D01*
X111342430Y-89016811D01*
X111407370Y-88803069D01*
X111436529Y-88581590D01*
X111438156Y-88515000D01*
X111419852Y-88292361D01*
X111365431Y-88075702D01*
X111276354Y-87870840D01*
X111155014Y-87683277D01*
X111004670Y-87518051D01*
X111000619Y-87514852D01*
X111000615Y-87514848D01*
X110833414Y-87382800D01*
X110833410Y-87382798D01*
X110829359Y-87379598D01*
X110788053Y-87356796D01*
X110738084Y-87306364D01*
X110723312Y-87236921D01*
X110748428Y-87170516D01*
X110775780Y-87143909D01*
X110819603Y-87112650D01*
X110954860Y-87016173D01*
X111113096Y-86858489D01*
X111243453Y-86677077D01*
X111256995Y-86649678D01*
X111340136Y-86481453D01*
X111340137Y-86481451D01*
X111342430Y-86476811D01*
X111407370Y-86263069D01*
X111436529Y-86041590D01*
X111438156Y-85975000D01*
X111419852Y-85752361D01*
X111411975Y-85721000D01*
X111379242Y-85590684D01*
X111382046Y-85519743D01*
X111422759Y-85461580D01*
X111488455Y-85434661D01*
X111501446Y-85433989D01*
X135471250Y-85433989D01*
X135539371Y-85453991D01*
G37*
%TD.AperFunction*%
%TD*%
M02*
