%TF.GenerationSoftware,KiCad,Pcbnew,(6.0.0-0)*%
%TF.CreationDate,2022-03-30T15:47:28-05:00*%
%TF.ProjectId,spacebot-CM4-breakout,73706163-6562-46f7-942d-434d342d6272,rev?*%
%TF.SameCoordinates,Original*%
%TF.FileFunction,Copper,L2,Bot*%
%TF.FilePolarity,Positive*%
%FSLAX46Y46*%
G04 Gerber Fmt 4.6, Leading zero omitted, Abs format (unit mm)*
G04 Created by KiCad (PCBNEW (6.0.0-0)) date 2022-03-30 15:47:28*
%MOMM*%
%LPD*%
G01*
G04 APERTURE LIST*
%TA.AperFunction,ComponentPad*%
%ADD10R,1.700000X1.700000*%
%TD*%
%TA.AperFunction,ComponentPad*%
%ADD11O,1.700000X1.700000*%
%TD*%
%TA.AperFunction,ViaPad*%
%ADD12C,0.800000*%
%TD*%
%TA.AperFunction,Conductor*%
%ADD13C,0.200000*%
%TD*%
G04 APERTURE END LIST*
D10*
%TO.P,J1,1,Pin_1*%
%TO.N,5V*%
X110075000Y-111375000D03*
D11*
%TO.P,J1,2,Pin_2*%
%TO.N,3.3V*%
X107535000Y-111375000D03*
%TO.P,J1,3,Pin_3*%
%TO.N,GND*%
X110075000Y-108835000D03*
%TO.P,J1,4,Pin_4*%
%TO.N,I2S_SD*%
X107535000Y-108835000D03*
%TO.P,J1,5,Pin_5*%
%TO.N,I2S_SCK*%
X110075000Y-106295000D03*
%TO.P,J1,6,Pin_6*%
%TO.N,UART_RX*%
X107535000Y-106295000D03*
%TO.P,J1,7,Pin_7*%
%TO.N,UART_TX*%
X110075000Y-103755000D03*
%TO.P,J1,8,Pin_8*%
%TO.N,SD_CLK*%
X107535000Y-103755000D03*
%TO.P,J1,9,Pin_9*%
%TO.N,SD_DAT3*%
X110075000Y-101215000D03*
%TO.P,J1,10,Pin_10*%
%TO.N,SD_DAT0*%
X107535000Y-101215000D03*
%TO.P,J1,11,Pin_11*%
%TO.N,SD_DAT1*%
X110075000Y-98675000D03*
%TO.P,J1,12,Pin_12*%
%TO.N,SD_DAT2*%
X107535000Y-98675000D03*
%TO.P,J1,13,Pin_13*%
%TO.N,I2S_WS*%
X110075000Y-96135000D03*
%TO.P,J1,14,Pin_14*%
%TO.N,SCL_0*%
X107535000Y-96135000D03*
%TO.P,J1,15,Pin_15*%
%TO.N,SDA_0*%
X110075000Y-93595000D03*
%TO.P,J1,16,Pin_16*%
%TO.N,unconnected-(J1-Pad16)*%
X107535000Y-93595000D03*
%TO.P,J1,17,Pin_17*%
%TO.N,unconnected-(J1-Pad17)*%
X110075000Y-91055000D03*
%TO.P,J1,18,Pin_18*%
%TO.N,unconnected-(J1-Pad18)*%
X107535000Y-91055000D03*
%TO.P,J1,19,Pin_19*%
%TO.N,unconnected-(J1-Pad19)*%
X110075000Y-88515000D03*
%TO.P,J1,20,Pin_20*%
%TO.N,unconnected-(J1-Pad20)*%
X107535000Y-88515000D03*
%TO.P,J1,21,Pin_21*%
%TO.N,unconnected-(J1-Pad21)*%
X110075000Y-85975000D03*
%TO.P,J1,22,Pin_22*%
%TO.N,GND*%
X107535000Y-85975000D03*
%TO.P,J1,23,Pin_23*%
%TO.N,unconnected-(J1-Pad23)*%
X110075000Y-83435000D03*
%TO.P,J1,24,Pin_24*%
%TO.N,1.8V*%
X107535000Y-83435000D03*
%TD*%
D12*
%TO.N,GND*%
X168070000Y-111560000D03*
X113190000Y-102360000D03*
X121560000Y-103920000D03*
X118180000Y-101620000D03*
X128330000Y-106460000D03*
X141210000Y-109390000D03*
X141480000Y-100390000D03*
X141010000Y-92130000D03*
X120920000Y-88900000D03*
X133950000Y-87610000D03*
X130650000Y-93520000D03*
X137210000Y-93950000D03*
X137570000Y-101590000D03*
X130200000Y-98020000D03*
X129570000Y-110620000D03*
X137470000Y-106110000D03*
X125970000Y-110780000D03*
X134115000Y-113375000D03*
X134190000Y-111820000D03*
%TO.N,UART_RX*%
X118625000Y-104100000D03*
X128100000Y-99675000D03*
%TO.N,I2S_SCK*%
X120425000Y-105625000D03*
X130300000Y-100175000D03*
%TO.N,UART_TX*%
X128512500Y-101512500D03*
%TO.N,SD_DAT1*%
X115200000Y-99900000D03*
%TO.N,SD_DAT2*%
X123850000Y-106400000D03*
%TO.N,I2S_WS*%
X138150000Y-99600000D03*
%TO.N,I2S_SD*%
X129450000Y-95450000D03*
X130675000Y-107275000D03*
%TO.N,3.3V*%
X137600000Y-112275000D03*
X138375000Y-109375000D03*
%TD*%
D13*
%TO.N,GND*%
X134115000Y-113375000D02*
X134100000Y-113390000D01*
X134190000Y-113300000D02*
X134115000Y-113375000D01*
X134190000Y-111820000D02*
X134190000Y-113300000D01*
%TO.N,UART_RX*%
X123050000Y-99675000D02*
X118625000Y-104100000D01*
X128100000Y-99675000D02*
X123050000Y-99675000D01*
%TO.N,I2S_SCK*%
X123410741Y-105625000D02*
X120425000Y-105625000D01*
X128860741Y-100175000D02*
X123410741Y-105625000D01*
X130300000Y-100175000D02*
X128860741Y-100175000D01*
%TO.N,UART_TX*%
X128512500Y-101512500D02*
X128512500Y-102726759D01*
X117574511Y-107099511D02*
X114230000Y-103755000D01*
X114230000Y-103755000D02*
X110075000Y-103755000D01*
X128512500Y-102726759D02*
X124139748Y-107099511D01*
X124139748Y-107099511D02*
X117574511Y-107099511D01*
%TO.N,SD_DAT1*%
X115200000Y-99900000D02*
X113975000Y-98675000D01*
X113975000Y-98675000D02*
X110075000Y-98675000D01*
%TO.N,SD_DAT2*%
X107535000Y-98675000D02*
X108684511Y-99824511D01*
X108684511Y-99824511D02*
X112849511Y-99824511D01*
X112849511Y-99824511D02*
X119425000Y-106400000D01*
X119425000Y-106400000D02*
X123850000Y-106400000D01*
%TO.N,I2S_WS*%
X134850000Y-96300000D02*
X120025000Y-96300000D01*
X138150000Y-99600000D02*
X134850000Y-96300000D01*
X119860000Y-96135000D02*
X110075000Y-96135000D01*
X120025000Y-96300000D02*
X119860000Y-96135000D01*
%TO.N,I2S_SD*%
X136325000Y-95450000D02*
X129450000Y-95450000D01*
X139425000Y-98550000D02*
X136325000Y-95450000D01*
X137375000Y-104725000D02*
X139425000Y-102675000D01*
X139425000Y-102675000D02*
X139425000Y-98550000D01*
X134825000Y-107275000D02*
X137375000Y-104725000D01*
X130675000Y-107275000D02*
X134825000Y-107275000D01*
%TO.N,3.3V*%
X138375000Y-111500000D02*
X137600000Y-112275000D01*
X138375000Y-109375000D02*
X138375000Y-111500000D01*
%TD*%
%TA.AperFunction,Conductor*%
%TO.N,GND*%
G36*
X167970057Y-71509500D02*
G01*
X167984858Y-71511805D01*
X167984861Y-71511805D01*
X167993730Y-71513186D01*
X168002631Y-71512022D01*
X168002635Y-71512022D01*
X168012411Y-71510743D01*
X168035343Y-71509852D01*
X168306149Y-71524044D01*
X168319265Y-71525422D01*
X168615550Y-71572349D01*
X168628450Y-71575091D01*
X168918205Y-71652731D01*
X168930742Y-71656805D01*
X169178762Y-71752011D01*
X169210787Y-71764304D01*
X169222835Y-71769668D01*
X169490117Y-71905855D01*
X169501538Y-71912449D01*
X169753121Y-72075828D01*
X169763791Y-72083581D01*
X169996908Y-72272355D01*
X170006709Y-72281180D01*
X170218820Y-72493291D01*
X170227645Y-72503092D01*
X170416419Y-72736209D01*
X170424172Y-72746879D01*
X170587551Y-72998462D01*
X170594145Y-73009883D01*
X170730332Y-73277165D01*
X170735696Y-73289213D01*
X170832395Y-73541121D01*
X170843193Y-73569251D01*
X170847269Y-73581794D01*
X170861176Y-73633697D01*
X170924909Y-73871550D01*
X170927651Y-73884450D01*
X170974578Y-74180735D01*
X170975956Y-74193851D01*
X170980981Y-74289729D01*
X170989764Y-74457330D01*
X170988436Y-74483312D01*
X170988195Y-74484856D01*
X170988195Y-74484860D01*
X170986814Y-74493730D01*
X170987978Y-74502632D01*
X170987978Y-74502635D01*
X170990936Y-74525251D01*
X170992000Y-74541589D01*
X170992000Y-122950672D01*
X170990500Y-122970056D01*
X170986814Y-122993730D01*
X170987978Y-123002631D01*
X170987978Y-123002635D01*
X170989257Y-123012411D01*
X170990148Y-123035343D01*
X170980399Y-123221378D01*
X170975956Y-123306148D01*
X170974578Y-123319265D01*
X170927651Y-123615550D01*
X170924909Y-123628450D01*
X170847269Y-123918205D01*
X170843195Y-123930742D01*
X170778986Y-124098013D01*
X170735696Y-124210787D01*
X170730332Y-124222835D01*
X170594145Y-124490117D01*
X170587551Y-124501538D01*
X170424172Y-124753121D01*
X170416419Y-124763791D01*
X170227645Y-124996908D01*
X170218820Y-125006709D01*
X170006709Y-125218820D01*
X169996908Y-125227645D01*
X169809166Y-125379676D01*
X169743640Y-125407001D01*
X169673742Y-125394561D01*
X169621665Y-125346307D01*
X169603943Y-125277558D01*
X169626203Y-125210141D01*
X169645155Y-125188488D01*
X169776675Y-125069023D01*
X169779325Y-125066616D01*
X170007753Y-124806143D01*
X170205228Y-124521485D01*
X170369208Y-124216303D01*
X170497587Y-123894519D01*
X170588713Y-123560271D01*
X170625106Y-123323821D01*
X170640874Y-123221378D01*
X170640874Y-123221374D01*
X170641416Y-123217855D01*
X170648587Y-123035343D01*
X170654878Y-122875244D01*
X170654878Y-122875239D01*
X170655018Y-122871674D01*
X170629343Y-122526179D01*
X170564722Y-122185812D01*
X170461986Y-121854947D01*
X170366097Y-121637023D01*
X170323899Y-121541121D01*
X170323897Y-121541116D01*
X170322455Y-121537840D01*
X170147924Y-121238566D01*
X169940636Y-120960973D01*
X169938192Y-120958375D01*
X169938187Y-120958369D01*
X169776107Y-120786074D01*
X169703256Y-120708631D01*
X169438836Y-120484783D01*
X169237311Y-120350128D01*
X169153752Y-120294296D01*
X169153750Y-120294295D01*
X169150775Y-120292307D01*
X169147591Y-120290667D01*
X168845960Y-120135316D01*
X168845955Y-120135314D01*
X168842777Y-120133677D01*
X168839436Y-120132411D01*
X168839431Y-120132409D01*
X168522145Y-120012201D01*
X168522146Y-120012201D01*
X168518801Y-120010934D01*
X168515337Y-120010054D01*
X168515333Y-120010053D01*
X168186481Y-119926535D01*
X168186473Y-119926533D01*
X168183014Y-119925655D01*
X168014221Y-119902683D01*
X167842723Y-119879343D01*
X167842716Y-119879342D01*
X167839730Y-119878936D01*
X167726826Y-119874500D01*
X167512246Y-119874500D01*
X167373025Y-119882406D01*
X167257678Y-119888955D01*
X167257671Y-119888956D01*
X167254110Y-119889158D01*
X166912666Y-119947829D01*
X166909234Y-119948829D01*
X166909231Y-119948830D01*
X166583503Y-120043771D01*
X166583500Y-120043772D01*
X166580059Y-120044775D01*
X166576759Y-120046159D01*
X166576750Y-120046162D01*
X166375062Y-120130737D01*
X166260564Y-120178750D01*
X165958290Y-120348032D01*
X165677122Y-120550444D01*
X165674471Y-120552852D01*
X165674466Y-120552856D01*
X165505515Y-120706321D01*
X165420675Y-120783384D01*
X165192247Y-121043857D01*
X164994772Y-121328515D01*
X164830792Y-121633697D01*
X164702413Y-121955481D01*
X164611287Y-122289729D01*
X164610745Y-122293251D01*
X164574346Y-122529741D01*
X164558584Y-122632145D01*
X164558444Y-122635710D01*
X164545123Y-122974749D01*
X164544982Y-122978326D01*
X164549219Y-123035343D01*
X164569344Y-123306148D01*
X164570657Y-123323821D01*
X164635278Y-123664188D01*
X164738014Y-123995053D01*
X164739455Y-123998327D01*
X164739455Y-123998328D01*
X164835367Y-124216303D01*
X164877545Y-124312160D01*
X165052076Y-124611434D01*
X165259364Y-124889027D01*
X165261808Y-124891625D01*
X165261813Y-124891631D01*
X165360848Y-124996908D01*
X165496744Y-125141369D01*
X165499473Y-125143679D01*
X165738827Y-125346307D01*
X165761164Y-125365217D01*
X165764128Y-125367197D01*
X165764130Y-125367199D01*
X165968450Y-125503721D01*
X166049225Y-125557693D01*
X166052407Y-125559332D01*
X166052409Y-125559333D01*
X166354040Y-125714684D01*
X166354045Y-125714686D01*
X166357223Y-125716323D01*
X166360564Y-125717589D01*
X166360569Y-125717591D01*
X166441290Y-125748173D01*
X166497905Y-125791012D01*
X166522373Y-125857659D01*
X166506924Y-125926955D01*
X166456463Y-125976897D01*
X166396649Y-125992000D01*
X135800833Y-125992000D01*
X135732712Y-125971998D01*
X135686219Y-125918342D01*
X135676115Y-125848068D01*
X135705609Y-125783488D01*
X135752106Y-125749804D01*
X135939436Y-125671250D01*
X136241710Y-125501968D01*
X136522878Y-125299556D01*
X136525529Y-125297148D01*
X136525534Y-125297144D01*
X136776675Y-125069023D01*
X136779325Y-125066616D01*
X137007753Y-124806143D01*
X137205228Y-124521485D01*
X137369208Y-124216303D01*
X137497587Y-123894519D01*
X137588713Y-123560271D01*
X137625106Y-123323821D01*
X137640874Y-123221378D01*
X137640874Y-123221374D01*
X137641416Y-123217855D01*
X137648587Y-123035343D01*
X137654878Y-122875244D01*
X137654878Y-122875239D01*
X137655018Y-122871674D01*
X137629343Y-122526179D01*
X137564722Y-122185812D01*
X137461986Y-121854947D01*
X137366097Y-121637023D01*
X137323899Y-121541121D01*
X137323897Y-121541116D01*
X137322455Y-121537840D01*
X137147924Y-121238566D01*
X136940636Y-120960973D01*
X136938192Y-120958375D01*
X136938187Y-120958369D01*
X136776107Y-120786074D01*
X136703256Y-120708631D01*
X136438836Y-120484783D01*
X136237311Y-120350128D01*
X136153752Y-120294296D01*
X136153750Y-120294295D01*
X136150775Y-120292307D01*
X136147591Y-120290667D01*
X135845960Y-120135316D01*
X135845955Y-120135314D01*
X135842777Y-120133677D01*
X135839436Y-120132411D01*
X135839431Y-120132409D01*
X135522145Y-120012201D01*
X135522146Y-120012201D01*
X135518801Y-120010934D01*
X135515337Y-120010054D01*
X135515333Y-120010053D01*
X135186481Y-119926535D01*
X135186473Y-119926533D01*
X135183014Y-119925655D01*
X135014221Y-119902683D01*
X134842723Y-119879343D01*
X134842716Y-119879342D01*
X134839730Y-119878936D01*
X134726826Y-119874500D01*
X134512246Y-119874500D01*
X134373025Y-119882406D01*
X134257678Y-119888955D01*
X134257671Y-119888956D01*
X134254110Y-119889158D01*
X133912666Y-119947829D01*
X133909234Y-119948829D01*
X133909231Y-119948830D01*
X133583503Y-120043771D01*
X133583500Y-120043772D01*
X133580059Y-120044775D01*
X133576759Y-120046159D01*
X133576750Y-120046162D01*
X133375062Y-120130737D01*
X133260564Y-120178750D01*
X132958290Y-120348032D01*
X132677122Y-120550444D01*
X132674471Y-120552852D01*
X132674466Y-120552856D01*
X132505515Y-120706321D01*
X132420675Y-120783384D01*
X132192247Y-121043857D01*
X131994772Y-121328515D01*
X131830792Y-121633697D01*
X131702413Y-121955481D01*
X131611287Y-122289729D01*
X131610745Y-122293251D01*
X131574346Y-122529741D01*
X131558584Y-122632145D01*
X131558444Y-122635710D01*
X131545123Y-122974749D01*
X131544982Y-122978326D01*
X131549219Y-123035343D01*
X131569344Y-123306148D01*
X131570657Y-123323821D01*
X131635278Y-123664188D01*
X131738014Y-123995053D01*
X131739455Y-123998327D01*
X131739455Y-123998328D01*
X131835367Y-124216303D01*
X131877545Y-124312160D01*
X132052076Y-124611434D01*
X132259364Y-124889027D01*
X132261808Y-124891625D01*
X132261813Y-124891631D01*
X132360848Y-124996908D01*
X132496744Y-125141369D01*
X132499473Y-125143679D01*
X132738827Y-125346307D01*
X132761164Y-125365217D01*
X132764128Y-125367197D01*
X132764130Y-125367199D01*
X132968450Y-125503721D01*
X133049225Y-125557693D01*
X133052407Y-125559332D01*
X133052409Y-125559333D01*
X133354040Y-125714684D01*
X133354045Y-125714686D01*
X133357223Y-125716323D01*
X133360564Y-125717589D01*
X133360569Y-125717591D01*
X133441290Y-125748173D01*
X133497905Y-125791012D01*
X133522373Y-125857659D01*
X133506924Y-125926955D01*
X133456463Y-125976897D01*
X133396649Y-125992000D01*
X107049328Y-125992000D01*
X107029943Y-125990500D01*
X107015142Y-125988195D01*
X107015139Y-125988195D01*
X107006270Y-125986814D01*
X106997369Y-125987978D01*
X106997365Y-125987978D01*
X106987589Y-125989257D01*
X106964657Y-125990148D01*
X106693851Y-125975956D01*
X106680735Y-125974578D01*
X106594010Y-125960842D01*
X106384450Y-125927651D01*
X106371550Y-125924909D01*
X106081795Y-125847269D01*
X106069258Y-125843195D01*
X105789214Y-125735696D01*
X105777165Y-125730332D01*
X105509883Y-125594145D01*
X105498462Y-125587551D01*
X105246879Y-125424172D01*
X105236209Y-125416419D01*
X105003092Y-125227645D01*
X104993291Y-125218820D01*
X104781180Y-125006709D01*
X104772355Y-124996908D01*
X104583581Y-124763791D01*
X104575828Y-124753121D01*
X104412449Y-124501538D01*
X104405855Y-124490117D01*
X104269668Y-124222835D01*
X104264304Y-124210787D01*
X104221014Y-124098013D01*
X104156805Y-123930742D01*
X104152731Y-123918205D01*
X104075091Y-123628450D01*
X104072349Y-123615550D01*
X104025422Y-123319265D01*
X104024044Y-123306148D01*
X104010236Y-123042666D01*
X104011564Y-123016688D01*
X104011805Y-123015144D01*
X104011805Y-123015140D01*
X104013186Y-123006270D01*
X104011547Y-122993730D01*
X104009064Y-122974749D01*
X104008000Y-122958411D01*
X104008000Y-111341695D01*
X106172251Y-111341695D01*
X106172548Y-111346848D01*
X106172548Y-111346851D01*
X106181379Y-111500000D01*
X106185110Y-111564715D01*
X106186247Y-111569761D01*
X106186248Y-111569767D01*
X106208044Y-111666480D01*
X106234222Y-111782639D01*
X106318266Y-111989616D01*
X106434987Y-112180088D01*
X106581250Y-112348938D01*
X106753126Y-112491632D01*
X106946000Y-112604338D01*
X107154692Y-112684030D01*
X107159760Y-112685061D01*
X107159763Y-112685062D01*
X107267017Y-112706883D01*
X107373597Y-112728567D01*
X107378772Y-112728757D01*
X107378774Y-112728757D01*
X107591673Y-112736564D01*
X107591677Y-112736564D01*
X107596837Y-112736753D01*
X107601957Y-112736097D01*
X107601959Y-112736097D01*
X107813288Y-112709025D01*
X107813289Y-112709025D01*
X107818416Y-112708368D01*
X107823366Y-112706883D01*
X108027429Y-112645661D01*
X108027434Y-112645659D01*
X108032384Y-112644174D01*
X108232994Y-112545896D01*
X108414860Y-112416173D01*
X108523091Y-112308319D01*
X108585462Y-112274404D01*
X108656268Y-112279592D01*
X108713030Y-112322238D01*
X108730012Y-112353341D01*
X108774385Y-112471705D01*
X108861739Y-112588261D01*
X108978295Y-112675615D01*
X109114684Y-112726745D01*
X109176866Y-112733500D01*
X110973134Y-112733500D01*
X111035316Y-112726745D01*
X111171705Y-112675615D01*
X111288261Y-112588261D01*
X111375615Y-112471705D01*
X111426745Y-112335316D01*
X111433297Y-112275000D01*
X136686496Y-112275000D01*
X136706458Y-112464928D01*
X136765473Y-112646556D01*
X136860960Y-112811944D01*
X136988747Y-112953866D01*
X137143248Y-113066118D01*
X137149276Y-113068802D01*
X137149278Y-113068803D01*
X137311681Y-113141109D01*
X137317712Y-113143794D01*
X137411113Y-113163647D01*
X137498056Y-113182128D01*
X137498061Y-113182128D01*
X137504513Y-113183500D01*
X137695487Y-113183500D01*
X137701939Y-113182128D01*
X137701944Y-113182128D01*
X137788887Y-113163647D01*
X137882288Y-113143794D01*
X137888319Y-113141109D01*
X138050722Y-113068803D01*
X138050724Y-113068802D01*
X138056752Y-113066118D01*
X138211253Y-112953866D01*
X138339040Y-112811944D01*
X138434527Y-112646556D01*
X138493542Y-112464928D01*
X138513504Y-112275000D01*
X138513316Y-112273214D01*
X138532816Y-112206804D01*
X138549719Y-112185830D01*
X138771234Y-111964315D01*
X138783625Y-111953448D01*
X138802437Y-111939013D01*
X138808987Y-111933987D01*
X138833474Y-111902075D01*
X138833478Y-111902071D01*
X138906524Y-111806876D01*
X138967838Y-111658850D01*
X138988751Y-111500000D01*
X138984578Y-111468301D01*
X138983500Y-111451856D01*
X138983500Y-110105290D01*
X139003502Y-110037169D01*
X139015864Y-110020980D01*
X139109621Y-109916852D01*
X139109622Y-109916851D01*
X139114040Y-109911944D01*
X139209527Y-109746556D01*
X139268542Y-109564928D01*
X139288504Y-109375000D01*
X139283950Y-109331672D01*
X139269232Y-109191635D01*
X139269232Y-109191633D01*
X139268542Y-109185072D01*
X139209527Y-109003444D01*
X139114040Y-108838056D01*
X139081301Y-108801695D01*
X138990675Y-108701045D01*
X138990674Y-108701044D01*
X138986253Y-108696134D01*
X138831752Y-108583882D01*
X138825724Y-108581198D01*
X138825722Y-108581197D01*
X138663319Y-108508891D01*
X138663318Y-108508891D01*
X138657288Y-108506206D01*
X138563888Y-108486353D01*
X138476944Y-108467872D01*
X138476939Y-108467872D01*
X138470487Y-108466500D01*
X138279513Y-108466500D01*
X138273061Y-108467872D01*
X138273056Y-108467872D01*
X138186113Y-108486353D01*
X138092712Y-108506206D01*
X138086682Y-108508891D01*
X138086681Y-108508891D01*
X137924278Y-108581197D01*
X137924276Y-108581198D01*
X137918248Y-108583882D01*
X137763747Y-108696134D01*
X137759326Y-108701044D01*
X137759325Y-108701045D01*
X137668700Y-108801695D01*
X137635960Y-108838056D01*
X137540473Y-109003444D01*
X137481458Y-109185072D01*
X137480768Y-109191633D01*
X137480768Y-109191635D01*
X137466050Y-109331672D01*
X137461496Y-109375000D01*
X137481458Y-109564928D01*
X137540473Y-109746556D01*
X137635960Y-109911944D01*
X137640378Y-109916851D01*
X137640379Y-109916852D01*
X137734136Y-110020980D01*
X137764854Y-110084987D01*
X137766500Y-110105290D01*
X137766500Y-111195761D01*
X137746498Y-111263882D01*
X137729595Y-111284856D01*
X137684856Y-111329595D01*
X137622544Y-111363621D01*
X137595761Y-111366500D01*
X137504513Y-111366500D01*
X137498061Y-111367872D01*
X137498056Y-111367872D01*
X137411113Y-111386353D01*
X137317712Y-111406206D01*
X137311682Y-111408891D01*
X137311681Y-111408891D01*
X137149278Y-111481197D01*
X137149276Y-111481198D01*
X137143248Y-111483882D01*
X137137907Y-111487762D01*
X137137906Y-111487763D01*
X137109794Y-111508188D01*
X136988747Y-111596134D01*
X136860960Y-111738056D01*
X136765473Y-111903444D01*
X136706458Y-112085072D01*
X136705768Y-112091633D01*
X136705768Y-112091635D01*
X136696061Y-112183990D01*
X136686496Y-112275000D01*
X111433297Y-112275000D01*
X111433500Y-112273134D01*
X111433500Y-110476866D01*
X111426745Y-110414684D01*
X111375615Y-110278295D01*
X111288261Y-110161739D01*
X111171705Y-110074385D01*
X111052687Y-110029767D01*
X110995923Y-109987125D01*
X110971223Y-109920564D01*
X110986430Y-109851215D01*
X111007977Y-109822535D01*
X111109052Y-109721812D01*
X111115730Y-109713965D01*
X111240003Y-109541020D01*
X111245313Y-109532183D01*
X111339670Y-109341267D01*
X111343469Y-109331672D01*
X111405377Y-109127910D01*
X111407555Y-109117837D01*
X111408986Y-109106962D01*
X111406775Y-109092778D01*
X111393617Y-109089000D01*
X109947000Y-109089000D01*
X109878879Y-109068998D01*
X109832386Y-109015342D01*
X109821000Y-108963000D01*
X109821000Y-108707000D01*
X109841002Y-108638879D01*
X109894658Y-108592386D01*
X109947000Y-108581000D01*
X111393344Y-108581000D01*
X111406875Y-108577027D01*
X111408180Y-108567947D01*
X111366214Y-108400875D01*
X111362894Y-108391124D01*
X111277972Y-108195814D01*
X111273105Y-108186739D01*
X111157426Y-108007926D01*
X111151136Y-107999757D01*
X111007806Y-107842240D01*
X111000273Y-107835215D01*
X110833139Y-107703222D01*
X110824556Y-107697520D01*
X110787602Y-107677120D01*
X110737631Y-107626687D01*
X110722859Y-107557245D01*
X110747975Y-107490839D01*
X110775327Y-107464232D01*
X110798797Y-107447491D01*
X110954860Y-107336173D01*
X111113096Y-107178489D01*
X111172594Y-107095689D01*
X111240435Y-107001277D01*
X111243453Y-106997077D01*
X111264320Y-106954857D01*
X111340136Y-106801453D01*
X111340137Y-106801451D01*
X111342430Y-106796811D01*
X111394688Y-106624811D01*
X111405865Y-106588023D01*
X111405865Y-106588021D01*
X111407370Y-106583069D01*
X111436529Y-106361590D01*
X111438156Y-106295000D01*
X111419852Y-106072361D01*
X111365431Y-105855702D01*
X111276354Y-105650840D01*
X111217909Y-105560498D01*
X111157822Y-105467617D01*
X111157820Y-105467614D01*
X111155014Y-105463277D01*
X111004670Y-105298051D01*
X111000619Y-105294852D01*
X111000615Y-105294848D01*
X110833414Y-105162800D01*
X110833410Y-105162798D01*
X110829359Y-105159598D01*
X110788053Y-105136796D01*
X110738084Y-105086364D01*
X110723312Y-105016921D01*
X110748428Y-104950516D01*
X110775780Y-104923909D01*
X110827192Y-104887237D01*
X110954860Y-104796173D01*
X111113096Y-104638489D01*
X111172594Y-104555689D01*
X111240435Y-104461277D01*
X111243453Y-104457077D01*
X111255019Y-104433675D01*
X111303132Y-104381467D01*
X111367977Y-104363500D01*
X113925761Y-104363500D01*
X113993882Y-104383502D01*
X114014856Y-104400405D01*
X117110196Y-107495745D01*
X117121063Y-107508136D01*
X117140524Y-107533498D01*
X117147074Y-107538524D01*
X117172432Y-107557982D01*
X117172448Y-107557996D01*
X117216292Y-107591638D01*
X117267635Y-107631035D01*
X117415660Y-107692349D01*
X117423847Y-107693427D01*
X117423848Y-107693427D01*
X117435053Y-107694902D01*
X117466249Y-107699009D01*
X117534626Y-107708011D01*
X117534629Y-107708011D01*
X117534637Y-107708012D01*
X117566322Y-107712183D01*
X117574511Y-107713261D01*
X117606204Y-107709089D01*
X117622647Y-107708011D01*
X124091612Y-107708011D01*
X124108055Y-107709089D01*
X124139748Y-107713261D01*
X124147937Y-107712183D01*
X124179622Y-107708012D01*
X124179632Y-107708011D01*
X124179633Y-107708011D01*
X124179649Y-107708009D01*
X124279205Y-107694902D01*
X124290412Y-107693427D01*
X124290414Y-107693426D01*
X124298599Y-107692349D01*
X124446624Y-107631035D01*
X124453178Y-107626006D01*
X124541817Y-107557991D01*
X124541823Y-107557985D01*
X124567182Y-107538526D01*
X124573735Y-107533498D01*
X124580764Y-107524338D01*
X124593200Y-107508132D01*
X124604067Y-107495741D01*
X128908734Y-103191074D01*
X128921125Y-103180207D01*
X128939937Y-103165772D01*
X128946487Y-103160746D01*
X128970974Y-103128834D01*
X128970980Y-103128828D01*
X129038996Y-103040188D01*
X129038997Y-103040186D01*
X129044024Y-103033635D01*
X129089735Y-102923277D01*
X129105338Y-102885609D01*
X129121000Y-102766644D01*
X129121000Y-102766637D01*
X129126250Y-102726759D01*
X129122078Y-102695066D01*
X129121000Y-102678623D01*
X129121000Y-102242790D01*
X129141002Y-102174669D01*
X129153364Y-102158480D01*
X129247121Y-102054352D01*
X129247122Y-102054351D01*
X129251540Y-102049444D01*
X129309814Y-101948510D01*
X129343723Y-101889779D01*
X129343724Y-101889778D01*
X129347027Y-101884056D01*
X129406042Y-101702428D01*
X129426004Y-101512500D01*
X129424474Y-101497939D01*
X129406732Y-101329135D01*
X129406732Y-101329133D01*
X129406042Y-101322572D01*
X129347027Y-101140944D01*
X129313070Y-101082128D01*
X129251540Y-100975556D01*
X129253285Y-100974548D01*
X129232644Y-100916685D01*
X129248729Y-100847534D01*
X129299646Y-100798057D01*
X129358439Y-100783500D01*
X129569290Y-100783500D01*
X129637411Y-100803502D01*
X129662926Y-100825189D01*
X129683046Y-100847534D01*
X129688747Y-100853866D01*
X129704562Y-100865356D01*
X129802030Y-100936171D01*
X129843248Y-100966118D01*
X129849276Y-100968802D01*
X129849278Y-100968803D01*
X129915941Y-100998483D01*
X130017712Y-101043794D01*
X130111113Y-101063647D01*
X130198056Y-101082128D01*
X130198061Y-101082128D01*
X130204513Y-101083500D01*
X130395487Y-101083500D01*
X130401939Y-101082128D01*
X130401944Y-101082128D01*
X130488887Y-101063647D01*
X130582288Y-101043794D01*
X130684059Y-100998483D01*
X130750722Y-100968803D01*
X130750724Y-100968802D01*
X130756752Y-100966118D01*
X130911253Y-100853866D01*
X131009902Y-100744305D01*
X131034621Y-100716852D01*
X131034622Y-100716851D01*
X131039040Y-100711944D01*
X131134527Y-100546556D01*
X131193542Y-100364928D01*
X131205938Y-100246992D01*
X131212814Y-100181565D01*
X131213504Y-100175000D01*
X131201576Y-100061507D01*
X131194232Y-99991635D01*
X131194232Y-99991633D01*
X131193542Y-99985072D01*
X131134527Y-99803444D01*
X131039040Y-99638056D01*
X131010686Y-99606565D01*
X130915675Y-99501045D01*
X130915674Y-99501044D01*
X130911253Y-99496134D01*
X130756752Y-99383882D01*
X130750724Y-99381198D01*
X130750722Y-99381197D01*
X130588319Y-99308891D01*
X130588318Y-99308891D01*
X130582288Y-99306206D01*
X130481718Y-99284829D01*
X130401944Y-99267872D01*
X130401939Y-99267872D01*
X130395487Y-99266500D01*
X130204513Y-99266500D01*
X130198061Y-99267872D01*
X130198056Y-99267872D01*
X130118282Y-99284829D01*
X130017712Y-99306206D01*
X130011682Y-99308891D01*
X130011681Y-99308891D01*
X129849278Y-99381197D01*
X129849276Y-99381198D01*
X129843248Y-99383882D01*
X129837907Y-99387762D01*
X129837906Y-99387763D01*
X129716887Y-99475689D01*
X129688747Y-99496134D01*
X129684334Y-99501036D01*
X129684332Y-99501037D01*
X129662926Y-99524811D01*
X129602480Y-99562050D01*
X129569290Y-99566500D01*
X129111544Y-99566500D01*
X129043423Y-99546498D01*
X128996930Y-99492842D01*
X128991711Y-99479437D01*
X128953896Y-99363056D01*
X128934527Y-99303444D01*
X128926544Y-99289616D01*
X128842341Y-99143774D01*
X128839040Y-99138056D01*
X128789143Y-99082639D01*
X128715675Y-99001045D01*
X128715674Y-99001044D01*
X128711253Y-98996134D01*
X128556752Y-98883882D01*
X128550724Y-98881198D01*
X128550722Y-98881197D01*
X128388319Y-98808891D01*
X128388318Y-98808891D01*
X128382288Y-98806206D01*
X128288888Y-98786353D01*
X128201944Y-98767872D01*
X128201939Y-98767872D01*
X128195487Y-98766500D01*
X128004513Y-98766500D01*
X127998061Y-98767872D01*
X127998056Y-98767872D01*
X127911112Y-98786353D01*
X127817712Y-98806206D01*
X127811682Y-98808891D01*
X127811681Y-98808891D01*
X127649278Y-98881197D01*
X127649276Y-98881198D01*
X127643248Y-98883882D01*
X127488747Y-98996134D01*
X127484334Y-99001036D01*
X127484332Y-99001037D01*
X127462926Y-99024811D01*
X127402480Y-99062050D01*
X127369290Y-99066500D01*
X123098136Y-99066500D01*
X123081693Y-99065422D01*
X123050000Y-99061250D01*
X123041811Y-99062328D01*
X123010126Y-99066499D01*
X123010117Y-99066500D01*
X123010115Y-99066500D01*
X123010109Y-99066501D01*
X123010107Y-99066501D01*
X122910543Y-99079609D01*
X122899336Y-99081084D01*
X122899334Y-99081085D01*
X122891149Y-99082162D01*
X122743124Y-99143476D01*
X122647928Y-99216523D01*
X122647925Y-99216526D01*
X122616013Y-99241013D01*
X122610983Y-99247568D01*
X122596548Y-99266379D01*
X122585681Y-99278770D01*
X118709856Y-103154595D01*
X118647544Y-103188621D01*
X118620761Y-103191500D01*
X118529513Y-103191500D01*
X118523061Y-103192872D01*
X118523056Y-103192872D01*
X118436113Y-103211353D01*
X118342712Y-103231206D01*
X118336682Y-103233891D01*
X118336681Y-103233891D01*
X118174278Y-103306197D01*
X118174276Y-103306198D01*
X118168248Y-103308882D01*
X118162907Y-103312762D01*
X118162906Y-103312763D01*
X118112843Y-103349136D01*
X118013747Y-103421134D01*
X118009326Y-103426044D01*
X118009325Y-103426045D01*
X117938498Y-103504707D01*
X117885960Y-103563056D01*
X117807979Y-103698123D01*
X117756598Y-103747115D01*
X117686884Y-103760551D01*
X117620973Y-103734165D01*
X117609766Y-103724217D01*
X114884032Y-100998483D01*
X114850006Y-100936171D01*
X114855071Y-100865356D01*
X114897618Y-100808520D01*
X114964138Y-100783709D01*
X114999322Y-100786141D01*
X115034019Y-100793516D01*
X115098056Y-100807128D01*
X115098061Y-100807128D01*
X115104513Y-100808500D01*
X115295487Y-100808500D01*
X115301939Y-100807128D01*
X115301944Y-100807128D01*
X115400677Y-100786141D01*
X115482288Y-100768794D01*
X115488319Y-100766109D01*
X115650722Y-100693803D01*
X115650724Y-100693802D01*
X115656752Y-100691118D01*
X115811253Y-100578866D01*
X115840508Y-100546375D01*
X115934621Y-100441852D01*
X115934622Y-100441851D01*
X115939040Y-100436944D01*
X116034527Y-100271556D01*
X116093542Y-100089928D01*
X116113504Y-99900000D01*
X116093542Y-99710072D01*
X116034527Y-99528444D01*
X115939040Y-99363056D01*
X115890037Y-99308632D01*
X115815675Y-99226045D01*
X115815674Y-99226044D01*
X115811253Y-99221134D01*
X115656752Y-99108882D01*
X115650724Y-99106198D01*
X115650722Y-99106197D01*
X115488319Y-99033891D01*
X115488318Y-99033891D01*
X115482288Y-99031206D01*
X115388888Y-99011353D01*
X115301944Y-98992872D01*
X115301939Y-98992872D01*
X115295487Y-98991500D01*
X115204239Y-98991500D01*
X115136118Y-98971498D01*
X115115144Y-98954595D01*
X114439315Y-98278766D01*
X114428448Y-98266375D01*
X114414013Y-98247563D01*
X114408987Y-98241013D01*
X114377075Y-98216526D01*
X114377072Y-98216523D01*
X114281876Y-98143476D01*
X114133851Y-98082162D01*
X114125664Y-98081084D01*
X114125663Y-98081084D01*
X114114458Y-98079609D01*
X114083262Y-98075502D01*
X114014885Y-98066500D01*
X114014882Y-98066500D01*
X114014874Y-98066499D01*
X113983189Y-98062328D01*
X113975000Y-98061250D01*
X113943307Y-98065422D01*
X113926864Y-98066500D01*
X111367978Y-98066500D01*
X111299857Y-98046498D01*
X111262186Y-98008940D01*
X111257490Y-98001680D01*
X111155014Y-97843277D01*
X111004670Y-97678051D01*
X111000619Y-97674852D01*
X111000615Y-97674848D01*
X110833414Y-97542800D01*
X110833410Y-97542798D01*
X110829359Y-97539598D01*
X110788053Y-97516796D01*
X110738084Y-97466364D01*
X110723312Y-97396921D01*
X110748428Y-97330516D01*
X110775780Y-97303909D01*
X110819603Y-97272650D01*
X110954860Y-97176173D01*
X111113096Y-97018489D01*
X111172594Y-96935689D01*
X111240435Y-96841277D01*
X111243453Y-96837077D01*
X111255019Y-96813675D01*
X111303132Y-96761467D01*
X111367977Y-96743500D01*
X119560639Y-96743500D01*
X119628760Y-96763502D01*
X119637341Y-96769537D01*
X119718124Y-96831524D01*
X119779438Y-96856921D01*
X119858520Y-96889678D01*
X119858523Y-96889679D01*
X119866150Y-96892838D01*
X119985115Y-96908500D01*
X119985120Y-96908500D01*
X119985129Y-96908501D01*
X120016812Y-96912672D01*
X120025000Y-96913750D01*
X120056693Y-96909578D01*
X120073136Y-96908500D01*
X134545761Y-96908500D01*
X134613882Y-96928502D01*
X134634856Y-96945405D01*
X137200281Y-99510830D01*
X137234307Y-99573142D01*
X137236841Y-99596716D01*
X137236496Y-99600000D01*
X137237186Y-99606565D01*
X137241640Y-99648938D01*
X137256458Y-99789928D01*
X137315473Y-99971556D01*
X137410960Y-100136944D01*
X137415378Y-100141851D01*
X137415379Y-100141852D01*
X137526506Y-100265271D01*
X137538747Y-100278866D01*
X137602505Y-100325189D01*
X137672856Y-100376302D01*
X137693248Y-100391118D01*
X137699276Y-100393802D01*
X137699278Y-100393803D01*
X137788168Y-100433379D01*
X137867712Y-100468794D01*
X137948735Y-100486016D01*
X138048056Y-100507128D01*
X138048061Y-100507128D01*
X138054513Y-100508500D01*
X138245487Y-100508500D01*
X138251939Y-100507128D01*
X138251944Y-100507128D01*
X138351265Y-100486016D01*
X138432288Y-100468794D01*
X138511832Y-100433379D01*
X138600722Y-100393803D01*
X138600724Y-100393802D01*
X138606752Y-100391118D01*
X138616439Y-100384080D01*
X138683307Y-100360221D01*
X138752458Y-100376302D01*
X138801939Y-100427216D01*
X138816500Y-100486016D01*
X138816500Y-102370761D01*
X138796498Y-102438882D01*
X138779595Y-102459856D01*
X134609856Y-106629595D01*
X134547544Y-106663621D01*
X134520761Y-106666500D01*
X131405710Y-106666500D01*
X131337589Y-106646498D01*
X131312074Y-106624811D01*
X131290668Y-106601037D01*
X131290666Y-106601036D01*
X131286253Y-106596134D01*
X131141564Y-106491011D01*
X131137094Y-106487763D01*
X131137093Y-106487762D01*
X131131752Y-106483882D01*
X131125724Y-106481198D01*
X131125722Y-106481197D01*
X130963319Y-106408891D01*
X130963318Y-106408891D01*
X130957288Y-106406206D01*
X130863888Y-106386353D01*
X130776944Y-106367872D01*
X130776939Y-106367872D01*
X130770487Y-106366500D01*
X130579513Y-106366500D01*
X130573061Y-106367872D01*
X130573056Y-106367872D01*
X130486112Y-106386353D01*
X130392712Y-106406206D01*
X130386682Y-106408891D01*
X130386681Y-106408891D01*
X130224278Y-106481197D01*
X130224276Y-106481198D01*
X130218248Y-106483882D01*
X130212907Y-106487762D01*
X130212906Y-106487763D01*
X130208436Y-106491011D01*
X130063747Y-106596134D01*
X130059326Y-106601044D01*
X130059325Y-106601045D01*
X129967850Y-106702639D01*
X129935960Y-106738056D01*
X129840473Y-106903444D01*
X129781458Y-107085072D01*
X129780768Y-107091633D01*
X129780768Y-107091635D01*
X129771256Y-107182137D01*
X129761496Y-107275000D01*
X129762186Y-107281565D01*
X129768241Y-107339171D01*
X129781458Y-107464928D01*
X129840473Y-107646556D01*
X129843776Y-107652278D01*
X129843777Y-107652279D01*
X129862445Y-107684612D01*
X129935960Y-107811944D01*
X129940378Y-107816851D01*
X129940379Y-107816852D01*
X129983442Y-107864678D01*
X130063747Y-107953866D01*
X130218248Y-108066118D01*
X130224276Y-108068802D01*
X130224278Y-108068803D01*
X130367365Y-108132509D01*
X130392712Y-108143794D01*
X130456728Y-108157401D01*
X130573056Y-108182128D01*
X130573061Y-108182128D01*
X130579513Y-108183500D01*
X130770487Y-108183500D01*
X130776939Y-108182128D01*
X130776944Y-108182128D01*
X130893272Y-108157401D01*
X130957288Y-108143794D01*
X130982635Y-108132509D01*
X131125722Y-108068803D01*
X131125724Y-108068802D01*
X131131752Y-108066118D01*
X131212272Y-108007617D01*
X131264671Y-107969546D01*
X131286253Y-107953866D01*
X131312074Y-107925189D01*
X131372520Y-107887950D01*
X131405710Y-107883500D01*
X134776864Y-107883500D01*
X134793307Y-107884578D01*
X134825000Y-107888750D01*
X134833189Y-107887672D01*
X134864874Y-107883501D01*
X134864884Y-107883500D01*
X134864885Y-107883500D01*
X134964457Y-107870391D01*
X134975664Y-107868916D01*
X134975666Y-107868915D01*
X134983851Y-107867838D01*
X135131876Y-107806524D01*
X135227072Y-107733477D01*
X135227075Y-107733474D01*
X135258987Y-107708987D01*
X135267786Y-107697520D01*
X135278452Y-107683621D01*
X135289319Y-107671230D01*
X139821234Y-103139315D01*
X139833625Y-103128448D01*
X139852437Y-103114013D01*
X139858987Y-103108987D01*
X139883474Y-103077075D01*
X139883478Y-103077071D01*
X139956524Y-102981876D01*
X140017838Y-102833851D01*
X140020391Y-102814457D01*
X140033500Y-102714885D01*
X140033500Y-102714880D01*
X140038750Y-102675000D01*
X140034578Y-102643307D01*
X140033500Y-102626864D01*
X140033500Y-98598136D01*
X140034578Y-98581690D01*
X140037672Y-98558188D01*
X140038750Y-98550000D01*
X140033500Y-98510120D01*
X140033500Y-98510115D01*
X140017838Y-98391150D01*
X140008301Y-98368125D01*
X139956524Y-98243124D01*
X139936115Y-98216526D01*
X139883483Y-98147936D01*
X139883477Y-98147928D01*
X139883474Y-98147925D01*
X139858987Y-98116013D01*
X139852432Y-98110983D01*
X139833621Y-98096548D01*
X139821230Y-98085681D01*
X136789315Y-95053766D01*
X136778448Y-95041375D01*
X136764013Y-95022563D01*
X136758987Y-95016013D01*
X136727075Y-94991526D01*
X136727072Y-94991523D01*
X136638429Y-94923504D01*
X136638427Y-94923503D01*
X136631876Y-94918476D01*
X136483851Y-94857162D01*
X136475664Y-94856084D01*
X136475663Y-94856084D01*
X136464458Y-94854609D01*
X136433262Y-94850502D01*
X136364885Y-94841500D01*
X136364882Y-94841500D01*
X136364874Y-94841499D01*
X136333189Y-94837328D01*
X136325000Y-94836250D01*
X136293307Y-94840422D01*
X136276864Y-94841500D01*
X130180710Y-94841500D01*
X130112589Y-94821498D01*
X130087074Y-94799811D01*
X130065668Y-94776037D01*
X130065666Y-94776036D01*
X130061253Y-94771134D01*
X129906752Y-94658882D01*
X129900724Y-94656198D01*
X129900722Y-94656197D01*
X129738319Y-94583891D01*
X129738318Y-94583891D01*
X129732288Y-94581206D01*
X129638888Y-94561353D01*
X129551944Y-94542872D01*
X129551939Y-94542872D01*
X129545487Y-94541500D01*
X129354513Y-94541500D01*
X129348061Y-94542872D01*
X129348056Y-94542872D01*
X129261113Y-94561353D01*
X129167712Y-94581206D01*
X129161682Y-94583891D01*
X129161681Y-94583891D01*
X128999278Y-94656197D01*
X128999276Y-94656198D01*
X128993248Y-94658882D01*
X128838747Y-94771134D01*
X128834326Y-94776044D01*
X128834325Y-94776045D01*
X128754974Y-94864174D01*
X128710960Y-94913056D01*
X128615473Y-95078444D01*
X128556458Y-95260072D01*
X128555768Y-95266633D01*
X128555768Y-95266635D01*
X128551917Y-95303277D01*
X128536496Y-95450000D01*
X128537186Y-95456565D01*
X128547251Y-95552330D01*
X128534479Y-95622168D01*
X128485977Y-95674015D01*
X128421941Y-95691500D01*
X120324361Y-95691500D01*
X120256240Y-95671498D01*
X120247657Y-95665462D01*
X120173429Y-95608504D01*
X120173427Y-95608503D01*
X120166876Y-95603476D01*
X120018851Y-95542162D01*
X120010664Y-95541084D01*
X120010663Y-95541084D01*
X119999458Y-95539609D01*
X119968262Y-95535502D01*
X119899885Y-95526500D01*
X119899882Y-95526500D01*
X119899874Y-95526499D01*
X119868189Y-95522328D01*
X119860000Y-95521250D01*
X119828307Y-95525422D01*
X119811864Y-95526500D01*
X111367978Y-95526500D01*
X111299857Y-95506498D01*
X111262186Y-95468940D01*
X111257490Y-95461680D01*
X111155014Y-95303277D01*
X111004670Y-95138051D01*
X111000619Y-95134852D01*
X111000615Y-95134848D01*
X110833414Y-95002800D01*
X110833410Y-95002798D01*
X110829359Y-94999598D01*
X110788053Y-94976796D01*
X110738084Y-94926364D01*
X110723312Y-94856921D01*
X110748428Y-94790516D01*
X110775780Y-94763909D01*
X110819603Y-94732650D01*
X110954860Y-94636173D01*
X111010020Y-94581206D01*
X111109435Y-94482137D01*
X111113096Y-94478489D01*
X111172594Y-94395689D01*
X111240435Y-94301277D01*
X111243453Y-94297077D01*
X111264320Y-94254857D01*
X111340136Y-94101453D01*
X111340137Y-94101451D01*
X111342430Y-94096811D01*
X111407370Y-93883069D01*
X111436529Y-93661590D01*
X111438156Y-93595000D01*
X111419852Y-93372361D01*
X111365431Y-93155702D01*
X111276354Y-92950840D01*
X111155014Y-92763277D01*
X111004670Y-92598051D01*
X111000619Y-92594852D01*
X111000615Y-92594848D01*
X110833414Y-92462800D01*
X110833410Y-92462798D01*
X110829359Y-92459598D01*
X110788053Y-92436796D01*
X110738084Y-92386364D01*
X110723312Y-92316921D01*
X110748428Y-92250516D01*
X110775780Y-92223909D01*
X110819603Y-92192650D01*
X110954860Y-92096173D01*
X111113096Y-91938489D01*
X111172594Y-91855689D01*
X111240435Y-91761277D01*
X111243453Y-91757077D01*
X111264320Y-91714857D01*
X111340136Y-91561453D01*
X111340137Y-91561451D01*
X111342430Y-91556811D01*
X111407370Y-91343069D01*
X111436529Y-91121590D01*
X111438156Y-91055000D01*
X111419852Y-90832361D01*
X111365431Y-90615702D01*
X111276354Y-90410840D01*
X111155014Y-90223277D01*
X111004670Y-90058051D01*
X111000619Y-90054852D01*
X111000615Y-90054848D01*
X110833414Y-89922800D01*
X110833410Y-89922798D01*
X110829359Y-89919598D01*
X110788053Y-89896796D01*
X110738084Y-89846364D01*
X110723312Y-89776921D01*
X110748428Y-89710516D01*
X110775780Y-89683909D01*
X110819603Y-89652650D01*
X110954860Y-89556173D01*
X111113096Y-89398489D01*
X111172594Y-89315689D01*
X111240435Y-89221277D01*
X111243453Y-89217077D01*
X111264320Y-89174857D01*
X111340136Y-89021453D01*
X111340137Y-89021451D01*
X111342430Y-89016811D01*
X111407370Y-88803069D01*
X111436529Y-88581590D01*
X111438156Y-88515000D01*
X111419852Y-88292361D01*
X111365431Y-88075702D01*
X111276354Y-87870840D01*
X111155014Y-87683277D01*
X111004670Y-87518051D01*
X111000619Y-87514852D01*
X111000615Y-87514848D01*
X110833414Y-87382800D01*
X110833410Y-87382798D01*
X110829359Y-87379598D01*
X110788053Y-87356796D01*
X110738084Y-87306364D01*
X110723312Y-87236921D01*
X110748428Y-87170516D01*
X110775780Y-87143909D01*
X110819603Y-87112650D01*
X110954860Y-87016173D01*
X111113096Y-86858489D01*
X111243453Y-86677077D01*
X111256995Y-86649678D01*
X111340136Y-86481453D01*
X111340137Y-86481451D01*
X111342430Y-86476811D01*
X111407370Y-86263069D01*
X111436529Y-86041590D01*
X111438156Y-85975000D01*
X111419852Y-85752361D01*
X111365431Y-85535702D01*
X111276354Y-85330840D01*
X111155014Y-85143277D01*
X111004670Y-84978051D01*
X111000619Y-84974852D01*
X111000615Y-84974848D01*
X110833414Y-84842800D01*
X110833410Y-84842798D01*
X110829359Y-84839598D01*
X110788053Y-84816796D01*
X110738084Y-84766364D01*
X110723312Y-84696921D01*
X110748428Y-84630516D01*
X110775780Y-84603909D01*
X110819603Y-84572650D01*
X110954860Y-84476173D01*
X111113096Y-84318489D01*
X111172594Y-84235689D01*
X111240435Y-84141277D01*
X111243453Y-84137077D01*
X111264320Y-84094857D01*
X111340136Y-83941453D01*
X111340137Y-83941451D01*
X111342430Y-83936811D01*
X111407370Y-83723069D01*
X111436529Y-83501590D01*
X111438156Y-83435000D01*
X111419852Y-83212361D01*
X111365431Y-82995702D01*
X111276354Y-82790840D01*
X111155014Y-82603277D01*
X111004670Y-82438051D01*
X111000619Y-82434852D01*
X111000615Y-82434848D01*
X110833414Y-82302800D01*
X110833410Y-82302798D01*
X110829359Y-82299598D01*
X110633789Y-82191638D01*
X110628920Y-82189914D01*
X110628916Y-82189912D01*
X110428087Y-82118795D01*
X110428083Y-82118794D01*
X110423212Y-82117069D01*
X110418119Y-82116162D01*
X110418116Y-82116161D01*
X110208373Y-82078800D01*
X110208367Y-82078799D01*
X110203284Y-82077894D01*
X110129452Y-82076992D01*
X109985081Y-82075228D01*
X109985079Y-82075228D01*
X109979911Y-82075165D01*
X109759091Y-82108955D01*
X109546756Y-82178357D01*
X109348607Y-82281507D01*
X109344474Y-82284610D01*
X109344471Y-82284612D01*
X109320247Y-82302800D01*
X109169965Y-82415635D01*
X109015629Y-82577138D01*
X108908201Y-82734621D01*
X108853293Y-82779621D01*
X108782768Y-82787792D01*
X108719021Y-82756538D01*
X108698324Y-82732054D01*
X108617822Y-82607617D01*
X108617820Y-82607614D01*
X108615014Y-82603277D01*
X108464670Y-82438051D01*
X108460619Y-82434852D01*
X108460615Y-82434848D01*
X108293414Y-82302800D01*
X108293410Y-82302798D01*
X108289359Y-82299598D01*
X108093789Y-82191638D01*
X108088920Y-82189914D01*
X108088916Y-82189912D01*
X107888087Y-82118795D01*
X107888083Y-82118794D01*
X107883212Y-82117069D01*
X107878119Y-82116162D01*
X107878116Y-82116161D01*
X107668373Y-82078800D01*
X107668367Y-82078799D01*
X107663284Y-82077894D01*
X107589452Y-82076992D01*
X107445081Y-82075228D01*
X107445079Y-82075228D01*
X107439911Y-82075165D01*
X107219091Y-82108955D01*
X107006756Y-82178357D01*
X106808607Y-82281507D01*
X106804474Y-82284610D01*
X106804471Y-82284612D01*
X106780247Y-82302800D01*
X106629965Y-82415635D01*
X106475629Y-82577138D01*
X106349743Y-82761680D01*
X106255688Y-82964305D01*
X106195989Y-83179570D01*
X106172251Y-83401695D01*
X106172548Y-83406848D01*
X106172548Y-83406851D01*
X106178011Y-83501590D01*
X106185110Y-83624715D01*
X106186247Y-83629761D01*
X106186248Y-83629767D01*
X106206119Y-83717939D01*
X106234222Y-83842639D01*
X106318266Y-84049616D01*
X106369019Y-84132438D01*
X106432291Y-84235688D01*
X106434987Y-84240088D01*
X106581250Y-84408938D01*
X106753126Y-84551632D01*
X106826445Y-84594476D01*
X106826955Y-84594774D01*
X106875679Y-84646412D01*
X106888750Y-84716195D01*
X106862019Y-84781967D01*
X106821562Y-84815327D01*
X106813457Y-84819546D01*
X106804738Y-84825036D01*
X106634433Y-84952905D01*
X106626726Y-84959748D01*
X106479590Y-85113717D01*
X106473104Y-85121727D01*
X106353098Y-85297649D01*
X106348000Y-85306623D01*
X106258338Y-85499783D01*
X106254775Y-85509470D01*
X106199389Y-85709183D01*
X106200912Y-85717607D01*
X106213292Y-85721000D01*
X107663000Y-85721000D01*
X107731121Y-85741002D01*
X107777614Y-85794658D01*
X107789000Y-85847000D01*
X107789000Y-86103000D01*
X107768998Y-86171121D01*
X107715342Y-86217614D01*
X107663000Y-86229000D01*
X106218225Y-86229000D01*
X106204694Y-86232973D01*
X106203257Y-86242966D01*
X106233565Y-86377446D01*
X106236645Y-86387275D01*
X106316770Y-86584603D01*
X106321413Y-86593794D01*
X106432694Y-86775388D01*
X106438777Y-86783699D01*
X106578213Y-86944667D01*
X106585580Y-86951883D01*
X106749434Y-87087916D01*
X106757881Y-87093831D01*
X106826969Y-87134203D01*
X106875693Y-87185842D01*
X106888764Y-87255625D01*
X106862033Y-87321396D01*
X106821584Y-87354752D01*
X106808607Y-87361507D01*
X106804474Y-87364610D01*
X106804471Y-87364612D01*
X106780247Y-87382800D01*
X106629965Y-87495635D01*
X106475629Y-87657138D01*
X106349743Y-87841680D01*
X106255688Y-88044305D01*
X106195989Y-88259570D01*
X106172251Y-88481695D01*
X106172548Y-88486848D01*
X106172548Y-88486851D01*
X106178011Y-88581590D01*
X106185110Y-88704715D01*
X106186247Y-88709761D01*
X106186248Y-88709767D01*
X106206119Y-88797939D01*
X106234222Y-88922639D01*
X106318266Y-89129616D01*
X106369019Y-89212438D01*
X106432291Y-89315688D01*
X106434987Y-89320088D01*
X106581250Y-89488938D01*
X106753126Y-89631632D01*
X106823595Y-89672811D01*
X106826445Y-89674476D01*
X106875169Y-89726114D01*
X106888240Y-89795897D01*
X106861509Y-89861669D01*
X106821055Y-89895027D01*
X106808607Y-89901507D01*
X106804474Y-89904610D01*
X106804471Y-89904612D01*
X106780247Y-89922800D01*
X106629965Y-90035635D01*
X106475629Y-90197138D01*
X106349743Y-90381680D01*
X106255688Y-90584305D01*
X106195989Y-90799570D01*
X106172251Y-91021695D01*
X106172548Y-91026848D01*
X106172548Y-91026851D01*
X106178011Y-91121590D01*
X106185110Y-91244715D01*
X106186247Y-91249761D01*
X106186248Y-91249767D01*
X106206119Y-91337939D01*
X106234222Y-91462639D01*
X106318266Y-91669616D01*
X106369019Y-91752438D01*
X106432291Y-91855688D01*
X106434987Y-91860088D01*
X106581250Y-92028938D01*
X106753126Y-92171632D01*
X106823595Y-92212811D01*
X106826445Y-92214476D01*
X106875169Y-92266114D01*
X106888240Y-92335897D01*
X106861509Y-92401669D01*
X106821055Y-92435027D01*
X106808607Y-92441507D01*
X106804474Y-92444610D01*
X106804471Y-92444612D01*
X106780247Y-92462800D01*
X106629965Y-92575635D01*
X106475629Y-92737138D01*
X106349743Y-92921680D01*
X106255688Y-93124305D01*
X106195989Y-93339570D01*
X106172251Y-93561695D01*
X106172548Y-93566848D01*
X106172548Y-93566851D01*
X106178011Y-93661590D01*
X106185110Y-93784715D01*
X106186247Y-93789761D01*
X106186248Y-93789767D01*
X106206119Y-93877939D01*
X106234222Y-94002639D01*
X106318266Y-94209616D01*
X106369019Y-94292438D01*
X106432291Y-94395688D01*
X106434987Y-94400088D01*
X106581250Y-94568938D01*
X106753126Y-94711632D01*
X106823595Y-94752811D01*
X106826445Y-94754476D01*
X106875169Y-94806114D01*
X106888240Y-94875897D01*
X106861509Y-94941669D01*
X106821055Y-94975027D01*
X106808607Y-94981507D01*
X106804474Y-94984610D01*
X106804471Y-94984612D01*
X106671128Y-95084729D01*
X106629965Y-95115635D01*
X106475629Y-95277138D01*
X106349743Y-95461680D01*
X106328939Y-95506498D01*
X106285391Y-95600316D01*
X106255688Y-95664305D01*
X106195989Y-95879570D01*
X106172251Y-96101695D01*
X106172548Y-96106848D01*
X106172548Y-96106851D01*
X106178570Y-96211283D01*
X106185110Y-96324715D01*
X106186247Y-96329761D01*
X106186248Y-96329767D01*
X106210304Y-96436508D01*
X106234222Y-96542639D01*
X106266723Y-96622680D01*
X106315783Y-96743500D01*
X106318266Y-96749616D01*
X106357521Y-96813675D01*
X106432291Y-96935688D01*
X106434987Y-96940088D01*
X106581250Y-97108938D01*
X106753126Y-97251632D01*
X106823595Y-97292811D01*
X106826445Y-97294476D01*
X106875169Y-97346114D01*
X106888240Y-97415897D01*
X106861509Y-97481669D01*
X106821055Y-97515027D01*
X106808607Y-97521507D01*
X106804474Y-97524610D01*
X106804471Y-97524612D01*
X106780247Y-97542800D01*
X106629965Y-97655635D01*
X106475629Y-97817138D01*
X106349743Y-98001680D01*
X106328939Y-98046498D01*
X106281854Y-98147936D01*
X106255688Y-98204305D01*
X106195989Y-98419570D01*
X106172251Y-98641695D01*
X106172548Y-98646848D01*
X106172548Y-98646851D01*
X106177190Y-98727355D01*
X106185110Y-98864715D01*
X106186247Y-98869761D01*
X106186248Y-98869767D01*
X106205366Y-98954595D01*
X106234222Y-99082639D01*
X106288882Y-99217251D01*
X106315783Y-99283500D01*
X106318266Y-99289616D01*
X106434987Y-99480088D01*
X106581250Y-99648938D01*
X106753126Y-99791632D01*
X106785980Y-99810830D01*
X106826445Y-99834476D01*
X106875169Y-99886114D01*
X106888240Y-99955897D01*
X106861509Y-100021669D01*
X106821055Y-100055027D01*
X106808607Y-100061507D01*
X106804474Y-100064610D01*
X106804471Y-100064612D01*
X106634100Y-100192530D01*
X106629965Y-100195635D01*
X106475629Y-100357138D01*
X106472715Y-100361410D01*
X106472714Y-100361411D01*
X106403191Y-100463328D01*
X106349743Y-100541680D01*
X106323537Y-100598136D01*
X106273364Y-100706226D01*
X106255688Y-100744305D01*
X106195989Y-100959570D01*
X106172251Y-101181695D01*
X106172548Y-101186848D01*
X106172548Y-101186851D01*
X106178011Y-101281590D01*
X106185110Y-101404715D01*
X106186247Y-101409761D01*
X106186248Y-101409767D01*
X106206119Y-101497939D01*
X106234222Y-101622639D01*
X106318266Y-101829616D01*
X106369019Y-101912438D01*
X106432291Y-102015688D01*
X106434987Y-102020088D01*
X106581250Y-102188938D01*
X106753126Y-102331632D01*
X106820088Y-102370761D01*
X106826445Y-102374476D01*
X106875169Y-102426114D01*
X106888240Y-102495897D01*
X106861509Y-102561669D01*
X106821055Y-102595027D01*
X106808607Y-102601507D01*
X106804474Y-102604610D01*
X106804471Y-102604612D01*
X106634100Y-102732530D01*
X106629965Y-102735635D01*
X106626393Y-102739373D01*
X106536108Y-102833851D01*
X106475629Y-102897138D01*
X106472720Y-102901403D01*
X106472714Y-102901411D01*
X106387723Y-103026004D01*
X106349743Y-103081680D01*
X106327855Y-103128834D01*
X106280336Y-103231206D01*
X106255688Y-103284305D01*
X106195989Y-103499570D01*
X106172251Y-103721695D01*
X106172548Y-103726848D01*
X106172548Y-103726851D01*
X106174491Y-103760551D01*
X106185110Y-103944715D01*
X106186247Y-103949761D01*
X106186248Y-103949767D01*
X106200010Y-104010830D01*
X106234222Y-104162639D01*
X106266723Y-104242680D01*
X106315783Y-104363500D01*
X106318266Y-104369616D01*
X106357521Y-104433675D01*
X106432291Y-104555688D01*
X106434987Y-104560088D01*
X106581250Y-104728938D01*
X106753126Y-104871632D01*
X106819708Y-104910539D01*
X106826445Y-104914476D01*
X106875169Y-104966114D01*
X106888240Y-105035897D01*
X106861509Y-105101669D01*
X106821055Y-105135027D01*
X106808607Y-105141507D01*
X106804474Y-105144610D01*
X106804471Y-105144612D01*
X106634100Y-105272530D01*
X106629965Y-105275635D01*
X106475629Y-105437138D01*
X106349743Y-105621680D01*
X106255688Y-105824305D01*
X106195989Y-106039570D01*
X106172251Y-106261695D01*
X106172548Y-106266848D01*
X106172548Y-106266851D01*
X106178011Y-106361590D01*
X106185110Y-106484715D01*
X106186247Y-106489761D01*
X106186248Y-106489767D01*
X106206119Y-106577939D01*
X106234222Y-106702639D01*
X106318266Y-106909616D01*
X106369019Y-106992438D01*
X106432291Y-107095688D01*
X106434987Y-107100088D01*
X106581250Y-107268938D01*
X106753126Y-107411632D01*
X106823595Y-107452811D01*
X106826445Y-107454476D01*
X106875169Y-107506114D01*
X106888240Y-107575897D01*
X106861509Y-107641669D01*
X106821055Y-107675027D01*
X106808607Y-107681507D01*
X106804474Y-107684610D01*
X106804471Y-107684612D01*
X106634100Y-107812530D01*
X106629965Y-107815635D01*
X106626393Y-107819373D01*
X106494158Y-107957749D01*
X106475629Y-107977138D01*
X106349743Y-108161680D01*
X106255688Y-108364305D01*
X106195989Y-108579570D01*
X106172251Y-108801695D01*
X106172548Y-108806848D01*
X106172548Y-108806851D01*
X106174677Y-108843774D01*
X106185110Y-109024715D01*
X106186247Y-109029761D01*
X106186248Y-109029767D01*
X106199597Y-109089000D01*
X106234222Y-109242639D01*
X106318266Y-109449616D01*
X106434987Y-109640088D01*
X106581250Y-109808938D01*
X106753126Y-109951632D01*
X106813865Y-109987125D01*
X106826445Y-109994476D01*
X106875169Y-110046114D01*
X106888240Y-110115897D01*
X106861509Y-110181669D01*
X106821055Y-110215027D01*
X106808607Y-110221507D01*
X106804474Y-110224610D01*
X106804471Y-110224612D01*
X106634100Y-110352530D01*
X106629965Y-110355635D01*
X106590525Y-110396907D01*
X106536280Y-110453671D01*
X106475629Y-110517138D01*
X106349743Y-110701680D01*
X106255688Y-110904305D01*
X106195989Y-111119570D01*
X106172251Y-111341695D01*
X104008000Y-111341695D01*
X104008000Y-74978326D01*
X131544982Y-74978326D01*
X131570657Y-75323821D01*
X131635278Y-75664188D01*
X131738014Y-75995053D01*
X131739455Y-75998327D01*
X131739455Y-75998328D01*
X131835367Y-76216303D01*
X131877545Y-76312160D01*
X132052076Y-76611434D01*
X132259364Y-76889027D01*
X132261808Y-76891625D01*
X132261813Y-76891631D01*
X132378054Y-77015198D01*
X132496744Y-77141369D01*
X132761164Y-77365217D01*
X132764128Y-77367197D01*
X132764130Y-77367199D01*
X132968450Y-77503721D01*
X133049225Y-77557693D01*
X133052407Y-77559332D01*
X133052409Y-77559333D01*
X133354040Y-77714684D01*
X133354045Y-77714686D01*
X133357223Y-77716323D01*
X133360564Y-77717589D01*
X133360569Y-77717591D01*
X133588216Y-77803838D01*
X133681199Y-77839066D01*
X133684663Y-77839946D01*
X133684667Y-77839947D01*
X134013519Y-77923465D01*
X134013527Y-77923467D01*
X134016986Y-77924345D01*
X134185779Y-77947317D01*
X134357277Y-77970657D01*
X134357284Y-77970658D01*
X134360270Y-77971064D01*
X134473174Y-77975500D01*
X134687754Y-77975500D01*
X134826975Y-77967594D01*
X134942322Y-77961045D01*
X134942329Y-77961044D01*
X134945890Y-77960842D01*
X135287334Y-77902171D01*
X135290766Y-77901171D01*
X135290769Y-77901170D01*
X135616497Y-77806229D01*
X135616500Y-77806228D01*
X135619941Y-77805225D01*
X135623241Y-77803841D01*
X135623250Y-77803838D01*
X135835857Y-77714684D01*
X135939436Y-77671250D01*
X136241710Y-77501968D01*
X136522878Y-77299556D01*
X136525529Y-77297148D01*
X136525534Y-77297144D01*
X136776675Y-77069023D01*
X136779325Y-77066616D01*
X137007753Y-76806143D01*
X137205228Y-76521485D01*
X137369208Y-76216303D01*
X137497587Y-75894519D01*
X137588713Y-75560271D01*
X137625106Y-75323821D01*
X137640874Y-75221378D01*
X137640874Y-75221374D01*
X137641416Y-75217855D01*
X137650688Y-74981886D01*
X137650828Y-74978326D01*
X164544982Y-74978326D01*
X164570657Y-75323821D01*
X164635278Y-75664188D01*
X164738014Y-75995053D01*
X164739455Y-75998327D01*
X164739455Y-75998328D01*
X164835367Y-76216303D01*
X164877545Y-76312160D01*
X165052076Y-76611434D01*
X165259364Y-76889027D01*
X165261808Y-76891625D01*
X165261813Y-76891631D01*
X165378054Y-77015198D01*
X165496744Y-77141369D01*
X165761164Y-77365217D01*
X165764128Y-77367197D01*
X165764130Y-77367199D01*
X165968450Y-77503721D01*
X166049225Y-77557693D01*
X166052407Y-77559332D01*
X166052409Y-77559333D01*
X166354040Y-77714684D01*
X166354045Y-77714686D01*
X166357223Y-77716323D01*
X166360564Y-77717589D01*
X166360569Y-77717591D01*
X166588216Y-77803838D01*
X166681199Y-77839066D01*
X166684663Y-77839946D01*
X166684667Y-77839947D01*
X167013519Y-77923465D01*
X167013527Y-77923467D01*
X167016986Y-77924345D01*
X167185779Y-77947317D01*
X167357277Y-77970657D01*
X167357284Y-77970658D01*
X167360270Y-77971064D01*
X167473174Y-77975500D01*
X167687754Y-77975500D01*
X167826975Y-77967594D01*
X167942322Y-77961045D01*
X167942329Y-77961044D01*
X167945890Y-77960842D01*
X168287334Y-77902171D01*
X168290766Y-77901171D01*
X168290769Y-77901170D01*
X168616497Y-77806229D01*
X168616500Y-77806228D01*
X168619941Y-77805225D01*
X168623241Y-77803841D01*
X168623250Y-77803838D01*
X168835857Y-77714684D01*
X168939436Y-77671250D01*
X169241710Y-77501968D01*
X169522878Y-77299556D01*
X169525529Y-77297148D01*
X169525534Y-77297144D01*
X169776675Y-77069023D01*
X169779325Y-77066616D01*
X170007753Y-76806143D01*
X170205228Y-76521485D01*
X170369208Y-76216303D01*
X170497587Y-75894519D01*
X170588713Y-75560271D01*
X170625106Y-75323821D01*
X170640874Y-75221378D01*
X170640874Y-75221374D01*
X170641416Y-75217855D01*
X170650688Y-74981886D01*
X170654878Y-74875244D01*
X170654878Y-74875239D01*
X170655018Y-74871674D01*
X170636956Y-74628622D01*
X170629608Y-74529741D01*
X170629607Y-74529736D01*
X170629343Y-74526179D01*
X170564722Y-74185812D01*
X170461986Y-73854947D01*
X170366097Y-73637023D01*
X170323899Y-73541121D01*
X170323897Y-73541116D01*
X170322455Y-73537840D01*
X170147924Y-73238566D01*
X169940636Y-72960973D01*
X169938192Y-72958375D01*
X169938187Y-72958369D01*
X169776107Y-72786074D01*
X169703256Y-72708631D01*
X169513922Y-72548348D01*
X169441558Y-72487087D01*
X169441554Y-72487084D01*
X169438836Y-72484783D01*
X169237311Y-72350128D01*
X169153752Y-72294296D01*
X169153750Y-72294295D01*
X169150775Y-72292307D01*
X169129171Y-72281180D01*
X168845960Y-72135316D01*
X168845955Y-72135314D01*
X168842777Y-72133677D01*
X168839436Y-72132411D01*
X168839431Y-72132409D01*
X168522145Y-72012201D01*
X168522146Y-72012201D01*
X168518801Y-72010934D01*
X168515337Y-72010054D01*
X168515333Y-72010053D01*
X168186481Y-71926535D01*
X168186473Y-71926533D01*
X168183014Y-71925655D01*
X168014221Y-71902683D01*
X167842723Y-71879343D01*
X167842716Y-71879342D01*
X167839730Y-71878936D01*
X167726826Y-71874500D01*
X167512246Y-71874500D01*
X167373025Y-71882406D01*
X167257678Y-71888955D01*
X167257671Y-71888956D01*
X167254110Y-71889158D01*
X166912666Y-71947829D01*
X166909234Y-71948829D01*
X166909231Y-71948830D01*
X166583503Y-72043771D01*
X166583500Y-72043772D01*
X166580059Y-72044775D01*
X166576759Y-72046159D01*
X166576750Y-72046162D01*
X166375062Y-72130737D01*
X166260564Y-72178750D01*
X165958290Y-72348032D01*
X165677122Y-72550444D01*
X165674471Y-72552852D01*
X165674466Y-72552856D01*
X165505515Y-72706321D01*
X165420675Y-72783384D01*
X165192247Y-73043857D01*
X164994772Y-73328515D01*
X164830792Y-73633697D01*
X164702413Y-73955481D01*
X164611287Y-74289729D01*
X164610745Y-74293251D01*
X164572832Y-74539577D01*
X164558584Y-74632145D01*
X164558444Y-74635710D01*
X164549173Y-74871674D01*
X164544982Y-74978326D01*
X137650828Y-74978326D01*
X137654878Y-74875244D01*
X137654878Y-74875239D01*
X137655018Y-74871674D01*
X137636956Y-74628622D01*
X137629608Y-74529741D01*
X137629607Y-74529736D01*
X137629343Y-74526179D01*
X137564722Y-74185812D01*
X137461986Y-73854947D01*
X137366097Y-73637023D01*
X137323899Y-73541121D01*
X137323897Y-73541116D01*
X137322455Y-73537840D01*
X137147924Y-73238566D01*
X136940636Y-72960973D01*
X136938192Y-72958375D01*
X136938187Y-72958369D01*
X136776107Y-72786074D01*
X136703256Y-72708631D01*
X136513922Y-72548348D01*
X136441558Y-72487087D01*
X136441554Y-72487084D01*
X136438836Y-72484783D01*
X136237311Y-72350128D01*
X136153752Y-72294296D01*
X136153750Y-72294295D01*
X136150775Y-72292307D01*
X136129171Y-72281180D01*
X135845960Y-72135316D01*
X135845955Y-72135314D01*
X135842777Y-72133677D01*
X135839436Y-72132411D01*
X135839431Y-72132409D01*
X135522145Y-72012201D01*
X135522146Y-72012201D01*
X135518801Y-72010934D01*
X135515337Y-72010054D01*
X135515333Y-72010053D01*
X135186481Y-71926535D01*
X135186473Y-71926533D01*
X135183014Y-71925655D01*
X135014221Y-71902683D01*
X134842723Y-71879343D01*
X134842716Y-71879342D01*
X134839730Y-71878936D01*
X134726826Y-71874500D01*
X134512246Y-71874500D01*
X134373025Y-71882406D01*
X134257678Y-71888955D01*
X134257671Y-71888956D01*
X134254110Y-71889158D01*
X133912666Y-71947829D01*
X133909234Y-71948829D01*
X133909231Y-71948830D01*
X133583503Y-72043771D01*
X133583500Y-72043772D01*
X133580059Y-72044775D01*
X133576759Y-72046159D01*
X133576750Y-72046162D01*
X133375062Y-72130737D01*
X133260564Y-72178750D01*
X132958290Y-72348032D01*
X132677122Y-72550444D01*
X132674471Y-72552852D01*
X132674466Y-72552856D01*
X132505515Y-72706321D01*
X132420675Y-72783384D01*
X132192247Y-73043857D01*
X131994772Y-73328515D01*
X131830792Y-73633697D01*
X131702413Y-73955481D01*
X131611287Y-74289729D01*
X131610745Y-74293251D01*
X131572832Y-74539577D01*
X131558584Y-74632145D01*
X131558444Y-74635710D01*
X131549173Y-74871674D01*
X131544982Y-74978326D01*
X104008000Y-74978326D01*
X104008000Y-74549328D01*
X104009500Y-74529943D01*
X104011805Y-74515142D01*
X104011805Y-74515139D01*
X104013186Y-74506270D01*
X104012022Y-74497369D01*
X104012022Y-74497365D01*
X104010743Y-74487589D01*
X104009852Y-74464657D01*
X104024044Y-74193852D01*
X104025422Y-74180735D01*
X104072349Y-73884450D01*
X104075091Y-73871550D01*
X104138824Y-73633697D01*
X104152731Y-73581794D01*
X104156807Y-73569251D01*
X104167606Y-73541121D01*
X104264304Y-73289213D01*
X104269668Y-73277165D01*
X104405855Y-73009883D01*
X104412449Y-72998462D01*
X104575828Y-72746879D01*
X104583581Y-72736209D01*
X104772355Y-72503092D01*
X104781180Y-72493291D01*
X104993291Y-72281180D01*
X105003092Y-72272355D01*
X105236209Y-72083581D01*
X105246879Y-72075828D01*
X105498462Y-71912449D01*
X105509883Y-71905855D01*
X105777165Y-71769668D01*
X105789213Y-71764304D01*
X105821238Y-71752011D01*
X106069258Y-71656805D01*
X106081795Y-71652731D01*
X106371550Y-71575091D01*
X106384450Y-71572349D01*
X106680735Y-71525422D01*
X106693851Y-71524044D01*
X106957334Y-71510236D01*
X106983312Y-71511564D01*
X106984856Y-71511805D01*
X106984860Y-71511805D01*
X106993730Y-71513186D01*
X107002632Y-71512022D01*
X107002635Y-71512022D01*
X107025251Y-71509064D01*
X107041589Y-71508000D01*
X167950672Y-71508000D01*
X167970057Y-71509500D01*
G37*
%TD.AperFunction*%
%TA.AperFunction,Conductor*%
G36*
X112613393Y-100453013D02*
G01*
X112634367Y-100469916D01*
X118440367Y-106275916D01*
X118474393Y-106338228D01*
X118469328Y-106409043D01*
X118426781Y-106465879D01*
X118360261Y-106490690D01*
X118351272Y-106491011D01*
X117878750Y-106491011D01*
X117810629Y-106471009D01*
X117789655Y-106454106D01*
X114694315Y-103358766D01*
X114683448Y-103346375D01*
X114669013Y-103327563D01*
X114663987Y-103321013D01*
X114632075Y-103296526D01*
X114632072Y-103296523D01*
X114536876Y-103223476D01*
X114388851Y-103162162D01*
X114380664Y-103161084D01*
X114380663Y-103161084D01*
X114369458Y-103159609D01*
X114328341Y-103154196D01*
X114269885Y-103146500D01*
X114269882Y-103146500D01*
X114269874Y-103146499D01*
X114238189Y-103142328D01*
X114230000Y-103141250D01*
X114198307Y-103145422D01*
X114181864Y-103146500D01*
X111367978Y-103146500D01*
X111299857Y-103126498D01*
X111262186Y-103088940D01*
X111257490Y-103081680D01*
X111197163Y-102988429D01*
X111157822Y-102927617D01*
X111157820Y-102927614D01*
X111155014Y-102923277D01*
X111004670Y-102758051D01*
X111000619Y-102754852D01*
X111000615Y-102754848D01*
X110833414Y-102622800D01*
X110833410Y-102622798D01*
X110829359Y-102619598D01*
X110788053Y-102596796D01*
X110738084Y-102546364D01*
X110723312Y-102476921D01*
X110748428Y-102410516D01*
X110775780Y-102383909D01*
X110819603Y-102352650D01*
X110954860Y-102256173D01*
X111113096Y-102098489D01*
X111144812Y-102054352D01*
X111240435Y-101921277D01*
X111243453Y-101917077D01*
X111256945Y-101889779D01*
X111340136Y-101721453D01*
X111340137Y-101721451D01*
X111342430Y-101716811D01*
X111407370Y-101503069D01*
X111436529Y-101281590D01*
X111438156Y-101215000D01*
X111419852Y-100992361D01*
X111365431Y-100775702D01*
X111293057Y-100609254D01*
X111284236Y-100538807D01*
X111314903Y-100474775D01*
X111375319Y-100437487D01*
X111408606Y-100433011D01*
X112545272Y-100433011D01*
X112613393Y-100453013D01*
G37*
%TD.AperFunction*%
%TA.AperFunction,Conductor*%
G36*
X127437411Y-100303502D02*
G01*
X127462926Y-100325189D01*
X127488747Y-100353866D01*
X127530333Y-100384080D01*
X127562024Y-100407105D01*
X127605377Y-100463328D01*
X127611452Y-100534064D01*
X127577057Y-100598136D01*
X125360735Y-102814457D01*
X123195597Y-104979595D01*
X123133285Y-105013621D01*
X123106502Y-105016500D01*
X121155710Y-105016500D01*
X121087589Y-104996498D01*
X121062074Y-104974811D01*
X121040668Y-104951037D01*
X121040666Y-104951036D01*
X121036253Y-104946134D01*
X120881752Y-104833882D01*
X120875724Y-104831198D01*
X120875722Y-104831197D01*
X120713319Y-104758891D01*
X120713318Y-104758891D01*
X120707288Y-104756206D01*
X120613887Y-104736353D01*
X120526944Y-104717872D01*
X120526939Y-104717872D01*
X120520487Y-104716500D01*
X120329513Y-104716500D01*
X120323061Y-104717872D01*
X120323056Y-104717872D01*
X120236113Y-104736353D01*
X120142712Y-104756206D01*
X120136682Y-104758891D01*
X120136681Y-104758891D01*
X119974278Y-104831197D01*
X119974276Y-104831198D01*
X119968248Y-104833882D01*
X119813747Y-104946134D01*
X119809326Y-104951044D01*
X119809325Y-104951045D01*
X119718040Y-105052428D01*
X119685960Y-105088056D01*
X119590473Y-105253444D01*
X119588431Y-105259729D01*
X119543291Y-105398655D01*
X119503218Y-105457261D01*
X119437821Y-105484898D01*
X119367864Y-105472791D01*
X119334363Y-105448814D01*
X119000289Y-105114740D01*
X118966263Y-105052428D01*
X118971328Y-104981613D01*
X119013875Y-104924777D01*
X119038134Y-104910539D01*
X119075717Y-104893806D01*
X119075725Y-104893801D01*
X119081752Y-104891118D01*
X119236253Y-104778866D01*
X119256656Y-104756206D01*
X119359621Y-104641852D01*
X119359622Y-104641851D01*
X119364040Y-104636944D01*
X119459527Y-104471556D01*
X119518542Y-104289928D01*
X119531418Y-104167425D01*
X119537814Y-104106565D01*
X119538504Y-104100000D01*
X119538316Y-104098214D01*
X119557816Y-104031804D01*
X119574719Y-104010830D01*
X123265144Y-100320405D01*
X123327456Y-100286379D01*
X123354239Y-100283500D01*
X127369290Y-100283500D01*
X127437411Y-100303502D01*
G37*
%TD.AperFunction*%
%TD*%
M02*
