M48
; DRILL file {KiCad (6.0.0-0)} date Wednesday, March 30, 2022 at 03:47:30 PM
; FORMAT={-:-/ absolute / inch / decimal}
; #@! TF.CreationDate,2022-03-30T15:47:30-05:00
; #@! TF.GenerationSoftware,Kicad,Pcbnew,(6.0.0-0)
; #@! TF.FileFunction,Plated,1,2,PTH
FMAT,2
INCH
; #@! TA.AperFunction,Plated,PTH,ViaDrill
T1C0.0157
; #@! TA.AperFunction,Plated,PTH,ComponentDrill
T2C0.0394
%
G90
G05
T1
X4.4563Y-4.0299
X4.5354Y-3.9331
X4.6528Y-4.0008
X4.6703Y-4.0984
X4.7411Y-4.1585
X4.7606Y-3.5
X4.7858Y-4.0913
X4.876Y-4.189
X4.9594Y-4.3614
X5.0433Y-3.9242
X5.0524Y-4.1913
X5.0595Y-3.9966
X5.0965Y-3.7579
X5.1012Y-4.3551
X5.126Y-3.8591
X5.1299Y-3.9439
X5.1437Y-3.6819
X5.1447Y-4.2234
X5.2736Y-3.4492
X5.2801Y-4.4636
X5.2831Y-4.4024
X5.402Y-3.6988
X5.4122Y-4.1776
X5.4161Y-3.9996
X5.4173Y-4.4203
X5.439Y-3.9213
X5.4478Y-4.3061
X5.5516Y-3.6272
X5.5594Y-4.3067
X5.5701Y-3.9524
X6.6169Y-4.3921
T2
X4.2337Y-3.2848
X4.2337Y-3.3848
X4.2337Y-3.4848
X4.2337Y-3.5848
X4.2337Y-3.6848
X4.2337Y-3.7848
X4.2337Y-3.8848
X4.2337Y-3.9848
X4.2337Y-4.0848
X4.2337Y-4.1848
X4.2337Y-4.2848
X4.2337Y-4.3848
X4.3337Y-3.2848
X4.3337Y-3.3848
X4.3337Y-3.4848
X4.3337Y-3.5848
X4.3337Y-3.6848
X4.3337Y-3.7848
X4.3337Y-3.8848
X4.3337Y-3.9848
X4.3337Y-4.0848
X4.3337Y-4.1848
X4.3337Y-4.2848
X4.3337Y-4.3848
T0
M30
