%TF.GenerationSoftware,KiCad,Pcbnew,(6.0.0-0)*%
%TF.CreationDate,2022-03-30T15:47:28-05:00*%
%TF.ProjectId,spacebot-CM4-breakout,73706163-6562-46f7-942d-434d342d6272,rev?*%
%TF.SameCoordinates,Original*%
%TF.FileFunction,Paste,Top*%
%TF.FilePolarity,Positive*%
%FSLAX46Y46*%
G04 Gerber Fmt 4.6, Leading zero omitted, Abs format (unit mm)*
G04 Created by KiCad (PCBNEW (6.0.0-0)) date 2022-03-30 15:47:28*
%MOMM*%
%LPD*%
G01*
G04 APERTURE LIST*
%ADD10R,0.700000X0.200000*%
G04 APERTURE END LIST*
D10*
%TO.C,U1*%
X169600000Y-111225000D03*
X166520000Y-111225000D03*
X169600000Y-110825000D03*
X166520000Y-110825000D03*
X169600000Y-110425000D03*
X166520000Y-110425000D03*
X169600000Y-110025000D03*
X166520000Y-110025000D03*
X169600000Y-109625000D03*
X166520000Y-109625000D03*
X169600000Y-109225000D03*
X166520000Y-109225000D03*
X169600000Y-108825000D03*
X166520000Y-108825000D03*
X169600000Y-108425000D03*
X166520000Y-108425000D03*
X169600000Y-108025000D03*
X166520000Y-108025000D03*
X169600000Y-107625000D03*
X166520000Y-107625000D03*
X169600000Y-107225000D03*
X166520000Y-107225000D03*
X169600000Y-106825000D03*
X166520000Y-106825000D03*
X169600000Y-106425000D03*
X166520000Y-106425000D03*
X169600000Y-106025000D03*
X166520000Y-106025000D03*
X169600000Y-105625000D03*
X166520000Y-105625000D03*
X169600000Y-105225000D03*
X166520000Y-105225000D03*
X169600000Y-104825000D03*
X166520000Y-104825000D03*
X169600000Y-104425000D03*
X166520000Y-104425000D03*
X169600000Y-104025000D03*
X166520000Y-104025000D03*
X169600000Y-103625000D03*
X166520000Y-103625000D03*
X169600000Y-103225000D03*
X166520000Y-103225000D03*
X169600000Y-102825000D03*
X166520000Y-102825000D03*
X169600000Y-102425000D03*
X166520000Y-102425000D03*
X169600000Y-102025000D03*
X166520000Y-102025000D03*
X169600000Y-101625000D03*
X166520000Y-101625000D03*
X169600000Y-101225000D03*
X166520000Y-101225000D03*
X169600000Y-100825000D03*
X166520000Y-100825000D03*
X169600000Y-100425000D03*
X166520000Y-100425000D03*
X169600000Y-100025000D03*
X166520000Y-100025000D03*
X169600000Y-99625000D03*
X166520000Y-99625000D03*
X169600000Y-99225000D03*
X166520000Y-99225000D03*
X169600000Y-98825000D03*
X166520000Y-98825000D03*
X169600000Y-98425000D03*
X166520000Y-98425000D03*
X169600000Y-98025000D03*
X166520000Y-98025000D03*
X169600000Y-97625000D03*
X166520000Y-97625000D03*
X169600000Y-97225000D03*
X166520000Y-97225000D03*
X169600000Y-96825000D03*
X166520000Y-96825000D03*
X169600000Y-96425000D03*
X166520000Y-96425000D03*
X169600000Y-96025000D03*
X166520000Y-96025000D03*
X169600000Y-95625000D03*
X166520000Y-95625000D03*
X169600000Y-95225000D03*
X166520000Y-95225000D03*
X169600000Y-94825000D03*
X166520000Y-94825000D03*
X169600000Y-94425000D03*
X166520000Y-94425000D03*
X169600000Y-94025000D03*
X166520000Y-94025000D03*
X169600000Y-93625000D03*
X166520000Y-93625000D03*
X169600000Y-93225000D03*
X166520000Y-93225000D03*
X169600000Y-92825000D03*
X166520000Y-92825000D03*
X169600000Y-92425000D03*
X166520000Y-92425000D03*
X169600000Y-92025000D03*
X166520000Y-92025000D03*
X169600000Y-91625000D03*
X166520000Y-91625000D03*
X135680000Y-111225000D03*
X132600000Y-111225000D03*
X135680000Y-110825000D03*
X132600000Y-110825000D03*
X135680000Y-110425000D03*
X132600000Y-110425000D03*
X135680000Y-110025000D03*
X132600000Y-110025000D03*
X135680000Y-109625000D03*
X132600000Y-109625000D03*
X135680000Y-109225000D03*
X132600000Y-109225000D03*
X135680000Y-108825000D03*
X132600000Y-108825000D03*
X135680000Y-108425000D03*
X132600000Y-108425000D03*
X135680000Y-108025000D03*
X132600000Y-108025000D03*
X135680000Y-107625000D03*
X132600000Y-107625000D03*
X135680000Y-107225000D03*
X132600000Y-107225000D03*
X135680000Y-106825000D03*
X132600000Y-106825000D03*
X135680000Y-106425000D03*
X132600000Y-106425000D03*
X135680000Y-106025000D03*
X132600000Y-106025000D03*
X135680000Y-105625000D03*
X132600000Y-105625000D03*
X135680000Y-105225000D03*
X132600000Y-105225000D03*
X135680000Y-104825000D03*
X132600000Y-104825000D03*
X135680000Y-104425000D03*
X132600000Y-104425000D03*
X135680000Y-104025000D03*
X132600000Y-104025000D03*
X135680000Y-103625000D03*
X132600000Y-103625000D03*
X135680000Y-103225000D03*
X132600000Y-103225000D03*
X135680000Y-102825000D03*
X132600000Y-102825000D03*
X135680000Y-102425000D03*
X132600000Y-102425000D03*
X135680000Y-102025000D03*
X132600000Y-102025000D03*
X135680000Y-101625000D03*
X132600000Y-101625000D03*
X135680000Y-101225000D03*
X132600000Y-101225000D03*
X135680000Y-100825000D03*
X132600000Y-100825000D03*
X135680000Y-100425000D03*
X132600000Y-100425000D03*
X135680000Y-100025000D03*
X132600000Y-100025000D03*
X135680000Y-99625000D03*
X132600000Y-99625000D03*
X135680000Y-99225000D03*
X132600000Y-99225000D03*
X135680000Y-98825000D03*
X132600000Y-98825000D03*
X135680000Y-98425000D03*
X132600000Y-98425000D03*
X135680000Y-98025000D03*
X132600000Y-98025000D03*
X135680000Y-97625000D03*
X132600000Y-97625000D03*
X135680000Y-97225000D03*
X132600000Y-97225000D03*
X135680000Y-96825000D03*
X132600000Y-96825000D03*
X135680000Y-96425000D03*
X132600000Y-96425000D03*
X135680000Y-96025000D03*
X132600000Y-96025000D03*
X135680000Y-95625000D03*
X132600000Y-95625000D03*
X135680000Y-95225000D03*
X132600000Y-95225000D03*
X135680000Y-94825000D03*
X132600000Y-94825000D03*
X135680000Y-94425000D03*
X132600000Y-94425000D03*
X135680000Y-94025000D03*
X132600000Y-94025000D03*
X135680000Y-93625000D03*
X132600000Y-93625000D03*
X135680000Y-93225000D03*
X132600000Y-93225000D03*
X135680000Y-92825000D03*
X132600000Y-92825000D03*
X135680000Y-92425000D03*
X132600000Y-92425000D03*
X135680000Y-92025000D03*
X132600000Y-92025000D03*
X135680000Y-91625000D03*
X132600000Y-91625000D03*
%TD*%
M02*
